<svg xmlns="http://www.w3.org/2000/svg" width="1713" height="1269" viewBox="0 0 1713 1269" version="1.1">
	<path d="M 798.641 3.244 C 792.160 11.788, 788.214 34.058, 786.016 74.500 C 784.747 97.859, 784.737 162.390, 785.997 195.500 C 790.942 325.423, 792.355 386.760, 791.040 414.270 C 790.175 432.340, 789.868 434.545, 787.466 439.897 C 784.438 446.643, 779.240 452.138, 773.500 454.659 C 770.076 456.164, 766.189 456.423, 746.500 456.462 C 725.176 456.504, 723.167 456.663, 718.936 458.638 C 713.935 460.974, 709.351 465.752, 708.373 469.650 C 707.141 474.560, 708.710 486.490, 711.773 495.500 C 713.456 500.450, 720.221 516.650, 726.805 531.500 C 742.044 565.868, 750.882 589.337, 749.020 590.488 C 747.344 591.524, 737.943 587.740, 726.885 581.579 C 701.963 567.693, 603.176 531.180, 547 515.091 C 492.544 499.494, 440.227 488.492, 364 476.608 C 275.069 462.742, 225.208 456.027, 166.500 450.007 C 134.050 446.679, 91.975 442.348, 73 440.381 C 41.735 437.141, 38.078 436.937, 34 438.202 C 24.693 441.091, 30.331 446.116, 52.477 454.669 C 59.090 457.223, 72.825 462.571, 83 466.554 C 93.175 470.537, 121.292 481.335, 145.481 490.549 C 201.745 511.980, 229.071 523.093, 234.280 526.662 C 236.559 528.223, 245.338 536.164, 253.789 544.310 C 276.095 565.807, 283.579 571.133, 325.096 595.050 C 367.966 619.748, 380.334 628.038, 389.568 638.265 C 408.040 658.723, 395.340 675.535, 352 687.994 C 328.978 694.613, 318.300 700.618, 314.090 709.315 C 309.848 718.077, 312.814 729.236, 321.338 736.582 C 335.659 748.925, 359.643 758.530, 426 778.497 C 444.975 784.206, 464.550 790.307, 469.500 792.053 C 478.841 795.349, 489.459 800.315, 490.392 801.825 C 491.108 802.984, 486.896 806.786, 479.188 811.939 C 475.717 814.260, 472.631 816.799, 472.330 817.581 C 470.450 822.482, 475.946 826.925, 490.950 832.633 C 496.202 834.631, 508.375 839.321, 518 843.055 C 527.625 846.789, 543.825 852.311, 554 855.326 C 595.566 867.642, 648.380 882.174, 662 885.043 C 683.108 889.488, 691.206 891.685, 700.878 895.586 C 711.971 900.061, 723.380 907.651, 723.834 910.859 C 724.742 917.277, 711.620 936.390, 694.517 953.560 C 666.305 981.881, 632.841 998.251, 561 1018.874 C 492.168 1038.632, 394.297 1058.853, 332.736 1066.033 C 293.636 1070.594, 246.306 1076.933, 243.559 1077.977 C 229.102 1083.474, 280.783 1083.036, 422.676 1076.458 C 435.733 1075.852, 435.848 1075.866, 435.300 1077.960 C 434.105 1082.532, 421.059 1090.940, 396.500 1102.970 C 348.870 1126.299, 321.951 1134.977, 221.304 1159.450 C 148.877 1177.061, 113.673 1186.663, 101.145 1192.223 C 96.724 1194.185, 96.620 1194.321, 99 1195.042 C 103.427 1196.385, 151.909 1196.046, 175.557 1194.507 C 244.856 1189.997, 319.084 1180.999, 349.500 1173.421 C 355 1172.051, 368.725 1167.743, 380 1163.848 C 417.953 1150.736, 427 1148.032, 427 1149.800 C 427 1151.030, 420.753 1157.454, 414.985 1162.155 C 406.730 1168.883, 366.240 1197.404, 352.947 1205.854 C 345.719 1210.448, 323.761 1222.423, 304.150 1232.464 C 265.811 1252.095, 247.975 1262.195, 244 1266.524 L 241.500 1269.246 248.500 1268.517 C 271.817 1266.090, 312.006 1249.422, 400.500 1205.478 C 466.349 1172.780, 488.709 1164.241, 535 1154.117 C 582.205 1143.792, 626.101 1140.341, 697.500 1141.341 C 742.131 1141.966, 757.333 1142.718, 782.500 1145.546 C 834.120 1151.346, 912.260 1171.164, 966.500 1192.214 C 1016.577 1211.647, 1029.471 1215.844, 1061.065 1222.987 C 1084.723 1228.337, 1121.809 1234.515, 1139.500 1236.054 C 1164.399 1238.219, 1193.602 1236.336, 1218.500 1230.958 C 1298.786 1213.616, 1372.959 1158.025, 1441.985 1063.460 C 1465.130 1031.752, 1478.371 1010.408, 1509.051 955.356 C 1538.965 901.676, 1554.210 877.360, 1571.652 855.500 C 1607.591 810.459, 1651.223 783.025, 1702.893 772.980 C 1708.060 771.976, 1712.665 770.557, 1713.128 769.827 C 1713.591 769.097, 1713.969 761.300, 1713.969 752.500 C 1713.969 743.700, 1713.632 737.031, 1713.219 737.679 C 1712.254 739.197, 1698.897 729.384, 1690.184 720.755 C 1680.299 710.967, 1676.557 704.680, 1666.521 681 C 1654.005 651.467, 1643.584 635.629, 1624.365 616.929 C 1590.704 584.177, 1547.221 562.827, 1498.964 555.357 C 1482.756 552.849, 1439.835 552.856, 1421.500 555.371 C 1380.228 561.032, 1341.744 573.759, 1305.917 593.594 C 1274.328 611.084, 1253.021 628.332, 1205.993 674.487 C 1185.604 694.496, 1180.242 698.740, 1177.332 697.170 C 1175.138 695.987, 1165.762 686.247, 1145.399 663.999 C 1137.094 654.924, 1122.694 640.301, 1113.399 631.502 C 1032.699 555.104, 998.659 518.589, 959.128 466.011 C 935.407 434.460, 919.334 408.185, 898.542 366.970 C 874.096 318.513, 857.221 276.078, 844.472 231 C 834.667 196.335, 829.775 171.200, 821.020 110.500 C 820.544 107.200, 819.874 93.025, 819.531 79 C 818.366 31.425, 815.355 13.290, 807.186 4.664 C 802.563 -0.217, 801.412 -0.409, 798.641 3.244 M 1 754.416 L 1 769.950 4.250 769.372 C 10.906 768.188, 15.657 766.766, 21.250 764.281 C 26.790 761.820, 27 761.589, 27 757.934 C 27 754.143, 26.996 754.140, 14.750 746.934 C 8.012 742.969, 2.163 739.536, 1.750 739.304 C 1.337 739.072, 1 745.872, 1 754.416 M 1.762 1268.707 C 3.006 1268.946, 4.806 1268.937, 5.762 1268.687 C 6.718 1268.437, 5.700 1268.241, 3.500 1268.252 C 1.300 1268.263, 0.518 1268.468, 1.762 1268.707 M 13.784 1268.738 C 16.689 1268.941, 21.189 1268.939, 23.784 1268.734 C 26.378 1268.528, 24 1268.363, 18.500 1268.365 C 13 1268.368, 10.878 1268.536, 13.784 1268.738 " stroke="none" fill="black" fill-rule="evenodd"/>
</svg>