<svg xmlns="http://www.w3.org/2000/svg" width="1294" height="1331" viewBox="0 0 1294 1331" version="1.1">
	<path d="M 26.751 530.174 L 26.500 1060.348 13.644 1010.924 C 6.574 983.741, 0.611 961.313, 0.394 961.083 C 0.178 960.854, 0 982.972, 0 1010.235 L 0 1059.804 5.750 1060.382 C 8.913 1060.700, 14.987 1061.247, 19.250 1061.597 L 27 1062.235 27 1196.080 L 27 1329.925 17.750 1330.255 L 8.500 1330.585 18.250 1330.792 L 28 1331 28 665.500 C 28 299.475, 27.775 0, 27.501 0 C 27.226 0, 26.889 238.578, 26.751 530.174 M 230.013 1.750 C 230.031 2.744, 242.794 52.131, 248.427 73 C 250.877 82.075, 271.389 160.600, 294.011 247.500 C 361.780 507.829, 395.816 638.546, 415.481 714 C 425.730 753.325, 445.821 830.500, 460.127 885.500 C 491.638 1006.638, 488.617 995.891, 491.321 996.441 C 492.519 996.684, 671.250 1011.096, 888.500 1028.466 C 1105.750 1045.836, 1285.862 1060.314, 1288.750 1060.639 L 1294 1061.230 1294 1008.510 L 1294 955.789 1242.402 758.144 C 1214.024 649.440, 1161.872 449.661, 1126.509 314.190 C 1091.147 178.720, 1062.053 67.744, 1061.857 67.577 C 1061.554 67.320, 232.899 0.919, 230.750 0.979 C 230.338 0.991, 230.006 1.337, 230.013 1.750 M 165 9.770 C 147.948 17.253, 135.048 25.656, 118.023 40.371 C 92.377 62.535, 64.374 99.103, 49.004 130.500 C 40.412 148.049, 38.129 154.548, 33.061 175.863 C 27.458 199.435, 27.535 203.330, 34.110 228.747 C 36.920 239.611, 40.021 250.066, 41 251.981 L 42.780 255.462 44.264 251.981 C 45.080 250.066, 49.344 240.625, 53.739 231 C 58.134 221.375, 62.480 211.202, 63.397 208.393 C 66.448 199.055, 80.015 177.687, 99.838 151 C 121.666 121.613, 156.186 90.917, 184.750 75.494 C 189.816 72.758, 192 71.009, 192 69.687 C 192 68.646, 189.737 59.629, 186.971 49.647 C 184.205 39.666, 181.661 28.800, 181.318 25.500 C 180.976 22.200, 179.864 17.932, 178.847 16.015 C 177.831 14.098, 177 11.772, 177 10.847 C 177 8.241, 175.905 5.998, 174.643 6.020 C 174.014 6.030, 169.675 7.718, 165 9.770 M 201.380 127.872 C 185.072 136.827, 154.829 166.700, 134.970 193.471 C 106.352 232.051, 83.920 286.324, 74.980 338.618 C 71.235 360.520, 72.549 372.838, 82.014 404.572 C 87.097 421.614, 94.933 449.901, 161.498 691.500 C 181.500 764.100, 206.635 855, 217.354 893.500 C 238.778 970.456, 250.717 1013.966, 253.984 1027 C 257.764 1042.083, 258.080 1043.069, 258.960 1042.525 C 259.436 1042.230, 262.652 1037.379, 266.106 1031.745 C 276.277 1015.152, 287.878 998.012, 294.087 990.403 C 305.101 976.906, 331.698 950.085, 343.077 941.001 C 362.877 925.193, 388.839 908.520, 402.250 902.999 C 405.412 901.697, 408 900.298, 408 899.891 C 408 899.483, 392.062 837.804, 372.583 762.825 C 353.104 687.846, 308.090 514.450, 272.553 377.500 C 237.015 240.550, 207.615 127.726, 207.220 126.780 C 206.567 125.221, 206.022 125.323, 201.380 127.872 M 413.274 957.450 C 379.639 975.510, 345.263 1008.267, 319.823 1046.500 C 303.503 1071.027, 287.694 1108.024, 284.953 1128.105 C 283.641 1137.714, 282.359 1131.846, 297.932 1187.500 C 303.011 1205.650, 308.940 1227.458, 311.109 1235.963 C 313.773 1246.413, 315.746 1252.166, 317.196 1253.709 C 318.376 1254.965, 319.602 1255.732, 319.921 1255.413 C 320.239 1255.095, 320.791 1243.509, 321.146 1229.667 C 321.828 1203.118, 323.141 1192.996, 328.459 1173.278 C 336.558 1143.250, 353.494 1111.338, 376.634 1082.500 C 392.888 1062.244, 425.670 1031.359, 437.298 1025.346 C 440.032 1023.932, 440.164 1023.581, 439.538 1019.402 C 437.993 1009.102, 422.899 952.918, 421.703 953.017 C 421.591 953.026, 417.798 955.021, 413.274 957.450 M 496.396 1052.014 C 492.166 1053.332, 470.907 1067.076, 461.109 1074.826 C 450.345 1083.340, 428.196 1106.308, 419.144 1118.341 C 398.623 1145.624, 385.293 1173.968, 378.859 1204 C 376.914 1213.075, 376.602 1217.576, 376.555 1237.166 C 376.525 1249.632, 376.766 1260.098, 377.092 1260.424 C 377.689 1261.023, 428.327 1265.355, 933.500 1308.021 C 1011.600 1314.617, 1076.625 1320.231, 1078 1320.497 C 1079.375 1320.762, 1087.925 1321.174, 1097 1321.411 C 1106.075 1321.648, 1131.275 1323.663, 1153 1325.889 C 1203.367 1331.049, 1211 1331.612, 1211 1330.165 C 1211 1329.548, 1207.250 1321.721, 1202.666 1312.772 C 1191.819 1291.592, 1188.546 1279.343, 1187.763 1257 L 1187.500 1249.500 1156.753 1237.047 C 1139.841 1230.199, 1126.360 1224.240, 1126.794 1223.806 C 1128.060 1222.540, 1167.501 1216.084, 1245.500 1204.377 C 1247.700 1204.046, 1250.991 1203.163, 1252.813 1202.413 L 1256.127 1201.049 1247.313 1193.642 C 1236.666 1184.693, 1219 1166.647, 1219 1164.719 C 1219 1163.955, 1224.318 1158.123, 1230.818 1151.760 C 1241.729 1141.080, 1252.208 1133.021, 1257.277 1131.412 C 1258.419 1131.050, 1260.512 1129.679, 1261.927 1128.366 C 1263.342 1127.054, 1267.875 1124.595, 1272 1122.902 C 1279.560 1119.800, 1287.546 1115.212, 1286.758 1114.424 C 1286.524 1114.190, 1278.045 1113.529, 1267.916 1112.955 C 1257.787 1112.382, 1229.925 1110.154, 1206 1108.006 C 1182.075 1105.858, 1156.200 1103.607, 1148.500 1103.005 C 1140.800 1102.402, 1110.650 1099.921, 1081.500 1097.492 C 1052.350 1095.062, 1015 1092.153, 998.500 1091.026 C 935.360 1086.714, 833.037 1078.674, 730.500 1069.968 C 625.778 1061.077, 515.031 1051.898, 507.500 1051.485 C 503.100 1051.243, 498.103 1051.482, 496.396 1052.014 M 1.762 1330.707 C 3.006 1330.946, 4.806 1330.937, 5.762 1330.687 C 6.718 1330.437, 5.700 1330.241, 3.500 1330.252 C 1.300 1330.263, 0.518 1330.468, 1.762 1330.707 " stroke="none" fill="black" fill-rule="evenodd"/>
</svg>