<svg xmlns="http://www.w3.org/2000/svg" width="1202" height="757" viewBox="0 0 1202 757" version="1.1">
	<path d="M 27.046 345 C 26.829 535.025, 26.504 688.475, 26.324 686 C 24.401 659.478, 20.393 634.244, 14.014 608.500 C 10.367 593.780, 1.527 564.194, 0.457 563.123 C 0.205 562.872, -0 605.042, -0 656.833 L 0 751 11.939 751 L 23.877 751 24.526 746.673 C 24.883 744.293, 25.522 738.105, 25.945 732.923 C 26.686 723.859, 26.720 724.117, 26.857 739.712 L 27 755.925 17.750 756.255 L 8.500 756.585 18.250 756.792 L 28 757 28.066 405.250 C 28.124 95.981, 28.307 54.152, 29.583 58.895 C 34.118 75.760, 48.361 88.162, 66.467 91.011 C 94.186 95.373, 120.180 72.245, 117.677 45.445 C 116.532 33.181, 110.640 22.675, 100.875 15.487 C 82.061 1.637, 56.526 3.347, 40.606 19.524 C 34.943 25.278, 30.116 34.072, 29.131 40.431 C 28.784 42.669, 28.262 34.375, 27.971 22 C 27.680 9.625, 27.264 154.975, 27.046 345 M 637 1.404 C 637 1.755, 639.673 12.944, 642.939 26.271 C 663.105 108.538, 671.090 182.791, 666.928 249.350 C 660.427 353.305, 627.315 440.125, 566.033 513.899 C 553.452 529.045, 525.847 556.894, 510 570.428 C 452.401 619.620, 377.457 661.347, 284.500 695.979 C 243.569 711.229, 207.362 722.666, 139 741.942 C 113.425 749.153, 91.600 755.440, 90.500 755.912 C 89.359 756.403, 102.891 756.576, 122 756.316 C 140.425 756.066, 257.650 754.754, 382.500 753.401 C 619.961 750.827, 624.385 750.708, 658.500 745.963 C 762.235 731.533, 835.600 690.162, 876.563 622.995 C 893.302 595.547, 904.295 561.874, 908.553 525 C 911.024 503.601, 910.126 462.753, 906.684 440 C 898.428 385.427, 881.648 334.816, 852.310 276 C 836.373 244.050, 824.768 224.004, 804.552 193.500 C 772.979 145.861, 739.583 104.189, 696.366 58.500 C 676.224 37.207, 637 -0.518, 637 1.404 M 318 31.518 C 293.525 34.428, 256.741 38.745, 236.258 41.112 C 215.775 43.479, 199.350 45.711, 199.758 46.072 C 200.166 46.432, 217.375 48.614, 238 50.919 L 275.500 55.111 323 40.612 C 353.146 31.410, 369.039 26.134, 366.500 26.170 C 364.300 26.202, 342.475 28.608, 318 31.518 M 126.043 59.399 C 109.924 97.003, 115.658 129.753, 146.458 176 C 159.541 195.644, 161.298 198.789, 164.435 208.176 C 169.075 222.061, 167.500 234.025, 159.625 244.723 C 150.751 256.777, 133.811 266.580, 91.724 284.017 C 78.097 289.662, 67.118 294.452, 67.327 294.660 C 67.535 294.869, 76.759 292.770, 87.823 289.995 C 169.761 269.451, 200.372 251.575, 205.024 221.556 C 206.970 209, 203.357 190.573, 194.050 165.590 C 191.815 159.590, 190.110 154.557, 190.261 154.406 C 190.906 153.761, 214.645 158.282, 228 161.593 C 284.411 175.576, 318.737 200.193, 327.028 232.609 C 334.094 260.236, 321.684 293.806, 292.205 326.808 C 288.517 330.936, 275.457 343.529, 263.182 354.791 C 250.906 366.053, 238.127 378.447, 234.783 382.332 C 222.480 396.627, 215.986 409.265, 214.237 422.317 L 213.354 428.907 222.467 439.703 C 227.479 445.642, 254.912 478.400, 283.429 512.500 C 311.946 546.600, 335.912 575.234, 336.687 576.132 C 337.950 577.594, 336.332 579.072, 321.084 590.379 C 250.769 642.526, 183.485 680.083, 113 706.529 C 98.152 712.100, 92.547 714.752, 98 713.625 C 99.375 713.341, 104.775 712.837, 110 712.505 C 172.414 708.540, 250.754 692.334, 308.899 671.358 C 459.216 617.131, 569.360 510.451, 632.950 357.500 C 637.676 346.133, 637.667 346.136, 628.506 359 C 582.528 423.561, 524.803 474.412, 443 522.414 C 428.754 530.774, 364.082 564, 362.057 564 C 361.159 564, 343.803 533.671, 319.709 490 C 309.544 471.575, 297.364 449.815, 292.642 441.644 C 284.198 427.030, 284.083 426.741, 285.564 423.875 C 288.370 418.449, 300.404 406.811, 316.985 393.488 C 351.901 365.433, 372.008 344.341, 401.820 304.500 C 437.277 257.113, 457.224 217.974, 462.600 185.237 C 464.468 173.862, 463.989 158.786, 461.464 149.500 C 449.906 106.984, 400.006 81.406, 304.500 69.044 C 272.589 64.913, 242.400 62.355, 180.500 58.537 C 158.500 57.179, 137.677 55.815, 134.227 55.504 L 127.955 54.940 126.043 59.399 M 959.137 274.750 C 989.679 376.080, 999.636 462.253, 988.474 528.647 C 973.564 617.331, 923.733 675.772, 831.500 712.739 C 796.675 726.697, 756.351 737.878, 696.759 750.099 C 685.352 752.438, 676.180 754.513, 676.377 754.710 C 676.854 755.188, 1096.859 753.134, 1155.750 752.366 L 1202 751.763 1202 655.349 L 1202 558.935 1198.874 550.718 C 1178.940 498.309, 1150.064 446.037, 1116.475 401.556 C 1079.127 352.098, 1034.452 310.149, 990 282.798 C 978.106 275.480, 958.818 265, 957.244 265 C 956.645 265, 957.455 269.171, 959.137 274.750 M 333.659 391.756 L 310.819 414.500 314.057 426.500 C 320.673 451.019, 332.649 482.561, 346.627 512.282 C 354.664 529.369, 366.770 553, 367.488 553 C 367.935 553, 367.444 548.989, 362.470 512 C 356.951 470.961, 356.331 465.398, 354.902 444 C 353.575 424.140, 354.268 396.688, 356.480 381.500 C 358.191 369.755, 358.237 368.998, 357.250 369.006 C 356.837 369.009, 346.222 379.247, 333.659 391.756 M 1.762 756.707 C 3.006 756.946, 4.806 756.937, 5.762 756.687 C 6.718 756.437, 5.700 756.241, 3.500 756.252 C 1.300 756.263, 0.518 756.468, 1.762 756.707 " stroke="none" fill="black" fill-rule="evenodd"/>
</svg>