<svg xmlns="http://www.w3.org/2000/svg" width="1309" height="845" viewBox="0 0 1309 845" version="1.1">
	<path d="M 566 1.028 C 554.988 1.878, 533.092 4.419, 526.250 5.642 C 524.462 5.961, 523 6.677, 523 7.232 C 523 7.788, 528.118 13.475, 534.373 19.871 C 555.854 41.836, 575.235 76.721, 580.562 103.007 C 582.549 112.813, 584.194 111.037, 563 121.961 C 517.197 145.570, 457.532 185.950, 416 221.448 C 410.775 225.914, 403.125 232.310, 399 235.662 C 392.776 240.718, 353.697 276.535, 338.292 291.301 L 334.084 295.334 323.751 285.417 C 270.125 233.949, 203.246 196.551, 131.646 177.993 C 102.903 170.544, 74.925 166.415, 45.750 165.318 L 29 164.688 29 173.721 C 29 178.690, 29.650 185.847, 30.445 189.627 C 31.240 193.407, 32.632 202.051, 33.540 208.835 C 37.881 241.290, 49.056 267.424, 73.379 302 C 88.074 322.889, 112.143 344.761, 141.609 364.001 C 147.599 367.912, 161.388 375.599, 172.250 381.082 C 183.113 386.565, 192 391.422, 192 391.875 C 192 392.328, 185.587 395.748, 177.750 399.476 C 163.252 406.372, 145.388 416.675, 129.916 427.064 C 104.515 444.121, 83.596 465.375, 65.511 492.500 C 48.079 518.645, 37.952 544.580, 33.491 574.500 C 32.589 580.550, 31.209 588.920, 30.425 593.100 C 29.641 597.280, 29 604.834, 29 609.887 L 29 619.074 42.250 618.468 C 100.843 615.789, 161.587 600.405, 215.500 574.590 C 234.943 565.280, 268.156 544.678, 284 532.100 C 295.024 523.349, 307.488 512.593, 319.746 501.253 C 327.032 494.514, 333.443 489, 333.993 489 C 334.543 489, 339.840 493.612, 345.765 499.250 C 378.624 530.514, 394.417 544.453, 421.877 566.426 C 509.366 636.436, 575.561 674.850, 655.500 702.002 C 666.500 705.738, 676.288 709.114, 677.250 709.505 C 678.579 710.043, 679 711.382, 679 715.073 C 679 729.165, 672.338 760.433, 665.640 777.776 C 657.568 798.677, 650.307 811.451, 635.758 830.349 C 630.317 837.417, 626.029 843.363, 626.230 843.563 C 626.430 843.764, 634.448 844.225, 644.047 844.588 C 702.222 846.790, 770.205 834.376, 831.500 810.359 C 850.294 802.995, 880.430 788.006, 897.141 777.709 C 925.336 760.337, 959.428 732.898, 980.280 710.794 C 994.280 695.953, 995.875 694.862, 1016.500 686.035 C 1057.807 668.355, 1111.294 634.773, 1155 599.076 C 1181.489 577.441, 1224.282 537.076, 1242.543 516.500 C 1260.244 496.556, 1291.147 458.635, 1304.036 441.042 L 1309.500 433.584 1309.791 390.584 C 1309.951 366.934, 1309.785 347.882, 1309.422 348.245 C 1309.059 348.608, 1303.569 342.064, 1297.221 333.702 C 1262.812 288.376, 1238.482 261.508, 1195.464 221.331 C 1157.905 186.251, 1151.271 180.454, 1131.881 165.766 C 1064.041 114.378, 985.210 78.111, 907.500 62.538 C 879.433 56.914, 860.545 54.844, 832 54.265 L 806.500 53.747 789 45.086 C 742.980 22.309, 695.792 8.439, 644 2.465 C 627.937 0.613, 582.283 -0.229, 566 1.028 M 1 390.935 C 1 430.272, 1.045 431.211, 2.837 428.885 C 5.291 425.698, 15.799 409.975, 20.471 402.500 C 22.533 399.200, 25.129 395.509, 26.239 394.298 C 27.351 393.086, 28.038 391.288, 27.769 390.298 C 27.344 388.735, 4.196 354.110, 1.865 351.550 C 1.377 351.014, 1 368.178, 1 390.935 M 1.762 844.707 C 3.006 844.946, 4.806 844.937, 5.762 844.687 C 6.718 844.437, 5.700 844.241, 3.500 844.252 C 1.300 844.263, 0.518 844.468, 1.762 844.707 M 13.784 844.738 C 16.689 844.941, 21.189 844.939, 23.784 844.734 C 26.378 844.528, 24 844.363, 18.500 844.365 C 13 844.368, 10.878 844.536, 13.784 844.738 " stroke="none" fill="black" fill-rule="evenodd"/>
</svg>