<svg xmlns="http://www.w3.org/2000/svg" width="1028" height="964" viewBox="0 0 1028 964" version="1.1">
	<path d="M 519.500 0.595 C 449.993 4.873, 387.872 20.837, 327.500 49.935 C 272.841 76.279, 226.705 109.200, 182.436 153.445 C 142.043 193.816, 110.609 236.699, 84.902 286.500 C 34.020 385.074, 17.419 490.990, 37.098 591.500 C 59.987 708.401, 131.801 810.310, 245.500 887.237 C 258.720 896.182, 283.830 911.792, 290.770 915.381 L 293.937 917.019 306.174 898.259 C 324.253 870.545, 391.520 770.069, 415.474 735 C 426.932 718.225, 447.941 687.556, 462.162 666.846 L 488.017 629.193 496.259 634.102 C 542.341 661.551, 602.179 664.223, 651.500 641.034 C 671.251 631.748, 685.679 621.343, 701.118 605.249 C 744.057 560.492, 756.644 495.134, 733.442 437.398 C 723.382 412.364, 704.656 387.864, 682.500 370.750 C 677.550 366.926, 673.356 363.412, 673.181 362.942 C 673.005 362.471, 688.786 338.779, 708.248 310.293 C 752.432 245.622, 761.224 232.655, 789.123 191 C 808.850 161.546, 850.531 98.474, 852.319 95.370 C 853.814 92.775, 802.760 64.777, 770.500 50.501 C 709.469 23.493, 651.963 8.213, 588 2.010 C 576.959 0.939, 529.756 -0.036, 519.500 0.595 M 842.531 118.950 C 841.884 119.997, 845.836 122.497, 846.728 121.605 C 847.391 120.943, 845.112 118, 843.937 118 C 843.486 118, 842.854 118.427, 842.531 118.950 M 852 125.759 C 852 126.869, 855.680 128.987, 856.384 128.283 C 857.239 127.428, 855.016 125, 853.378 125 C 852.620 125, 852 125.342, 852 125.759 M 862 132.891 C 862 133.462, 862.940 134.433, 864.089 135.048 C 865.879 136.005, 866.128 135.904, 865.828 134.344 C 865.458 132.423, 862 131.111, 862 132.891 M 871.499 139.001 C 871.114 139.624, 870.957 140.230, 871.150 140.349 C 871.342 140.469, 872.247 141.135, 873.161 141.832 C 875.530 143.637, 876.345 141.622, 874.076 139.569 C 872.760 138.378, 871.989 138.208, 871.499 139.001 M 881 146.878 C 881 148.156, 883.940 150.393, 884.667 149.667 C 885.393 148.940, 883.156 146, 881.878 146 C 881.395 146, 881 146.395, 881 146.878 M 890 154.531 C 890 156.143, 892.662 157.672, 893.686 156.648 C 894.398 155.935, 892.138 153, 890.878 153 C 890.395 153, 890 153.689, 890 154.531 M 899 162.393 C 899 163.814, 901.880 165.453, 902.786 164.548 C 903.424 163.909, 901.039 161, 899.878 161 C 899.395 161, 899 161.627, 899 162.393 M 907.675 169.658 C 906.774 170.559, 908.926 173, 910.622 173 C 912.319 173, 912.396 171.796, 910.800 170.200 C 909.444 168.844, 908.631 168.703, 907.675 169.658 M 916.629 177.791 C 915.904 178.964, 918.756 181.578, 919.715 180.619 C 920.081 180.252, 919.673 179.245, 918.809 178.380 C 917.874 177.445, 916.991 177.206, 916.629 177.791 M 924.688 185.696 C 923.805 187.125, 926.884 190.516, 928.027 189.373 C 928.721 188.679, 928.431 187.795, 927.123 186.611 C 926.065 185.653, 924.969 185.241, 924.688 185.696 M 932.583 194.866 C 931.919 195.940, 935.422 199.245, 936.296 198.371 C 937.096 197.571, 935.239 194, 934.024 194 C 933.526 194, 932.877 194.390, 932.583 194.866 M 940.570 203.887 C 939.917 204.944, 942.783 207.550, 943.648 206.686 C 944.481 205.852, 943.276 203, 942.090 203 C 941.556 203, 940.871 203.399, 940.570 203.887 M 948 212.878 C 948 214.156, 950.940 216.393, 951.667 215.667 C 952.393 214.940, 950.156 212, 948.878 212 C 948.395 212, 948 212.395, 948 212.878 M 955.583 221.866 C 954.930 222.922, 958.414 226.253, 959.272 225.394 C 959.963 224.704, 957.894 221, 956.818 221 C 956.433 221, 955.877 221.390, 955.583 221.866 M 963.478 231.036 C 963.085 231.672, 963.438 232.867, 964.263 233.692 C 966.213 235.642, 967.217 234.018, 965.507 231.679 C 964.589 230.423, 963.976 230.229, 963.478 231.036 M 970 240.566 C 970 242.140, 972.223 244.980, 973.053 244.467 C 974.185 243.768, 972.424 240, 970.965 240 C 970.434 240, 970 240.255, 970 240.566 M 976.952 251.911 C 978.306 254.440, 980.278 254.682, 979.812 252.261 C 979.628 251.305, 978.657 250.365, 977.656 250.172 C 976.096 249.872, 975.995 250.121, 976.952 251.911 M 983.567 259.892 C 982.800 261.132, 984.584 264, 986.122 264 C 987.386 264, 987.204 262.661, 985.653 260.540 C 984.682 259.213, 984.099 259.032, 983.567 259.892 M 989.758 269.576 C 988.897 270.436, 990.731 274, 992.035 274 C 993.363 274, 993.243 272.715, 991.723 270.635 C 991.020 269.674, 990.136 269.198, 989.758 269.576 M 995.393 281.582 C 995.727 282.452, 996 283.352, 996 283.582 C 996 283.812, 996.723 284, 997.607 284 C 998.662 284, 999.005 283.456, 998.607 282.418 C 998.273 281.548, 998 280.648, 998 280.418 C 998 280.188, 997.277 280, 996.393 280 C 995.338 280, 994.995 280.544, 995.393 281.582 M 1001.015 291.250 C 1001.041 293.363, 1002.715 295.294, 1003.891 294.567 C 1004.678 294.081, 1004.701 293.309, 1003.968 291.939 C 1002.802 289.762, 1000.992 289.339, 1001.015 291.250 M 1006.758 300.576 C 1005.897 301.436, 1007.731 305, 1009.035 305 C 1010.363 305, 1010.243 303.715, 1008.723 301.635 C 1008.020 300.674, 1007.136 300.198, 1006.758 300.576 M 1011.591 311.853 C 1010.899 312.973, 1013.636 316.697, 1014.510 315.824 C 1015.379 314.954, 1014.135 311, 1012.992 311 C 1012.511 311, 1011.881 311.384, 1011.591 311.853 M 1016 322.809 C 1016 323.254, 1016.606 324.447, 1017.347 325.460 C 1018.872 327.546, 1020.384 326.165, 1019.396 323.590 C 1018.775 321.972, 1016 321.334, 1016 322.809 M 1021.015 334.250 C 1021.024 334.938, 1021.417 336.111, 1021.890 336.857 C 1022.989 338.591, 1024.436 336.579, 1023.620 334.452 C 1022.938 332.675, 1020.994 332.524, 1021.015 334.250 M 1025 344.566 C 1025 344.877, 1025.521 346.104, 1026.157 347.293 C 1027.286 349.403, 1027.331 349.408, 1028.032 347.478 C 1028.427 346.390, 1028.554 345.163, 1028.316 344.750 C 1027.813 343.881, 1025 343.724, 1025 344.566 M 1.557 356.250 C 2.435 359.108, 2.653 359.332, 3.840 358.599 C 5.256 357.724, 4.022 354, 2.316 354 C 1.273 354, 1.060 354.633, 1.557 356.250 M 5 365.835 C 5 367.691, 6.207 370, 7.177 370 C 8.567 370, 7.736 365.734, 6.250 365.245 C 5.563 365.019, 5 365.284, 5 365.835 M 8.748 376.585 C 7.801 377.532, 9.196 381, 10.523 381 C 11.324 381, 11.613 380.236, 11.286 378.984 C 10.714 376.800, 9.593 375.740, 8.748 376.585 M 11.763 390.542 C 12.178 392.712, 14.289 393.792, 14.075 391.725 C 14.034 391.326, 14 390.325, 14 389.500 C 14 388.675, 13.387 388, 12.639 388 C 11.720 388, 11.435 388.826, 11.763 390.542 M 14.566 399.893 C 13.835 401.076, 14.933 404, 16.107 404 C 17.290 404, 17.259 400.278, 16.069 399.543 C 15.557 399.226, 14.881 399.384, 14.566 399.893 M 17 412.941 C 17 415.128, 18.562 416.518, 19.434 415.107 C 20.165 413.924, 19.067 411, 17.893 411 C 17.402 411, 17 411.873, 17 412.941 M 19.682 422.652 C 18.412 423.922, 18.991 427, 20.500 427 C 21.325 427, 21.993 426.438, 21.985 425.750 C 21.962 423.888, 20.463 421.871, 19.682 422.652 M 21 436.500 C 21 438.130, 21.560 439, 22.607 439 C 23.662 439, 24.005 438.456, 23.607 437.418 C 23.273 436.548, 23 435.423, 23 434.918 C 23 434.413, 22.550 434, 22 434 C 21.450 434, 21 435.125, 21 436.500 M 22 446.918 C 22 448.649, 23.214 451, 24.107 451 C 24.598 451, 25 449.875, 25 448.500 C 25 446.944, 24.433 446, 23.500 446 C 22.675 446, 22 446.413, 22 446.918 M 24 460 C 24 461.100, 24.450 462, 25 462 C 25.550 462, 26 461.100, 26 460 C 26 458.900, 25.550 458, 25 458 C 24.450 458, 24 458.900, 24 460 M 24.775 469.558 C 23.971 470.362, 25.069 474, 26.117 474 C 26.602 474, 27 472.875, 27 471.500 C 27 469.147, 26.031 468.302, 24.775 469.558 M 25 483.417 C 25 485.097, 25.549 486, 26.570 486 C 27.612 486, 28.032 485.271, 27.820 483.828 C 27.348 480.627, 25 480.284, 25 483.417 M 25.180 495.172 C 25.652 498.373, 28 498.716, 28 495.583 C 28 493.903, 27.451 493, 26.430 493 C 25.388 493, 24.968 493.729, 25.180 495.172 M 25.180 507.250 C 25.356 508.488, 25.950 509.500, 26.500 509.500 C 27.050 509.500, 27.644 508.488, 27.820 507.250 C 28.039 505.702, 27.628 505, 26.500 505 C 25.372 505, 24.961 505.702, 25.180 507.250 M 25 519 C 25 520.100, 25.450 521, 26 521 C 26.550 521, 27 520.100, 27 519 C 27 517.900, 26.550 517, 26 517 C 25.450 517, 25 517.900, 25 519 M 24.639 528.694 C 23.403 529.930, 24.017 533, 25.500 533 C 26.325 533, 27 532.127, 27 531.059 C 27 528.972, 25.682 527.651, 24.639 528.694 M 23 542.500 C 23 545.293, 24.459 545.853, 25.393 543.418 C 26.353 540.916, 26.114 540, 24.500 540 C 23.567 540, 23 540.944, 23 542.500 M 22 554.500 C 22 555.875, 22.450 557, 23 557 C 23.550 557, 24 555.875, 24 554.500 C 24 553.125, 23.550 552, 23 552 C 22.450 552, 22 553.125, 22 554.500 M 20 566.083 C 20 568.520, 22.337 568.176, 22.823 565.667 C 23.015 564.680, 22.505 564, 21.573 564 C 20.646 564, 20 564.855, 20 566.083 M 18.667 575.667 C 18.300 576.033, 18 577.196, 18 578.250 C 18 580.843, 20.415 579.920, 20.820 577.172 C 21.129 575.069, 20.031 574.302, 18.667 575.667 M 16 589.500 C 16 590.875, 16.450 592, 17 592 C 17.550 592, 18 591.587, 18 591.082 C 18 590.577, 18.273 589.452, 18.607 588.582 C 19.005 587.544, 18.662 587, 17.607 587 C 16.560 587, 16 587.870, 16 589.500 M 13.476 600.075 C 12.727 602.436, 13.363 603.512, 14.933 602.541 C 16.245 601.731, 16.355 598, 15.067 598 C 14.554 598, 13.838 598.934, 13.476 600.075 M 10.604 611.590 C 9.871 613.501, 10.770 615.260, 12.069 614.457 C 13.259 613.722, 13.290 610, 12.107 610 C 11.616 610, 10.939 610.716, 10.604 611.590 M 7.476 623.075 C 7.114 624.217, 7.108 625.441, 7.463 625.796 C 8.213 626.546, 9.962 624.085, 9.985 622.250 C 10.010 620.223, 8.191 620.821, 7.476 623.075 M 3.607 634.582 C 2.756 636.798, 2.821 637, 4.383 637 C 5.144 637, 6.002 636.100, 6.290 635 C 6.918 632.596, 4.513 632.221, 3.607 634.582 M 0 646 C 0 648.384, 1.536 648.653, 2.393 646.418 C 3.251 644.183, 3.183 644, 1.500 644 C 0.667 644, 0 644.889, 0 646 M 1023.710 658 C 1023.082 660.404, 1025.487 660.779, 1026.393 658.418 C 1027.244 656.202, 1027.179 656, 1025.617 656 C 1024.856 656, 1023.998 656.900, 1023.710 658 M 1019.604 668.590 C 1018.771 670.761, 1019.999 672.609, 1021.110 670.857 C 1022.236 669.079, 1022.235 667, 1021.107 667 C 1020.616 667, 1019.939 667.716, 1019.604 668.590 M 1015.050 678.906 C 1013.669 681.487, 1013.724 682, 1015.383 682 C 1016.961 682, 1018.255 678.276, 1016.956 677.473 C 1016.486 677.182, 1015.628 677.827, 1015.050 678.906 M 1010.050 689.906 C 1008.749 692.338, 1008.730 693, 1009.965 693 C 1011.424 693, 1013.185 689.232, 1012.053 688.533 C 1011.529 688.209, 1010.628 688.827, 1010.050 689.906 M 1004.574 700.667 C 1003.505 703.454, 1005.566 704.248, 1006.806 701.527 C 1007.733 699.493, 1007.690 699, 1006.586 699 C 1005.831 699, 1004.926 699.750, 1004.574 700.667 M 999.090 710.832 C 997.752 713.332, 999.269 714.586, 1001.044 712.447 C 1001.943 711.363, 1002.004 710.604, 1001.250 709.850 C 1000.497 709.097, 999.865 709.384, 999.090 710.832 M 993 722 C 992.146 723.596, 992.240 724, 993.465 724 C 994.309 724, 995 723.812, 995 723.582 C 995 723.352, 995.273 722.452, 995.607 721.582 C 996.489 719.283, 994.263 719.640, 993 722 M 987 732 C 986.146 733.596, 986.240 734, 987.465 734 C 988.309 734, 989 733.812, 989 733.582 C 989 733.352, 989.273 732.452, 989.607 731.582 C 990.489 729.283, 988.263 729.640, 987 732 M 980.583 741.643 C 980.237 742.547, 980.178 743.511, 980.452 743.786 C 981.091 744.424, 984 742.039, 984 740.878 C 984 739.325, 981.235 739.944, 980.583 741.643 M 974.074 751.411 C 973.187 752.480, 973.184 752.996, 974.063 753.539 C 975.139 754.204, 976.949 752.475, 976.985 750.750 C 977.010 749.518, 975.328 749.899, 974.074 751.411 M 967.261 760.954 C 966.590 762.028, 966.422 763.143, 966.887 763.430 C 967.973 764.101, 971.223 760.557, 970.336 759.669 C 969.255 758.588, 968.556 758.880, 967.261 760.954 M 960.131 770.342 C 959.041 771.656, 959.546 773, 961.131 773 C 961.570 773, 962.411 772.100, 963 771 C 963.836 769.439, 963.760 769, 962.658 769 C 961.881 769, 960.744 769.604, 960.131 770.342 M 953.036 779.456 C 952.372 780.257, 952.160 781.450, 952.567 782.108 C 953.099 782.968, 953.682 782.787, 954.653 781.460 C 957.025 778.217, 955.566 776.408, 953.036 779.456 M 945.479 789.024 C 943.973 790.688, 943.932 791, 945.223 791 C 947.143 791, 949.429 788.383, 948.182 787.613 C 947.679 787.302, 946.462 787.937, 945.479 789.024 M 937.980 797.524 C 937.284 798.362, 936.993 799.327, 937.333 799.667 C 938.060 800.393, 941 798.156, 941 796.878 C 941 795.500, 939.370 795.849, 937.980 797.524 M 929.583 806.643 C 929.237 807.547, 929.178 808.511, 929.452 808.786 C 930.091 809.424, 933 807.039, 933 805.878 C 933 804.325, 930.235 804.944, 929.583 806.643 M 921.569 814.924 C 920.634 815.957, 920.289 817.061, 920.801 817.377 C 921.314 817.694, 922.497 817.108, 923.431 816.076 C 924.366 815.043, 924.711 813.939, 924.199 813.623 C 923.686 813.306, 922.503 813.892, 921.569 814.924 M 913.131 823.342 C 912.519 824.080, 912.310 824.976, 912.667 825.333 C 913.417 826.084, 916 824.181, 916 822.878 C 916 821.561, 914.393 821.821, 913.131 823.342 M 904.611 830.877 C 902.483 833.229, 903.978 834.473, 906.603 832.535 C 907.959 831.534, 908.194 830.824, 907.426 830.044 C 906.653 829.258, 905.865 829.492, 904.611 830.877 M 896.063 838.424 C 894.131 840.752, 895.177 842.325, 897.512 840.602 C 898.954 839.537, 899.200 838.830, 898.408 838.025 C 897.609 837.214, 896.979 837.321, 896.063 838.424 M 886.971 846.535 C 885.234 848.628, 886.682 849.746, 888.620 847.809 C 889.555 846.874, 889.794 845.991, 889.209 845.629 C 888.669 845.295, 887.662 845.703, 886.971 846.535 M 877.611 853.877 C 875.483 856.229, 876.978 857.473, 879.603 855.535 C 880.959 854.534, 881.194 853.824, 880.426 853.044 C 879.653 852.258, 878.865 852.492, 877.611 853.877 M 868.074 861.411 C 867.430 862.187, 867.267 863.047, 867.712 863.322 C 868.785 863.985, 872.155 861.489, 871.318 860.651 C 870.312 859.645, 869.353 859.870, 868.074 861.411 M 858.540 868.347 C 857.213 869.318, 857.032 869.901, 857.892 870.433 C 859.132 871.200, 862 869.416, 862 867.878 C 862 866.614, 860.661 866.796, 858.540 868.347 M 849.029 874.961 C 848.220 875.473, 847.863 876.196, 848.236 876.569 C 849.151 877.484, 852 876.320, 852 875.031 C 852 873.761, 850.965 873.737, 849.029 874.961 M 838.980 881.524 C 838.284 882.362, 837.966 883.299, 838.272 883.605 C 839.164 884.497, 843.116 881.997, 842.469 880.950 C 841.623 879.581, 840.429 879.778, 838.980 881.524 M 829.742 887.125 C 828.784 887.661, 828 888.527, 828 889.050 C 828 890.613, 831.015 890.123, 831.655 888.457 C 832.452 886.380, 831.838 885.952, 829.742 887.125 M 819.742 893.125 C 818.784 893.661, 818 894.527, 818 895.050 C 818 896.613, 821.015 896.123, 821.655 894.457 C 822.452 892.380, 821.838 891.952, 819.742 893.125 M 309.640 895.693 C 308.766 896.567, 310.961 899, 312.622 899 C 313.380 899, 314 898.566, 314 898.035 C 314 896.785, 310.453 894.880, 309.640 895.693 M 808.690 899.436 C 807.682 900.200, 807.310 901.073, 807.850 901.407 C 809.295 902.301, 812 900.988, 812 899.393 C 812 897.656, 811.021 897.668, 808.690 899.436 M 320 901.965 C 320 903.424, 323.768 905.185, 324.467 904.053 C 324.791 903.529, 324.173 902.628, 323.094 902.050 C 320.662 900.749, 320 900.730, 320 901.965 M 798.122 904.904 C 795.911 906.304, 797.740 908.209, 800.089 906.953 C 801.171 906.373, 801.792 905.472, 801.469 904.950 C 800.747 903.782, 799.911 903.770, 798.122 904.904 M 330.433 907.109 C 329.706 908.285, 331.637 909.959, 333.750 909.985 C 335.661 910.008, 335.238 908.198, 333.061 907.032 C 331.691 906.299, 330.919 906.322, 330.433 907.109 M 787.540 910.347 C 786.379 911.196, 786.090 911.938, 786.758 912.351 C 788.279 913.290, 791 912.035, 791 910.393 C 791 908.638, 789.897 908.624, 787.540 910.347 M 341 913.031 C 341 914.422, 343.626 915.349, 345.059 914.464 C 345.901 913.943, 345.847 913.518, 344.857 912.890 C 342.996 911.711, 341 911.784, 341 913.031 M 777.443 915.418 C 776.376 916.198, 775.776 917.109, 776.108 917.442 C 777.096 918.430, 780 916.901, 780 915.393 C 780 913.663, 779.841 913.664, 777.443 915.418 M 352.218 918.154 C 352.464 918.895, 353.468 919.655, 354.448 919.846 C 355.588 920.066, 356.069 919.706, 355.782 918.846 C 355.536 918.105, 354.532 917.345, 353.552 917.154 C 352.412 916.934, 351.931 917.294, 352.218 918.154 M 766.750 919.749 C 765.788 919.968, 765 920.789, 765 921.573 C 765 923.360, 766.091 923.385, 768.460 921.653 C 770.475 920.179, 769.523 919.120, 766.750 919.749 M 363 922.465 C 363 923.309, 363.188 924, 363.418 924 C 363.648 924, 364.548 924.273, 365.418 924.607 C 367.717 925.489, 367.360 923.263, 365 922 C 363.404 921.146, 363 921.240, 363 922.465 M 755.029 924.961 C 754.220 925.473, 753.848 926.182, 754.204 926.537 C 755.078 927.411, 759 926.099, 759 924.933 C 759 923.743, 756.932 923.757, 755.029 924.961 M 373.544 926.928 C 372.879 928.005, 376.833 929.501, 377.796 928.537 C 378.152 928.182, 377.780 927.473, 376.971 926.961 C 375.097 925.776, 374.262 925.768, 373.544 926.928 M 744.250 928.662 C 743.563 928.940, 743 929.610, 743 930.153 C 743 931.560, 747.261 930.751, 747.755 929.250 C 748.169 927.993, 746.572 927.725, 744.250 928.662 M 384.694 930.639 C 383.651 931.682, 384.972 933, 387.059 933 C 389.395 933, 389.627 931.455, 387.418 930.607 C 385.466 929.858, 385.476 929.858, 384.694 930.639 M 733.250 932.667 C 732.563 932.942, 732 933.610, 732 934.153 C 732 935.431, 736.068 934.811, 736.115 933.525 C 736.157 932.348, 734.950 931.987, 733.250 932.667 M 396 935.031 C 396 936.320, 398.849 937.484, 399.764 936.569 C 400.137 936.196, 399.780 935.473, 398.971 934.961 C 397.035 933.737, 396 933.761, 396 935.031 M 721.459 937.067 C 720.486 938.641, 721.565 939.273, 723.939 938.519 C 725.089 938.154, 725.771 937.438, 725.456 936.928 C 724.678 935.670, 722.270 935.754, 721.459 937.067 M 407 938.893 C 407 940.067, 409.924 941.165, 411.107 940.434 C 411.616 940.119, 411.774 939.443, 411.457 938.931 C 410.722 937.741, 407 937.710, 407 938.893 M 711.750 939.689 C 710.788 939.941, 710 940.747, 710 941.480 C 710 942.320, 710.739 942.620, 712 942.290 C 713.100 942.002, 714 941.144, 714 940.383 C 714 939.623, 713.888 939.052, 713.750 939.116 C 713.612 939.180, 712.712 939.438, 711.750 939.689 M 418.245 942.250 C 418.734 943.736, 423 944.567, 423 943.177 C 423 942.207, 420.691 941, 418.835 941 C 418.284 941, 418.019 941.563, 418.245 942.250 M 698.459 944.067 C 698.096 944.653, 698.036 945.369, 698.325 945.658 C 699.110 946.443, 703 945.008, 703 943.933 C 703 942.645, 699.269 942.755, 698.459 944.067 M 430 945.500 C 430 946.333, 430.889 947, 432 947 C 434.384 947, 434.653 945.464, 432.418 944.607 C 430.183 943.749, 430 943.817, 430 945.500 M 687 947.607 C 687 948.662, 687.544 949.005, 688.582 948.607 C 689.452 948.273, 690.603 948, 691.141 948 C 691.678 948, 691.840 947.550, 691.500 947 C 690.493 945.370, 687 945.841, 687 947.607 M 441.245 948.250 C 441.734 949.736, 446 950.567, 446 949.177 C 446 948.207, 443.691 947, 441.835 947 C 441.284 947, 441.019 947.563, 441.245 948.250 M 675.192 950.075 C 675.389 950.666, 675.876 951.116, 676.275 951.075 C 676.674 951.034, 677.675 951, 678.500 951 C 679.325 951, 680 950.550, 680 950 C 680 949.450, 678.837 949, 677.417 949 C 675.996 949, 674.995 949.484, 675.192 950.075 M 452.500 951 C 452.160 951.550, 452.322 952, 452.859 952 C 453.397 952, 454.548 952.273, 455.418 952.607 C 456.456 953.005, 457 952.662, 457 951.607 C 457 949.841, 453.507 949.370, 452.500 951 M 664.459 952.067 C 664.096 952.653, 664.050 953.384, 664.357 953.690 C 665.179 954.513, 668 953.229, 668 952.031 C 668 950.674, 665.303 950.701, 664.459 952.067 M 464.245 953.250 C 464.734 954.736, 469 955.567, 469 954.177 C 469 953.207, 466.691 952, 464.835 952 C 464.284 952, 464.019 952.563, 464.245 953.250 M 653.250 953.662 C 652.563 953.940, 652 954.610, 652 955.153 C 652 956.560, 656.261 955.751, 656.755 954.250 C 657.169 952.993, 655.572 952.725, 653.250 953.662 M 476 955.500 C 476 956.325, 476.873 957, 477.941 957 C 480.456 957, 481.448 955.386, 479.412 954.605 C 476.916 953.647, 476 953.887, 476 955.500 M 641.250 955.662 C 639.099 956.530, 639.885 958, 642.500 958 C 644.056 958, 645 957.433, 645 956.500 C 645 955.007, 643.632 954.701, 641.250 955.662 M 487.694 956.639 C 486.651 957.682, 487.972 959, 490.059 959 C 491.127 959, 492 958.325, 492 957.500 C 492 956.017, 488.930 955.403, 487.694 956.639 M 629 958.607 C 629 959.662, 629.544 960.005, 630.582 959.607 C 631.452 959.273, 632.603 959, 633.141 959 C 633.678 959, 633.840 958.550, 633.500 958 C 632.493 956.370, 629 956.841, 629 958.607 M 499 959 C 499 959.550, 500.125 960, 501.500 960 C 502.875 960, 504 959.550, 504 959 C 504 958.450, 502.875 958, 501.500 958 C 500.125 958, 499 958.450, 499 959 M 617.667 958.667 C 616.302 960.031, 617.069 961.129, 619.172 960.820 C 621.920 960.415, 622.843 958, 620.250 958 C 619.196 958, 618.033 958.300, 617.667 958.667 M 511 960 C 511 960.550, 511.675 961, 512.500 961 C 513.325 961, 514.326 961.034, 514.725 961.075 C 515.124 961.116, 515.611 960.666, 515.808 960.075 C 516.005 959.484, 515.004 959, 513.583 959 C 512.163 959, 511 959.450, 511 960 M 606.750 959.689 C 604.120 960.377, 604.647 962, 607.500 962 C 609.056 962, 610 961.433, 610 960.500 C 610 958.961, 609.762 958.902, 606.750 959.689 M 523 960.883 C 523 961.369, 523.900 962.002, 525 962.290 C 526.300 962.630, 527 962.320, 527 961.406 C 527 960.633, 526.100 960, 525 960 C 523.900 960, 523 960.398, 523 960.883 M 593.694 960.639 C 592.651 961.682, 593.972 963, 596.059 963 C 597.127 963, 598 962.325, 598 961.500 C 598 960.017, 594.930 959.403, 593.694 960.639 M 534 962 C 534 962.550, 535.125 963, 536.500 963 C 537.875 963, 539 962.550, 539 962 C 539 961.450, 537.875 961, 536.500 961 C 535.125 961, 534 961.450, 534 962 M 546.245 962.250 C 546.878 964.173, 551 964.450, 551 962.570 C 551 961.549, 550.097 961, 548.417 961 C 546.797 961, 545.987 961.466, 546.245 962.250 M 558 962.430 C 558 963.451, 558.903 964, 560.583 964 C 563.716 964, 563.373 961.652, 560.172 961.180 C 558.729 960.968, 558 961.388, 558 962.430 M 570 962.500 C 570 963.628, 570.702 964.039, 572.250 963.820 C 573.487 963.644, 574.500 963.050, 574.500 962.500 C 574.500 961.950, 573.487 961.356, 572.250 961.180 C 570.702 960.961, 570 961.372, 570 962.500 M 582 962 C 582 962.550, 582.900 963, 584 963 C 585.100 963, 586 962.550, 586 962 C 586 961.450, 585.100 961, 584 961 C 582.900 961, 582 961.450, 582 962 M 1.762 963.707 C 3.006 963.946, 4.806 963.937, 5.762 963.687 C 6.718 963.437, 5.700 963.241, 3.500 963.252 C 1.300 963.263, 0.518 963.468, 1.762 963.707 M 13.784 963.738 C 16.689 963.941, 21.189 963.939, 23.784 963.734 C 26.378 963.528, 24 963.363, 18.500 963.365 C 13 963.368, 10.878 963.536, 13.784 963.738 " stroke="none" fill="black" fill-rule="evenodd"/>
</svg>