<svg xmlns="http://www.w3.org/2000/svg" width="1426" height="1368" viewBox="0 0 1426 1368" version="1.1">
	<path d="M 27.248 683.212 L 27 1366.925 17.750 1367.255 L 8.500 1367.585 18.250 1367.792 L 28 1368 28 1026 L 28 684 726.981 684 L 1425.962 684 1426.534 681.719 C 1426.849 680.465, 1426.942 649.752, 1426.741 613.469 L 1426.376 547.500 1422.685 532.598 C 1414.535 499.691, 1404.087 466.601, 1393.287 439.500 C 1330.963 283.091, 1211.423 153.811, 1058.174 77.083 C 999.850 47.882, 936.831 26.470, 872.923 14.139 C 788.141 -2.218, 698.106 -3.281, 612.500 11.065 C 417.797 43.695, 245.190 155.314, 138.323 317.699 C 73.223 416.621, 34.745 533.284, 29.219 648.500 C 28.824 656.750, 28.274 514.100, 27.998 331.500 C 27.605 72.113, 27.441 149.038, 27.248 683.212 M 1.100 621.250 L 1 683 5.500 683 L 10 683 10.157 711.750 C 10.346 746.159, 11.434 739.849, 12.530 698 C 13.304 668.435, 12.337 642.318, 9.420 614 C 7.934 599.575, 3.599 569.678, 2.026 563 C 1.560 561.026, 1.157 586.423, 1.100 621.250 M 0.119 778.750 C 0.229 809.803, 0.346 811.981, 1.588 806 C 3.165 798.405, 8.578 761.562, 9.559 751.750 L 10.233 745 5.116 745 L 0 745 0.119 778.750 M 31.520 751.750 C 35.375 785.159, 41.401 819.697, 47.705 844.500 L 50.500 855.500 734.056 855.751 L 1417.612 856.001 1421.556 840.251 L 1425.500 824.500 1425.794 785.250 L 1426.087 746 728.472 746 L 30.856 746 31.520 751.750 M 71.546 920.250 C 72.746 924.216, 82.662 948.126, 88.032 960 C 94.665 974.668, 101.548 988.411, 109.692 1003.250 L 116.140 1015 734.007 1015 L 1351.873 1015 1356.805 1006.250 C 1363.155 994.984, 1375.785 969.762, 1381.615 956.701 C 1387.318 943.927, 1397 920.151, 1397 918.922 C 1397 918.360, 1137.885 918, 733.933 918 L 70.865 918 71.546 920.250 M 157 1077.569 C 157 1078.497, 174.110 1100.644, 183.934 1112.432 C 198.532 1129.949, 214.606 1147.341, 231.824 1164.250 L 247.863 1180 734.115 1180 L 1220.367 1180 1237.268 1163.250 C 1255.482 1145.198, 1271.033 1128.255, 1286.143 1110 C 1296.004 1098.086, 1311 1078.508, 1311 1077.548 C 1311 1077.247, 1051.350 1077, 734 1077 C 416.650 1077, 157 1077.256, 157 1077.569 M 328.864 1243.863 C 339.159 1251.780, 377.832 1274.793, 401.427 1287.043 C 557.624 1368.135, 741.924 1388.955, 914.500 1345.003 C 989.211 1325.976, 1063.007 1293.631, 1127.250 1251.754 C 1134.813 1246.825, 1141 1242.613, 1141 1242.396 C 1141 1242.178, 957.738 1242.010, 733.750 1242.022 C 339.857 1242.044, 326.578 1242.104, 328.864 1243.863 M 1.762 1367.707 C 3.006 1367.946, 4.806 1367.937, 5.762 1367.687 C 6.718 1367.437, 5.700 1367.241, 3.500 1367.252 C 1.300 1367.263, 0.518 1367.468, 1.762 1367.707 " stroke="none" fill="black" fill-rule="evenodd"/>
</svg>