<svg xmlns="http://www.w3.org/2000/svg" width="1388" height="821" viewBox="0 0 1388 821" version="1.1">
	<path d="M 498 0.589 C 457.736 3.199, 434.891 5.597, 407.870 10.048 C 213.978 41.989, 67.611 143.885, 35.556 269.243 C 30.378 289.491, 28.631 305.870, 29.287 328 C 30.290 361.819, 37.396 389.030, 53.574 421 C 66.714 446.968, 83.377 469.411, 107.467 493.588 C 128.394 514.593, 146.171 529.003, 171.921 545.840 C 178.290 550.004, 183.831 553.881, 184.235 554.455 C 186.269 557.348, 183.812 572.396, 177.986 592.721 C 176.287 598.649, 164.579 634.325, 151.970 672 C 128.442 742.295, 122.401 762.826, 121.334 776.129 C 120.595 785.341, 121.337 788.814, 124.280 789.923 C 131.938 792.808, 149.226 773.784, 211.910 693.500 C 254.706 638.687, 274.255 615.647, 284.585 607.848 L 290.049 603.723 309.775 609.830 C 369.351 628.277, 423.740 637.983, 490 641.992 C 542.034 645.141, 623.955 640.320, 640.438 633.139 L 644.376 631.423 644.496 600.462 C 644.648 561.378, 647.044 543.309, 656.132 512.719 C 683.303 421.255, 760.864 349.477, 872.500 312.481 C 916.407 297.931, 975.292 286.727, 1020.286 284.363 C 1027.319 283.994, 1033.318 283.295, 1033.618 282.810 C 1034.629 281.173, 1031.966 257.512, 1029.581 246.960 C 1009.453 157.880, 909.374 77.201, 765 33.667 C 711.216 17.449, 658.512 7.597, 598 2.450 C 580.801 0.987, 511.694 -0.299, 498 0.589 M 506 3.048 C 351.746 8.240, 208.610 59.091, 121 139.824 C 70.580 186.286, 42.509 235.132, 33.347 292.347 C 31.089 306.447, 31.129 336.834, 33.425 351.466 C 44.892 424.540, 91.592 489.176, 171.475 542.537 L 186.500 552.573 186.441 561.537 C 186.354 574.882, 182.158 589.992, 161.733 650.500 C 132.564 736.916, 125.257 761.016, 123.530 776.502 C 122.823 782.848, 124.031 788, 126.225 787.999 C 128.941 787.998, 139.414 778.474, 149.943 766.432 C 163.169 751.302, 174.849 736.798, 211.491 690 C 226.779 670.475, 244.060 648.678, 249.893 641.563 C 264.113 624.218, 282.121 605.644, 287.109 603.176 L 291.158 601.173 298.329 603.639 C 317.188 610.125, 349.341 618.803, 375.619 624.499 C 430.506 636.396, 502.339 642.549, 557.175 640.051 C 603.663 637.934, 638.797 633.616, 641.786 629.652 C 642.278 629, 642.275 623.080, 641.778 616 C 640.765 601.581, 641.510 578.978, 643.587 561.041 C 648.631 517.495, 663.189 477.474, 686.959 441.802 C 698.638 424.275, 706.956 414.070, 721.500 399.418 C 775.130 345.394, 851.065 308.751, 945.208 291.467 C 966.535 287.552, 996.245 283.430, 1009.500 282.549 C 1014.450 282.220, 1021.378 281.694, 1024.895 281.380 L 1031.289 280.810 1030.675 271.462 C 1027.108 217.153, 993.038 163.107, 934.500 118.897 C 853.734 57.899, 734.258 16.969, 603.500 5.504 C 588.641 4.201, 531.997 1.694, 528.500 2.184 C 527.950 2.261, 517.825 2.650, 506 3.048 M 1021.500 341.110 C 882.534 351.571, 765.989 412.933, 724.470 497.500 C 718.135 510.403, 713.990 522.441, 710.869 537 C 707.684 551.853, 707.665 578.846, 710.828 593.648 C 723.740 654.070, 771.788 707.361, 846.162 743.750 C 967.186 802.963, 1133.457 806.261, 1259.393 751.947 C 1274.960 745.233, 1275.357 745.122, 1278.743 746.537 C 1284.860 749.093, 1300.860 760.158, 1328 780.602 C 1342.575 791.582, 1358.488 803.430, 1363.362 806.931 C 1373.150 813.963, 1386.637 821.342, 1388.076 820.453 C 1388.584 820.139, 1388.993 818.896, 1388.985 817.691 C 1388.974 816.122, 1388.731 815.876, 1388.130 816.824 C 1386.136 819.968, 1375.322 812.976, 1332.140 780.621 C 1289.522 748.690, 1279.550 742.279, 1274.102 743.308 C 1272.671 743.579, 1265.875 746.270, 1259 749.289 C 1179.059 784.390, 1075.952 796.435, 980 781.883 C 834.305 759.786, 727.449 681.805, 712.334 586.545 C 710.379 574.221, 710.993 547.377, 713.491 536 C 722.881 493.228, 750.246 454.098, 793.627 421.410 C 822.549 399.617, 861.633 379.831, 901.393 366.854 C 998.607 335.124, 1115.100 334.251, 1214.500 364.506 C 1287.978 386.870, 1351.538 428.703, 1382.765 475.250 C 1385.256 478.962, 1387.677 482, 1388.147 482 C 1388.616 482, 1389 480.800, 1389 479.333 C 1389 477.867, 1388.720 476.947, 1388.378 477.289 C 1388.035 477.631, 1384.998 473.995, 1381.628 469.208 C 1372.785 456.648, 1347.241 431.358, 1331.836 419.910 C 1271.179 374.838, 1191.260 347.704, 1099.500 341.027 C 1083.321 339.850, 1037.596 339.898, 1021.500 341.110 M 1.022 481.315 C 1.010 482.313, 3.226 487.263, 5.947 492.315 C 26.156 529.840, 29.994 571.497, 16.871 610.886 C 15.133 616.104, 10.619 626.476, 6.840 633.936 C -0.930 649.273, -1.927 654.669, 5.280 642.376 C 13.942 627.600, 20.751 609.877, 24.633 592 C 27.211 580.128, 27.240 549.320, 24.684 536.654 C 22.026 523.480, 16.886 508.719, 10.458 495.803 C 4.048 482.922, 1.059 478.333, 1.022 481.315 M 1383 654.840 C 1374.037 668.057, 1359.677 683.712, 1342.123 699.402 C 1337.832 703.238, 1337.768 703.391, 1338.349 708.296 C 1339.087 714.529, 1346.802 730.613, 1362.191 758 C 1374.946 780.698, 1383.659 797.153, 1386.548 804 L 1388.446 808.500 1388.792 804.602 C 1388.983 802.458, 1388.714 800.433, 1388.195 800.102 C 1387.677 799.771, 1385.341 795.675, 1383.006 791 C 1380.670 786.325, 1371.797 769.996, 1363.287 754.713 C 1347.662 726.650, 1341.694 714.407, 1340.513 707.988 C 1339.879 704.545, 1340.070 704.296, 1350.279 695.243 C 1366.870 680.530, 1388.553 654.491, 1387.826 650.152 C 1387.581 648.686, 1386.387 649.846, 1383 654.840 M 1.287 811.250 C 1.431 818.724, 2.119 820.739, 3.393 817.418 C 4.335 814.963, 3.979 810.839, 2.493 807 C 1.181 803.609, 1.143 803.742, 1.287 811.250 M 2.250 820.689 C 3.212 820.941, 4.787 820.941, 5.750 820.689 C 6.713 820.438, 5.925 820.232, 4 820.232 C 2.075 820.232, 1.288 820.438, 2.250 820.689 M 12.750 820.737 C 15.638 820.939, 20.363 820.939, 23.250 820.737 C 26.138 820.535, 23.775 820.370, 18 820.370 C 12.225 820.370, 9.863 820.535, 12.750 820.737 " stroke="none" fill="black" fill-rule="evenodd"/>
</svg>