<svg xmlns="http://www.w3.org/2000/svg" width="1238" height="1217" viewBox="0 0 1238 1217" version="1.1">
	<path d="M 27.248 607.712 L 27 1215.925 17.750 1216.255 L 8.500 1216.585 18.250 1216.792 L 28 1217 28.204 917.250 C 28.315 752.388, 28.529 621.325, 28.678 626 C 32.252 737.929, 65.873 844.738, 126.732 937.500 C 191.793 1036.666, 284.709 1115.380, 393.500 1163.494 C 526.809 1222.452, 679.128 1232.798, 820.017 1192.464 C 971.217 1149.178, 1100.194 1050.099, 1180.782 915.327 C 1200.922 881.646, 1219.317 841.906, 1233.007 802.500 L 1238.218 787.500 1238.545 768 C 1238.767 754.717, 1238.605 750.413, 1238.037 754.500 C 1236.377 766.423, 1226.051 798.911, 1215.310 826 C 1174.515 928.888, 1106.060 1018.229, 1016.500 1085.469 C 976.185 1115.737, 929.623 1142.371, 883.500 1161.547 C 851.228 1174.964, 806.998 1188.462, 771 1195.880 C 737.187 1202.848, 691.235 1207.992, 662.750 1207.998 L 651 1208 651 1110.656 L 651 1013.313 667.250 1012.670 C 852.252 1005.347, 1009.839 877.986, 1053.504 700.500 C 1057.141 685.718, 1061.096 662.833, 1063.184 644.500 C 1065.106 627.619, 1064.792 579.829, 1062.640 561.500 C 1053.417 482.973, 1024.777 414.245, 975.338 352 C 961.680 334.804, 930.456 303.554, 913 289.610 C 899.079 278.489, 871.571 259.738, 857.500 251.777 C 798.740 218.532, 736.062 200.867, 664.750 197.453 L 651 196.795 651 102.740 L 651 8.684 669.793 9.338 C 854.084 15.746, 1026.080 104.891, 1136.607 251.285 C 1182.401 311.939, 1217.285 382.774, 1235.989 453.087 L 1239.025 464.500 1238.688 447 L 1238.351 429.500 1233.578 416 C 1220.342 378.556, 1200.617 335.501, 1182.954 305.500 C 1112.462 185.767, 1003.488 93.230, 873.385 42.628 C 754.283 -3.695, 619.284 -12.092, 494.763 19.077 C 402.103 42.271, 319.448 84.377, 245 146.312 C 226.465 161.731, 185.970 202.238, 170.333 221 C 118.829 282.799, 81.709 349.605, 57.540 424 C 40.979 474.978, 31.170 529.521, 29.215 581.500 C 28.822 591.950, 28.274 465.275, 27.998 300 C 27.599 61.957, 27.444 125.912, 27.248 607.712 M 606 10.095 C 573.659 12.371, 537.693 17.641, 508 24.456 C 264.040 80.443, 78.834 278.850, 43.096 522.500 C 36.039 570.612, 35.143 625.985, 40.621 675.500 C 57.298 826.250, 133.858 967.401, 252.500 1066.137 C 344.778 1142.931, 457.833 1191.114, 577 1204.436 C 596.134 1206.575, 617.561 1207.979, 631.250 1207.990 L 643 1208 643 1110.652 L 643 1013.304 629.750 1012.636 C 492.638 1005.721, 368.335 933.246, 296.500 818.332 C 286.986 803.112, 270.119 769.903, 264.079 754.500 C 235.390 681.329, 228.140 602.899, 243.095 527.500 C 277.406 354.511, 419.786 223.156, 597.500 200.539 C 606.369 199.411, 632.413 197.379, 642.750 197.009 C 642.888 197.004, 643 154.700, 643 103 L 643 9 630.250 9.143 C 623.237 9.221, 612.325 9.650, 606 10.095 M 618.500 206.704 C 588.929 208.737, 548.864 216.893, 519 226.959 C 495.820 234.773, 461.862 249.918, 447.250 258.960 L 444 260.971 444 432.985 L 444 605 514.250 604.998 C 552.888 604.997, 597.663 604.700, 613.750 604.337 L 643 603.678 643 404.839 L 643 206 633.250 206.180 C 627.888 206.279, 621.250 206.515, 618.500 206.704 M 651 404.845 L 651 604 740 604 L 829 604 829 425.139 L 829 246.278 821.250 242.737 C 773.190 220.775, 719.902 208.041, 668.750 206.296 L 651 205.690 651 404.845 M 838 427.415 L 838 604.009 947.250 603.754 L 1056.500 603.500 1056.175 591.500 C 1054.170 517.474, 1028.805 441.383, 985.505 379.500 C 960.131 343.237, 924.971 307.688, 889.244 282.174 C 874.611 271.724, 860.553 262.872, 847.602 255.952 L 838 250.822 838 427.415 M 427 271.198 C 410.116 282.657, 399.048 290.842, 387.991 300.048 C 344.505 336.255, 310.533 379.054, 285.636 429 C 259.995 480.440, 246.509 532.584, 244.320 588.750 L 243.687 605 339.844 605 L 436 605 436 435.500 C 436 342.275, 435.663 266.024, 435.250 266.054 C 434.837 266.084, 431.125 268.399, 427 271.198 M 1 451.841 C 1 464.962, 1.398 468.806, 3.940 480.257 C 22.262 562.794, 22.258 651.314, 3.929 735.144 C 1.241 747.434, 0.973 750.260, 1.223 763.644 L 1.500 778.500 5.250 764.500 C 18.828 713.807, 24.629 672.616, 25.672 619.500 C 26.828 560.667, 21.174 512.336, 6.435 455.057 C 3.967 445.463, 1.734 437.401, 1.474 437.140 C 1.213 436.880, 1 443.495, 1 451.841 M 721.750 612.750 L 651 613.013 651 809.007 L 651 1005 654.750 1004.996 C 663.011 1004.989, 691.190 1002.887, 702.281 1001.451 C 743.581 996.105, 785.244 984.318, 820.750 967.936 L 829 964.129 829 788.065 L 829 612 810.750 612.243 C 800.712 612.377, 760.663 612.605, 721.750 612.750 M 838 785.500 C 838 880.925, 838.348 959, 838.773 959 C 840.650 959, 862.854 945.953, 877.253 936.390 C 961.926 880.155, 1020.809 796.849, 1045.400 698.500 C 1050.851 676.702, 1054.785 649.458, 1055.689 627.250 L 1056.310 612 947.155 612 L 838 612 838 785.500 M 268.105 613.749 L 243.710 614.036 244.405 626.768 C 248.349 699.049, 272.350 769.072, 313.892 829.500 C 336.482 862.360, 369.574 896.943, 401.730 921.295 C 412.915 929.766, 433.884 944, 435.178 944 C 435.630 944, 436 869.525, 436 778.500 L 436 613 364.250 613.231 C 324.788 613.359, 281.522 613.592, 268.105 613.749 M 444.247 781.591 L 444.500 950.182 458.500 957.557 C 511.360 985.402, 575.207 1002.566, 632 1004.198 L 642.500 1004.500 642.753 808.750 L 643.005 613 543.500 613 L 443.994 613 444.247 781.591 M 1.762 1216.707 C 3.006 1216.946, 4.806 1216.937, 5.762 1216.687 C 6.718 1216.437, 5.700 1216.241, 3.500 1216.252 C 1.300 1216.263, 0.518 1216.468, 1.762 1216.707 " stroke="none" fill="black" fill-rule="evenodd"/>
</svg>