<svg xmlns="http://www.w3.org/2000/svg" width="1154" height="1202" viewBox="0 0 1154 1202" version="1.1">
	<path d="M 27.107 207.500 C 26.877 331.730, 26.381 411.351, 25.875 405.198 C 23.886 381.015, 19.364 359.084, 11.502 335.500 C 5.504 317.507, 0.192 305.114, 0.074 308.838 C 0.033 310.124, 1.975 316.199, 4.388 322.338 C 12.037 341.794, 17.380 361.690, 21.082 384.500 C 24.115 403.192, 24.834 440.164, 22.549 460 C 19.605 485.558, 13.578 509.705, 4.378 532.806 C 1.902 539.024, 0.016 545.099, 0.188 546.306 C 0.394 547.756, 1.985 544.942, 4.881 538 C 16.069 511.186, 23.503 480.677, 25.871 451.854 C 26.358 445.928, 26.781 603.872, 26.861 821.212 L 27 1200.925 17.750 1201.255 L 8.500 1201.585 18.250 1201.792 L 28 1202 28.150 816.250 C 28.233 604.087, 28.636 436.385, 29.046 443.577 C 31.802 491.908, 48.389 546.452, 72.198 585.473 C 91.620 617.304, 121.374 648.036, 156.445 672.487 C 165.475 678.783, 195.475 697.325, 197.985 698.162 C 199.667 698.722, 201.786 715.617, 203.109 739 C 204.414 762.075, 203.778 848.165, 201.886 904.500 C 200.245 953.376, 200.195 1054.646, 201.804 1074 C 204.066 1101.224, 207.434 1119.050, 212.009 1128.017 C 218.530 1140.800, 239.704 1154.084, 270.228 1164.542 C 362.800 1196.260, 560.171 1209.722, 738 1196.448 C 831.696 1189.453, 906.121 1175.831, 952.718 1157.147 C 967.855 1151.077, 985.576 1140.044, 990.448 1133.657 C 998.708 1122.827, 1004.157 1094.503, 1007.022 1047.500 C 1009.094 1013.499, 1009.273 942.891, 1007.531 846 C 1005.977 759.502, 1006 722.053, 1007.620 705.783 L 1008.189 700.066 1016.344 695.381 C 1064.756 667.569, 1104.871 631.011, 1132.862 589.197 C 1142.895 574.209, 1153.061 555.568, 1153.675 551.033 C 1154.040 548.332, 1152.646 550.326, 1147.756 559.500 C 1126.564 599.252, 1099.788 631.242, 1063 660.763 C 1051.158 670.265, 1025.421 687.616, 1013.746 693.967 C 1007.959 697.115, 1005.802 698.860, 1005.246 700.843 C 1004.836 702.304, 1004.719 741.975, 1004.986 789 C 1005.850 940.804, 1005.567 1036.052, 1004.198 1054 C 1001.366 1091.148, 997.079 1115.990, 991.654 1126.697 C 978.987 1151.693, 910.614 1174.190, 808.500 1186.961 C 712.528 1198.964, 588.437 1202.177, 480.500 1195.453 C 344.359 1186.973, 248.905 1164.598, 219.802 1134.344 C 210.624 1124.803, 206.586 1107.046, 203.919 1064.500 C 202.556 1042.753, 203.208 936.366, 205.043 881 C 206.629 833.181, 206.690 745.924, 205.151 728 C 203.931 713.793, 202.446 702.209, 201.404 698.773 C 201.115 697.823, 196.519 694.506, 191.190 691.402 C 112.225 645.413, 70.607 596.700, 46.578 522.139 C 25.325 456.192, 25.978 388.335, 48.470 325.468 C 58.158 298.390, 77.003 264.729, 94.948 242.451 C 98.470 238.078, 108.142 227.750, 116.440 219.500 C 149.675 186.461, 184.275 164.487, 225.062 150.516 C 249.395 142.181, 269.566 138.042, 308 133.498 C 360.601 127.278, 364.307 125.768, 384.796 102.210 C 405.270 78.670, 418.686 67.180, 444.800 50.815 C 536.958 -6.934, 647.435 -12.483, 739.746 36.002 C 745.981 39.277, 754.107 43.913, 757.803 46.304 C 772.106 55.557, 798.685 78.244, 834 111.342 C 846.057 122.643, 848.161 124.204, 853.683 125.944 C 859.760 127.860, 875.036 129.962, 912.320 134.013 C 955.227 138.675, 979.636 144.555, 1003.770 156.042 C 1057.680 181.701, 1104.570 223.976, 1135.390 274.706 C 1140.185 282.598, 1152.580 306.407, 1154.285 311 C 1154.591 311.825, 1154.878 311.029, 1154.921 309.232 C 1154.974 307.047, 1152.743 301.575, 1148.195 292.732 C 1119.547 237.024, 1074.749 191.351, 1019 161.012 C 984.567 142.274, 962.133 136.590, 894.500 129.473 C 849.797 124.769, 853.783 126.370, 828.681 103.028 C 780.081 57.836, 762.709 44.471, 734.523 30.589 C 708.347 17.696, 683.402 9.647, 653.147 4.331 C 635.139 1.168, 597.706 -0.016, 578.324 1.965 C 527.192 7.192, 478.615 24.976, 434.322 54.683 C 416.176 66.854, 402.742 78.241, 391.700 90.812 C 368.085 117.695, 363.951 120.953, 348.500 124.865 C 344.100 125.979, 330.825 128.056, 319 129.482 C 274.200 134.884, 257.278 137.944, 235 144.674 C 186.178 159.421, 145.533 185.137, 106.251 226.132 C 62.093 272.216, 32.613 341.041, 29.208 406 C 28.818 413.425, 28.273 325, 27.996 209.500 L 27.493 -0.500 27.107 207.500 M 0.232 310 C 0.232 311.925, 0.438 312.712, 0.689 311.750 C 0.941 310.788, 0.941 309.212, 0.689 308.250 C 0.438 307.288, 0.232 308.075, 0.232 310 M 1.762 1201.707 C 3.006 1201.946, 4.806 1201.937, 5.762 1201.687 C 6.718 1201.437, 5.700 1201.241, 3.500 1201.252 C 1.300 1201.263, 0.518 1201.468, 1.762 1201.707 " stroke="none" fill="black" fill-rule="evenodd"/>
</svg>