<svg xmlns="http://www.w3.org/2000/svg" width="1047" height="1051" viewBox="0 0 1047 1051" version="1.1">
	<path d="M 26.967 61.250 C 26.936 120.680, 26.883 122.351, 25.199 117.479 C 22.535 109.775, 19.653 106.520, 9.682 99.951 L 0.500 93.902 0.241 148.609 C 0.099 178.698, 0.150 203.483, 0.354 203.688 C 1.265 204.599, 14.975 198.642, 15.409 197.147 C 17.553 189.767, 24.956 150.696, 26.332 139.500 C 26.534 137.850, 26.768 342.021, 26.850 593.212 L 27 1049.925 17.750 1050.255 L 8.500 1050.585 18.250 1050.792 L 28 1051 28 525.500 C 28 236.475, 27.775 0, 27.500 0 C 27.225 0, 26.985 27.563, 26.967 61.250 M 920.500 2.033 C 901.210 6.088, 888.031 12.206, 877.772 21.866 C 862.403 36.338, 859.198 52.951, 863.469 96 C 865.216 113.602, 865.047 125.763, 862.954 133.251 C 860.655 141.474, 845.002 159.506, 799.026 206.894 L 768.551 238.303 774.526 243.721 C 779.770 248.476, 790.838 256.207, 805.430 265.305 C 811.262 268.942, 814.604 275.712, 820.086 295 C 822.353 302.975, 824.307 309.609, 824.429 309.742 C 824.550 309.874, 828.480 307.370, 833.161 304.175 C 861.157 285.071, 886.690 261.155, 898.472 243 C 902.219 237.225, 906.684 230.354, 908.393 227.730 C 910.102 225.107, 913.186 221.839, 915.246 220.468 C 923.289 215.119, 926.834 214.740, 976 213.974 C 1024.059 213.225, 1024.746 213.160, 1040.750 207.894 L 1047 205.837 1047 150.100 L 1047 94.363 1037.250 87.749 C 1015.770 73.177, 1009.701 66.737, 991.322 39.016 C 974.463 13.587, 965.112 5.124, 949.913 1.541 C 941.450 -0.454, 931.539 -0.288, 920.500 2.033 M 621 249.698 C 552.772 252.985, 461.432 272.194, 393.329 297.578 C 251.409 350.475, 144.708 442.519, 78.685 569 C 46.274 631.092, 30.909 686.667, 29.334 747.500 C 27.888 803.351, 37.692 850.243, 60.487 896.500 C 103.207 983.195, 183.400 1038.154, 282.222 1048.464 C 299.175 1050.233, 333.108 1050.479, 350 1048.956 C 405.097 1043.989, 462.603 1025.653, 514.792 996.410 C 675.820 906.184, 799.356 717.007, 823.938 523 C 829.855 476.302, 829.099 423.150, 821.913 380.500 C 817.303 353.145, 812.907 337.718, 805.594 323.232 C 778.260 269.089, 717.869 245.032, 621 249.698 M 1.762 1050.707 C 3.006 1050.946, 4.806 1050.937, 5.762 1050.687 C 6.718 1050.437, 5.700 1050.241, 3.500 1050.252 C 1.300 1050.263, 0.518 1050.468, 1.762 1050.707 " stroke="none" fill="black" fill-rule="evenodd"/>
</svg>