<svg xmlns="http://www.w3.org/2000/svg" width="937" height="781" viewBox="0 0 937 781" version="1.1">
	<path d="M 305.500 2.103 C 283.174 6.547, 264.836 16.558, 246.151 34.500 C 219.390 60.196, 201.791 93.456, 193.765 133.500 C 190.662 148.985, 190.621 178.973, 193.684 193 C 198.994 217.313, 212.860 241.301, 234.840 264.202 C 270.582 301.439, 317.638 322.055, 357.613 317.989 C 369.583 316.771, 377.721 314.329, 387.824 308.922 C 432.365 285.087, 466.574 218.321, 463.632 160.966 C 462.866 146.028, 460.864 135.747, 455.899 121.249 C 439.212 72.518, 404.462 29.357, 367.500 11.453 C 352.082 3.985, 342.899 1.792, 325.500 1.424 C 317.250 1.250, 308.250 1.555, 305.500 2.103 M 665.500 1.656 C 645.686 4.009, 628.778 10.822, 607.910 24.862 C 562.519 55.400, 535.507 102.561, 530.866 159.373 C 527.037 206.253, 543.349 255.263, 572.475 284.390 C 601.185 313.099, 638.879 321.833, 681.161 309.572 C 708.369 301.682, 738.045 283.940, 759.045 263.008 C 780.222 241.900, 792.564 219.409, 799.176 189.881 C 801.220 180.750, 801.493 176.971, 801.440 158.500 C 801.389 140.634, 801.044 135.939, 799.129 127.042 C 793.901 102.758, 782.702 76.890, 769.253 58.032 C 755.399 38.606, 733.075 19.332, 714.940 11.137 C 698.476 3.697, 679.291 0.018, 665.500 1.656 M 129.269 309.011 C 107.095 312.085, 86.375 322.433, 68.219 339.500 C 44.343 361.945, 31.801 388.403, 28.399 423.500 L 27.624 431.500 26.845 423.589 C 24.549 400.272, 16.555 376.887, 4.596 358.500 L 0.043 351.500 0.021 432.809 C 0.008 483.075, 0.357 513.897, 0.936 513.539 C 2.942 512.300, 11.276 498.684, 15.453 489.820 C 21.081 477.879, 24.611 465.538, 26.072 452.694 C 27.617 439.114, 28.181 438.074, 29.160 447 C 31.989 472.786, 40.720 496.225, 54.112 513.981 C 57.231 518.117, 64.219 525.779, 69.641 531.008 C 89.553 550.213, 113.142 563.001, 139 568.611 C 150.941 571.201, 176.348 571.221, 187.500 568.648 C 198.210 566.178, 210.159 560.468, 217.597 554.266 C 264.237 515.375, 258.908 407.246, 207.219 343.697 C 197.872 332.204, 183.161 320.619, 171.175 315.310 C 158.771 309.817, 141.828 307.270, 129.269 309.011 M 842.500 309.479 C 835.015 311.126, 826.530 314.375, 812.905 320.811 C 803.025 325.478, 801.728 326.447, 793.688 335.158 C 780.731 349.198, 773.737 358.861, 767.165 371.804 C 737.736 429.765, 736.144 500.850, 763.358 541.787 C 772.952 556.217, 788.381 567.306, 805 571.714 C 815.446 574.484, 834.771 574.048, 848.100 570.741 C 877.713 563.394, 906.785 547.230, 927.250 526.736 L 937 516.972 937 434.576 L 937 352.180 933.149 347.340 C 926.596 339.104, 912.871 326.677, 904.724 321.603 C 889.385 312.051, 875.464 307.951, 858.803 308.079 C 853.136 308.123, 845.800 308.753, 842.500 309.479 M 486.175 401.076 C 453.849 404.197, 414.321 417.246, 383.328 435.027 C 339.010 460.455, 305.864 495.637, 283.963 540.500 C 268.754 571.655, 260.921 598.604, 255.913 637 C 253.264 657.308, 252.333 692.026, 253.942 710.500 C 256.696 742.117, 262.322 758.528, 274.168 769.495 C 283.731 778.349, 295.100 781.254, 314.646 779.837 C 326.598 778.971, 334.566 777.341, 370 768.517 C 434.796 752.380, 462.874 748.020, 502 748.021 C 533.224 748.022, 558.571 751.683, 589.264 760.627 C 599.844 763.710, 614.575 767.993, 622 770.144 C 645.005 776.808, 657.743 779.101, 675 779.683 C 687.108 780.091, 691.977 779.858, 697.250 778.617 C 710.511 775.497, 721.504 767.821, 727.592 757.433 C 731.492 750.778, 736.623 735.534, 739.053 723.381 C 741.824 709.526, 742.800 679.619, 741.045 662.372 C 733.382 587.085, 698.744 511.738, 649.027 462.204 C 630.312 443.559, 612.899 430.981, 590.500 419.930 C 557.568 403.683, 523.309 397.491, 486.175 401.076 M 1.762 780.707 C 3.006 780.946, 4.806 780.937, 5.762 780.687 C 6.718 780.437, 5.700 780.241, 3.500 780.252 C 1.300 780.263, 0.518 780.468, 1.762 780.707 M 13.784 780.738 C 16.689 780.941, 21.189 780.939, 23.784 780.734 C 26.378 780.528, 24 780.363, 18.500 780.365 C 13 780.368, 10.878 780.536, 13.784 780.738 " stroke="none" fill="black" fill-rule="evenodd"/>
</svg>