<svg xmlns="http://www.w3.org/2000/svg" width="1574" height="971" viewBox="0 0 1574 971" version="1.1">
	<path d="M 27.246 484.712 L 27 969.925 17.750 970.255 L 8.500 970.585 18.250 970.792 L 28 971 28 673.500 C 28 509.875, 28.188 376, 28.417 376 C 28.646 376, 40.684 383.710, 55.167 393.133 C 69.650 402.556, 115.025 431.202, 156 456.790 C 276.592 532.099, 322.380 562.490, 370 598.830 C 476.699 680.256, 544.421 756.951, 590.074 848.064 C 606.497 880.840, 621.890 921.982, 630.588 956.351 L 634.347 971.202 641.424 970.628 C 645.316 970.313, 654.800 969.806, 662.500 969.502 C 670.200 969.197, 678.933 968.694, 681.906 968.383 L 687.311 967.817 686.651 946.659 C 681.107 769.135, 597.087 561.456, 428.676 309 C 385.390 244.113, 313.911 145.050, 311.653 146.820 C 310.340 147.850, 65.158 345.297, 43 363.169 L 28.500 374.865 27.996 187.182 C 27.669 65.327, 27.406 169.681, 27.246 484.712 M 858.003 4.183 C 858.005 7.514, 843.792 583.599, 837.665 828.500 C 835.862 900.550, 834.511 959.674, 834.663 959.886 C 835.025 960.392, 894.063 955.271, 894.651 954.682 C 894.900 954.434, 896.645 942.002, 898.529 927.056 C 933.699 648.144, 1029.059 375.297, 1181.943 116.148 C 1189.196 103.855, 1194.905 93.572, 1194.631 93.297 C 1194.146 92.813, 1131.286 75.539, 949.500 25.935 C 901.100 12.728, 860.712 1.685, 859.750 1.394 C 858.328 0.964, 858 1.488, 858.003 4.183 M 602.500 52.333 C 510.100 77.585, 434.367 98.361, 434.204 98.502 C 434.042 98.643, 437.137 104.100, 441.082 110.629 C 487.357 187.203, 538.360 286.582, 577.019 375.500 C 655.211 555.346, 707.857 746.186, 731.089 934 C 732.824 948.025, 734.439 959.714, 734.680 959.975 C 735.070 960.399, 794.160 965.835, 794.736 965.499 C 794.866 965.424, 792.977 884.843, 790.539 786.431 C 788.101 688.019, 782.925 476.550, 779.038 316.500 C 775.151 156.450, 771.639 21.207, 771.235 15.960 L 770.500 6.421 602.500 52.333 M 1312.503 146.240 C 1219.555 270.373, 1146.544 381.746, 1088.790 487.500 C 1005.122 640.706, 958.064 775.340, 945.484 897.500 C 943.659 915.213, 941.749 961.149, 942.793 962.193 C 943.401 962.801, 959.734 963.867, 989.320 965.232 L 995.140 965.500 999.118 950.040 C 1030.407 828.455, 1100.990 724.050, 1217.579 626.899 C 1275.707 578.462, 1328.927 541.723, 1454 463.692 C 1553.981 401.315, 1573.037 389.033, 1574.076 386.299 C 1574.584 384.963, 1575 375.607, 1575 365.508 C 1575 350.894, 1574.724 347.081, 1573.646 346.823 C 1572.902 346.645, 1515.054 300.375, 1445.096 244 C 1375.137 187.625, 1317.571 141.383, 1317.170 141.240 C 1316.769 141.097, 1314.669 143.347, 1312.503 146.240 M 1 367 C 1 376.900, 1.319 385, 1.709 385 C 2.956 385, 25.968 369.526, 25.729 368.848 C 25.470 368.110, 2.060 349, 1.416 349 C 1.187 349, 1 357.100, 1 367 M 1.762 970.707 C 3.006 970.946, 4.806 970.937, 5.762 970.687 C 6.718 970.437, 5.700 970.241, 3.500 970.252 C 1.300 970.263, 0.518 970.468, 1.762 970.707 " stroke="none" fill="black" fill-rule="evenodd"/>
</svg>