<svg xmlns="http://www.w3.org/2000/svg" width="1084" height="853" viewBox="0 0 1084 853" version="1.1">
	<path d="M 548 0.665 C 520.520 2.591, 512.613 3.246, 501 4.557 C 341.229 22.596, 208.484 90.119, 123.361 196.648 C 72.391 260.435, 41.401 334.550, 31.433 416.500 C 29.256 434.396, 28.449 476.702, 29.916 496 C 36.979 588.905, 71.584 677.802, 132.101 758.500 C 143.309 773.445, 161.778 796.001, 162.805 795.997 C 163.392 795.994, 235.035 737.626, 437 572.609 C 455.975 557.105, 489.837 529.441, 512.250 511.134 L 553 477.848 553 238.924 C 553 107.516, 552.888 0.079, 552.750 0.175 C 552.612 0.271, 550.475 0.491, 548 0.665 M 587 243.155 L 587 481.617 642.750 527.134 C 696.556 571.063, 800.367 655.844, 919.771 753.373 C 951.270 779.102, 977.452 800.006, 977.954 799.826 C 979.464 799.286, 996.484 778.486, 1008.499 762.500 C 1037.034 724.530, 1060.090 683.974, 1078.138 640 L 1084.500 624.500 1084.766 471.543 C 1084.992 341.351, 1084.821 318.133, 1083.616 315.543 C 1082.838 313.869, 1080.313 308, 1078.006 302.500 C 1028.191 183.738, 921.864 88.605, 786.500 41.683 C 727.800 21.336, 661.841 8.480, 600.120 5.356 L 587 4.692 587 243.155 M 1.169 469.500 L 1.186 619.500 5.609 606.254 C 17.307 571.226, 24.512 532.680, 27.060 491.500 C 30.246 440.013, 22.271 380.854, 5.628 332.500 L 1.153 319.500 1.169 469.500 M 555 593.594 C 519.663 597.801, 492.454 610.532, 469.369 633.663 C 452.904 650.161, 441.896 669.586, 435.744 693 C 432.988 703.491, 432.713 705.991, 432.611 721.500 C 432.526 734.496, 432.929 740.502, 434.320 747 C 445.807 800.650, 488.345 840.854, 543.868 850.536 C 554.743 852.433, 577.922 852.410, 589.752 850.491 C 617.268 846.029, 643.223 832.766, 663.078 813.024 C 682.515 793.696, 694.428 771.424, 699.428 745.066 C 701.482 734.236, 701.495 711.895, 699.453 700.860 C 689.714 648.238, 648.253 607.056, 593.851 595.970 C 584.231 594.009, 562.616 592.688, 555 593.594 M 1.762 852.707 C 3.006 852.946, 4.806 852.937, 5.762 852.687 C 6.718 852.437, 5.700 852.241, 3.500 852.252 C 1.300 852.263, 0.518 852.468, 1.762 852.707 M 13.784 852.738 C 16.689 852.941, 21.189 852.939, 23.784 852.734 C 26.378 852.528, 24 852.363, 18.500 852.365 C 13 852.368, 10.878 852.536, 13.784 852.738 " stroke="none" fill="black" fill-rule="evenodd"/>
</svg>