<svg xmlns="http://www.w3.org/2000/svg" width="1575" height="594" viewBox="0 0 1575 594" version="1.1">
	<path d="M 27 296.548 L 27 593.096 14.750 583.720 C 8.012 578.564, 1.938 574.015, 1.250 573.613 C 0.286 573.049, 0 575.070, 0 582.441 L 0 592 10.750 592.173 C 20.625 592.331, 20.971 592.399, 15 593 C 8.687 593.636, 8.781 593.660, 18.250 593.827 L 28 594 28 297 C 28 133.650, 27.775 0, 27.500 0 C 27.225 0, 27 133.447, 27 296.548 M 788.500 1.047 C 722.412 6.540, 662.166 30.236, 611 70.862 C 598.331 80.921, 574.365 104.995, 564.072 118 C 529.325 161.907, 508.795 211.088, 502.503 265.494 C 500.745 280.692, 500.542 309.017, 502.079 324.576 C 506.870 373.067, 524.916 421.236, 553.378 461.500 C 604.508 533.833, 684.679 580.577, 776.500 591.594 C 793.285 593.608, 831.372 593.883, 847 592.103 C 913.362 584.545, 969.858 561.241, 1019 521.153 C 1032.160 510.417, 1052.078 490.466, 1062.332 477.749 C 1093.456 439.150, 1114.906 392.178, 1123.029 344.828 C 1129.216 308.769, 1127.960 267.007, 1119.634 231.922 C 1099.585 147.444, 1041.158 75.156, 960.115 34.560 C 925.727 17.334, 889.094 6.548, 849.500 1.991 C 836.672 0.515, 801.459 -0.031, 788.500 1.047 M 447.500 278.635 C 435.411 288.072, 282.544 402.668, 168.880 487.500 C 94.021 543.370, 33.898 588.809, 30.613 591.998 C 28.780 593.777, 28.951 593.817, 36.613 593.372 C 40.951 593.120, 120.775 590.003, 214 586.444 C 485.979 576.063, 590.306 572.023, 593.331 571.753 C 595.873 571.526, 595.109 570.773, 585.831 564.365 C 511.728 513.181, 470.212 427.916, 461.030 308.050 C 460.464 300.653, 460 289.065, 460 282.300 C 460 275.535, 459.663 270.011, 459.250 270.023 C 458.837 270.036, 453.550 273.911, 447.500 278.635 M 1170.617 287.728 C 1165.558 417.347, 1122.855 510.877, 1044.086 564.863 L 1033.672 572 1037.596 572 C 1041.703 572, 1552.210 591.583, 1567 592.308 L 1575.500 592.725 1575.187 582.454 L 1574.875 572.183 1488.187 507.293 C 1440.509 471.604, 1390.313 434.100, 1376.641 423.952 C 1331.421 390.387, 1219.901 306.722, 1195.703 288.208 C 1182.615 278.194, 1171.772 270, 1171.608 270 C 1171.444 270, 1170.998 277.978, 1170.617 287.728 M 2.250 593.689 C 3.212 593.941, 4.787 593.941, 5.750 593.689 C 6.713 593.438, 5.925 593.232, 4 593.232 C 2.075 593.232, 1.288 593.438, 2.250 593.689 " stroke="none" fill="black" fill-rule="evenodd"/>
</svg>