<svg xmlns="http://www.w3.org/2000/svg" width="1438" height="1310" viewBox="0 0 1438 1310" version="1.1">
	<path d="M 26.898 350.750 C 26.841 543.663, 26.428 699.925, 25.980 698 C 24.492 691.611, 15.445 685.326, 2.250 681.515 L -0 680.865 -0 703.933 L 0 727 6.750 726.942 C 10.463 726.911, 15.257 726.572, 17.405 726.191 C 21.066 725.540, 21.428 725.153, 23.190 719.998 C 24.223 716.974, 25.451 712.250, 25.918 709.500 C 26.393 706.701, 26.818 837.506, 26.883 1006.712 L 27 1308.925 17.750 1309.255 L 8.500 1309.585 18.250 1309.792 L 28 1310 28 655 C 28 294.750, 27.775 0, 27.500 0 C 27.225 0, 26.954 157.837, 26.898 350.750 M 801.356 4.762 C 785.381 29.203, 765.403 86, 763.331 112.862 C 762.177 127.826, 764.100 131.508, 795.004 173.500 C 814.079 199.420, 830.065 223.067, 834.252 231.557 C 837.354 237.848, 837.378 238.003, 835.458 239.407 C 831.759 242.112, 802.172 261, 801.634 261 C 800.769 261, 782.998 237.477, 774.816 225.500 C 750.730 190.245, 721.493 145.940, 718.822 140.648 C 713.700 130.500, 711.999 124.376, 712.006 116.093 C 712.013 106.380, 712.801 103.694, 720.983 85.520 C 728.519 68.778, 731.279 60.983, 733.570 49.971 C 736.388 36.422, 736.468 32.844, 734.026 29.750 C 732.606 27.952, 730.910 27, 729.125 27 C 722.821 27, 700.002 40.876, 691.865 49.657 C 690.247 51.403, 673.594 88.177, 648.689 145 C 626.391 195.875, 606.099 241.899, 603.595 247.275 C 591.451 273.349, 591.767 277.494, 609.480 324.496 C 620.523 353.798, 625.251 361.322, 647.497 385 C 654.473 392.425, 664.215 403.789, 669.146 410.254 L 678.111 422.008 673.403 428.126 C 669.179 433.616, 657.420 443.370, 649.110 448.277 L 646.101 450.054 635.800 441.203 C 609.728 418.800, 589.867 392.771, 577.272 364.500 C 575.066 359.550, 570.445 347.400, 567.001 337.500 C 559.829 316.881, 557.324 311.471, 552.441 306.067 C 540.829 293.214, 526.085 297.695, 508.653 319.376 C 504.618 324.394, 499.140 331.595, 496.479 335.378 C 493.819 339.161, 484.185 351.142, 475.071 362.004 C 456.597 384.020, 448.917 394.295, 442.431 405.677 L 438.040 413.381 447.770 418.476 C 462.885 426.391, 501.429 451.629, 510.727 459.699 L 513.955 462.500 502.919 480 C 496.849 489.625, 491.347 497.360, 490.691 497.189 C 486.860 496.187, 473.019 488.517, 463.750 482.258 C 457.837 478.266, 447.938 471.577, 441.750 467.393 C 415.549 449.678, 395.552 443.405, 376.647 446.972 C 370.400 448.151, 369.687 448.580, 364.178 454.469 C 360.964 457.905, 353.647 466.692, 347.917 473.996 C 337.509 487.264, 289.806 545.834, 264.024 577 C 256.516 586.075, 242.476 603.400, 232.823 615.500 C 215.248 637.532, 207.846 645.504, 202.407 648.259 C 198.800 650.086, 194.624 651.004, 169.500 655.492 C 158.500 657.456, 140.950 661.245, 130.500 663.910 C 120.050 666.576, 101.825 671.241, 90 674.276 C 78.175 677.312, 62.976 681.046, 56.225 682.573 C 35.168 687.337, 29 691.956, 29 702.960 C 29 709.567, 32.467 723.826, 34.602 726 C 35.802 727.222, 39.170 727.484, 52.787 727.413 C 73.611 727.304, 82.799 725.613, 131.500 712.929 C 192.057 697.157, 208.729 694.582, 235.793 696.821 C 258.569 698.706, 266.969 700.656, 324.229 717.353 C 356.738 726.833, 369.839 729.151, 394.292 729.750 C 424.755 730.497, 441.886 727.412, 489.725 712.565 C 533.211 699.069, 546.021 696.598, 572.500 696.598 C 598.231 696.598, 613.285 699.434, 654.500 712.047 C 707.228 728.183, 731.600 732.308, 760.389 729.970 C 783.085 728.127, 797.330 724.967, 837 712.974 C 910.107 690.872, 932.622 690.579, 999 710.867 C 1044.431 724.753, 1059.775 728.283, 1082.018 729.966 C 1110.957 732.157, 1134.157 728.435, 1182.500 713.848 C 1255.279 691.887, 1276.906 690.957, 1339.793 707.080 C 1350.632 709.859, 1368.996 714.560, 1380.603 717.527 C 1402.747 723.189, 1418.615 726.360, 1430.750 727.548 L 1438 728.258 1438 704.801 L 1438 681.344 1423.750 678.064 C 1415.912 676.260, 1396.675 671.715, 1381 667.964 C 1365.325 664.214, 1344.626 659.498, 1335.002 657.484 C 1325.378 655.471, 1315.162 652.716, 1312.299 651.362 C 1303.563 647.229, 1299.565 642.100, 1254.446 577.142 C 1226.908 537.497, 1220.869 530.352, 1216.961 532.792 C 1211.535 536.181, 1205.600 533.198, 1198.934 523.731 C 1188.457 508.851, 1164.184 462.253, 1154.927 439.250 C 1153.101 434.712, 1151.339 431, 1151.012 431 C 1150.686 431, 1140.987 438.853, 1129.459 448.450 C 1117.932 458.048, 1108.222 465.586, 1107.882 465.200 C 1107.542 464.815, 1103.549 455.275, 1099.010 444 C 1075.777 386.294, 1044.529 317.750, 1037.711 309.539 L 1035.252 306.579 1025.876 314.162 C 1016.018 322.135, 1007.605 329.530, 991.208 344.637 C 982.676 352.496, 977.479 356.133, 976.623 354.841 C 976.499 354.654, 974.426 349.775, 972.018 344 C 943.658 276.001, 814.740 10.359, 805.685 1.262 C 804.707 0.279, 803.814 1.001, 801.356 4.762 M 1263.500 742.637 C 1261.850 742.823, 1255.775 743.473, 1250 744.081 C 1228.650 746.330, 1211.714 750.199, 1173.378 761.585 C 1125.059 775.935, 1104.885 778.172, 1067 773.379 C 1052.348 771.526, 1036.091 767.795, 1006.816 759.569 C 962.649 747.158, 939.135 743.409, 911 744.294 C 889.451 744.972, 882.142 746.560, 846.246 758.361 C 802.668 772.687, 787.324 775.326, 747 775.430 C 708.784 775.527, 697.637 773.543, 651.679 758.458 C 637.477 753.797, 620.152 748.762, 613.179 747.271 C 601.472 744.766, 598.737 744.559, 577.500 744.562 C 557.981 744.565, 552.457 744.917, 541 746.889 C 526.736 749.345, 506.008 754.311, 482 761.024 C 428.427 776.004, 388.727 779.359, 354 771.840 C 348.775 770.709, 331.900 765.592, 316.500 760.469 C 301.100 755.347, 283.325 750.011, 277 748.613 C 263.380 745.601, 242.486 742.764, 237.100 743.194 L 233.276 743.500 256.402 781.214 C 269.121 801.957, 279.972 819.341, 280.514 819.847 C 281.119 820.410, 296.380 818.508, 320 814.926 C 341.175 811.714, 359.421 809.067, 360.547 809.043 C 362.310 809.006, 367.104 819.314, 395.017 883.162 L 427.439 957.324 433.874 960.242 C 449.069 967.132, 465.667 970.960, 480.500 970.996 C 491.014 971.021, 494.281 975.416, 514.701 1017 C 522.669 1033.225, 535.528 1058.200, 543.277 1072.500 C 559.373 1102.202, 570.805 1125.359, 574.965 1136.688 C 577.495 1143.580, 578.108 1144.473, 580.167 1144.269 C 581.450 1144.142, 604.325 1140.903, 631 1137.071 C 657.675 1133.239, 681.750 1129.814, 684.500 1129.459 L 689.500 1128.815 731.923 1217.776 L 774.347 1306.737 784.923 1307.346 C 790.741 1307.681, 803.375 1308.234, 813 1308.575 L 830.500 1309.194 835.781 1298.847 C 843.527 1283.672, 857.290 1264.983, 876.115 1244.079 C 890.065 1228.589, 902.527 1218.099, 919.891 1207.229 C 928.357 1201.930, 937.425 1195.508, 940.043 1192.958 C 951.022 1182.265, 955.034 1167.147, 960.417 1116.196 C 961.713 1103.929, 962.937 1093.751, 963.137 1093.577 C 963.337 1093.403, 980.600 1095.418, 1001.500 1098.055 C 1022.400 1100.691, 1039.851 1102.509, 1040.280 1102.094 C 1040.970 1101.427, 1056.213 1065.292, 1116.672 921 C 1125.775 899.275, 1133.392 881.318, 1133.598 881.096 C 1133.805 880.875, 1149.527 882.855, 1168.536 885.498 C 1188.859 888.323, 1203.441 889.931, 1203.930 889.401 C 1204.598 888.679, 1271.872 747.768, 1273.706 743.250 C 1274.212 742.006, 1270.885 741.806, 1263.500 742.637 M 1.762 1309.707 C 3.006 1309.946, 4.806 1309.937, 5.762 1309.687 C 6.718 1309.437, 5.700 1309.241, 3.500 1309.252 C 1.300 1309.263, 0.518 1309.468, 1.762 1309.707 " stroke="none" fill="black" fill-rule="evenodd"/>
</svg>