<svg xmlns="http://www.w3.org/2000/svg" width="1217" height="1217" viewBox="0 0 1217 1217" version="1.1">
	<path d="M 635.758 62.750 L 635.500 125.500 618.443 126.148 C 473.795 131.647, 339.925 201.369, 252.115 316.939 C 192.075 395.959, 158.757 489.337, 154.417 590.750 L 153.722 607 91.361 607 C 36.596 607, 29 607.183, 29 608.500 C 29 609.817, 36.596 610, 91.361 610 L 153.722 610 154.417 626.250 C 156.535 675.735, 164.863 720.304, 180.493 765.802 C 219.162 878.363, 300.087 974.270, 404.815 1031.655 C 417.821 1038.781, 421.747 1040.742, 439 1048.725 C 468.856 1062.540, 509.982 1075.539, 545.542 1082.400 C 570.312 1087.179, 606.696 1091, 627.437 1091 L 636 1091 636 1154 C 636 1195.333, 636.344 1217, 637 1217 C 637.656 1217, 638 1195.385, 638 1154.156 L 638 1091.313 655.228 1090.635 C 819.548 1084.175, 967.401 996.061, 1052.291 854 C 1061.595 838.430, 1078.361 804.503, 1084.907 788 C 1106.077 734.630, 1119 671.463, 1119 621.355 L 1119 610 1167.933 610 C 1216.579 610, 1216.869 609.988, 1217.524 607.925 C 1217.886 606.783, 1217.917 605.583, 1217.591 605.258 C 1217.266 604.933, 1217 605.192, 1217 605.833 C 1217 606.706, 1204.703 607, 1168.152 607 L 1119.304 607 1118.688 587.750 C 1115.724 495.083, 1083.137 401.404, 1027.157 324.626 C 1002.645 291.006, 969.656 256.573, 936.908 230.426 C 857.287 166.855, 757.650 129.899, 656.250 126.329 L 638 125.686 638 62.843 C 638 21.931, 637.654 0, 637.008 0 C 636.364 0, 635.924 22.073, 635.758 62.750 M 613.500 128.699 C 559.797 131.057, 501.266 144.412, 449.735 166.066 C 376.239 196.950, 310.254 247.500, 258.590 312.500 C 247.897 325.953, 227.598 356.276, 218.423 372.500 C 184.131 433.142, 163.190 502.515, 157.914 572.952 C 156.412 593.004, 157.264 642.891, 159.418 661 C 166.249 718.438, 180.827 768.780, 205.026 818.500 C 227.563 864.804, 256.412 905.827, 292.495 942.882 C 355.695 1007.783, 433.881 1052.775, 521 1074.372 C 636.579 1103.024, 759.542 1087.646, 864 1031.474 C 988.839 964.343, 1078.948 843.561, 1106.973 705.795 C 1114.188 670.332, 1116.412 647.234, 1116.390 608 C 1116.371 573.445, 1115.156 558.204, 1109.939 527.073 C 1092.390 422.356, 1038.061 323.551, 958.879 252.350 C 863.590 166.666, 741.808 123.066, 613.500 128.699 M 586.272 325.575 C 533.996 331.909, 484.539 352.906, 444.355 385.827 C 430.607 397.090, 409.806 418.477, 399.705 431.735 C 365.349 476.828, 345.703 530.322, 343.327 585.254 L 342.689 600.007 480.594 599.754 L 618.500 599.500 618.754 461.750 L 619.007 324 608.254 324.107 C 602.339 324.166, 592.447 324.827, 586.272 325.575 M 654 462 L 654 600 791.651 600 L 929.301 600 928.690 584.750 C 924.129 470.916, 844.490 369.164, 733.663 335.570 C 711.429 328.831, 681.841 324.004, 662.750 324.001 L 654 324 654 462 M 1 607.500 C 1 608.759, 3.167 609, 14.500 609 C 25.833 609, 28 608.759, 28 607.500 C 28 606.241, 25.833 606, 14.500 606 C 3.167 606, 1 606.241, 1 607.500 M 343 633.391 C 343 638.009, 343.467 646.448, 344.038 652.144 C 352.189 733.472, 395.390 806.437, 462.854 852.819 C 504.831 881.680, 554.201 898.268, 605.254 900.665 L 619.007 901.311 618.754 763.406 L 618.500 625.500 480.750 625.246 L 343 624.993 343 633.391 M 654 763.155 L 654 901.310 667.604 900.658 C 754.594 896.486, 834.940 850.534, 883.851 776.983 C 892.691 763.690, 904.022 742.058, 909.928 727.202 C 921.415 698.308, 929 661.541, 929 634.756 L 929 625 791.500 625 L 654 625 654 763.155 M 1.762 1216.707 C 3.006 1216.946, 4.806 1216.937, 5.762 1216.687 C 6.718 1216.437, 5.700 1216.241, 3.500 1216.252 C 1.300 1216.263, 0.518 1216.468, 1.762 1216.707 M 12.750 1216.737 C 15.638 1216.939, 20.363 1216.939, 23.250 1216.737 C 26.138 1216.535, 23.775 1216.370, 18 1216.370 C 12.225 1216.370, 9.863 1216.535, 12.750 1216.737 " stroke="none" fill="black" fill-rule="evenodd"/>
</svg>