<svg xmlns="http://www.w3.org/2000/svg" width="1767" height="1825" viewBox="0 0 1767 1825" version="1.1">
	<path d="M 27.248 289.357 C 27.012 564.944, 26.914 579.181, 25.250 578.538 C 22.235 577.374, 11.746 575.213, 5.750 574.520 L 0 573.856 0 586.928 C 0 594.118, 0.187 600, 0.415 600 C 1.986 600, 20.651 591.720, 22.161 590.354 C 23.195 589.419, 24.675 586.594, 25.451 584.077 C 26.668 580.127, 26.870 664.702, 26.930 1201.712 L 27 1823.925 17.750 1824.255 L 8.500 1824.585 18.250 1824.792 L 28 1825 28.001 1203.250 L 28.002 581.500 30.159 585.858 C 34.179 593.979, 41.467 597.900, 63.795 603.955 C 85.890 609.947, 104.749 613.954, 158.045 623.982 C 284.526 647.780, 349.614 664.430, 416 689.971 C 456.471 705.542, 542.688 743.546, 613.500 777.029 C 662.489 800.193, 674.244 804.703, 708.845 813.613 C 720.584 816.636, 732.534 820.146, 735.398 821.413 C 741.876 824.277, 747.531 829.161, 750.019 834.038 L 751.921 837.766 748.836 838.383 C 747.139 838.722, 734.232 839, 720.155 839 L 694.560 839 618.030 848.012 C 575.938 852.968, 533.850 858.400, 524.500 860.083 C 456.864 872.259, 426.141 881.957, 384.500 904.275 C 331.070 932.911, 274.111 971.518, 203.500 1026.958 C 189.750 1037.754, 171.525 1052.026, 163 1058.672 C 127.559 1086.306, 110.682 1105.106, 107.131 1120.911 L 106.213 1125 111.709 1125 C 127.980 1125, 157.771 1109.340, 209.466 1073.613 C 232.419 1057.750, 272.753 1032.086, 306 1012.190 C 386.781 963.848, 445.708 942.096, 517.575 934.093 C 550.250 930.454, 610.294 926.726, 657.500 925.406 C 682.294 924.712, 725 925.678, 725 926.933 C 725 927.325, 717.462 931.622, 708.250 936.482 C 665.712 958.924, 659.112 962.494, 649.623 968.197 C 644.055 971.544, 636.125 976.651, 632 979.547 C 612.760 993.055, 584.386 1019.369, 569.178 1037.810 C 528.030 1087.703, 492.747 1159.144, 441.664 1296 C 415.163 1367, 390.329 1441.508, 383.503 1470.500 C 379.531 1487.370, 378.684 1495.992, 379.286 1513.392 C 379.961 1532.886, 381.830 1543.651, 394.151 1599 C 422.167 1724.849, 446.018 1798.531, 465.159 1818.364 C 468.272 1821.588, 471.398 1824.034, 472.105 1823.798 C 474.075 1823.142, 475.022 1818.544, 475.678 1806.448 C 477.091 1780.401, 471.675 1747.240, 450.128 1650 C 434.841 1581.012, 429.196 1541.929, 430.282 1512.618 C 430.963 1494.243, 432.013 1489.951, 443.029 1460.500 C 483.333 1352.750, 532.641 1244.996, 572.757 1177 C 610.098 1113.709, 645.232 1072.017, 673.070 1057.965 L 678.883 1055.030 677.362 1060.265 C 676.525 1063.144, 672.314 1076.975, 668.005 1091 C 658.729 1121.189, 656.676 1128.997, 653.888 1144.699 C 651.226 1159.690, 650.228 1193.292, 651.899 1211.703 C 663.914 1344.142, 748.508 1440.402, 868.755 1458.463 C 923.807 1466.732, 980.436 1458.560, 1027.500 1435.556 C 1076.871 1411.424, 1115.271 1372.163, 1141.011 1319.500 C 1158.880 1282.938, 1168.202 1246.633, 1171.057 1202.479 C 1173.352 1167.001, 1169.794 1140.944, 1157.133 1100.500 C 1151.053 1081.076, 1144 1057.046, 1144 1055.754 C 1144 1055.234, 1146.588 1056.252, 1149.750 1058.016 C 1212.462 1092.997, 1292.268 1232.742, 1378.132 1457.927 C 1388.761 1485.802, 1390.709 1492.812, 1392.047 1508 C 1394.097 1531.285, 1390.108 1559.463, 1372.370 1647 C 1350.030 1757.240, 1344.391 1798.648, 1348.642 1821.250 C 1349.367 1825.105, 1351.365 1824.687, 1356.430 1819.622 C 1375.771 1800.282, 1401.107 1721.786, 1429.415 1593.500 C 1445.046 1522.666, 1446.404 1508.438, 1440.416 1478.243 C 1435.235 1452.118, 1399.643 1342.913, 1373.674 1273.465 C 1332.206 1162.565, 1291.276 1082.936, 1250.946 1034.694 C 1234.271 1014.747, 1205.251 989.300, 1180 972.482 C 1164.736 962.315, 1152.278 955.331, 1123 940.528 C 1110.625 934.271, 1099.637 928.506, 1098.582 927.717 C 1094.248 924.473, 1168.759 924.654, 1227 928.028 C 1323.004 933.591, 1368.966 941.882, 1422 963.205 C 1456.969 977.266, 1488.330 994.363, 1551.500 1033.805 C 1584.728 1054.552, 1586.968 1056.023, 1616 1076.151 C 1643.843 1095.455, 1659.973 1105.584, 1675.503 1113.518 C 1690.810 1121.338, 1698.579 1123.993, 1708.250 1124.711 C 1715.505 1125.249, 1716 1125.159, 1716 1123.303 C 1716 1122.212, 1714.668 1118.660, 1713.040 1115.410 C 1698.241 1085.867, 1622.485 1023.661, 1511 949.509 C 1432.515 897.306, 1397.856 880.838, 1340.589 868.538 C 1305.996 861.108, 1259.560 853.188, 1226.500 849.080 C 1168.596 841.884, 1143.218 839.779, 1106.331 839.115 C 1087.539 838.777, 1071.870 838.206, 1071.512 837.847 C 1070.411 836.743, 1074.725 829.409, 1078.206 826.468 C 1083.546 821.956, 1090.568 819.414, 1114.179 813.445 C 1126.456 810.342, 1142.043 805.800, 1148.817 803.352 C 1172.212 794.898, 1210.757 777.855, 1269.500 749.992 C 1363.088 705.600, 1403.884 687.925, 1445.906 673.564 C 1475.980 663.286, 1478.502 662.687, 1620.898 632 C 1649.167 625.908, 1682.242 619.131, 1694.398 616.940 C 1733.963 609.810, 1743.323 607.947, 1755.161 604.846 C 1764.880 602.299, 1766.917 601.433, 1767.397 599.645 C 1768.245 596.484, 1768.095 572.327, 1767.235 573.509 C 1766.784 574.128, 1757.984 574.573, 1744.500 574.659 C 1684.207 575.042, 1581.996 587.507, 1474.863 607.540 C 1395.570 622.368, 1337.975 639.874, 1184.500 695.801 C 1142.495 711.108, 1132.681 715.204, 1105.269 728.869 C 1088.918 737.019, 1085.338 738.421, 1078.355 739.405 C 1073.656 740.068, 1072.985 739.284, 1073.022 733.168 C 1073.052 728.213, 1075.660 722.946, 1082.515 714 C 1105.093 684.534, 1129.963 639.576, 1163.005 568.500 C 1200.745 487.318, 1222.493 448.436, 1241.493 428.177 C 1245.453 423.955, 1254.889 413.300, 1262.461 404.500 C 1288.822 373.864, 1301.859 360.321, 1360 303.186 C 1422.768 241.504, 1450.168 215.619, 1475.484 194.092 C 1484.275 186.616, 1494.400 177.762, 1497.984 174.415 C 1506.453 166.506, 1585.079 97.306, 1594.465 89.500 C 1598.433 86.200, 1609.039 77.425, 1618.033 70 C 1651.280 42.554, 1671.678 19.290, 1674.841 5.211 C 1675.769 1.080, 1675.737 1, 1673.124 1 C 1668.179 1, 1655.562 5.088, 1645.032 10.101 C 1616.010 23.920, 1584.214 46.164, 1515.933 100.418 C 1498.572 114.213, 1474.055 133.375, 1461.453 143 C 1396.476 192.625, 1338.001 241.574, 1261.500 310.381 C 1202.737 363.234, 1173.637 393.285, 1146.825 428.800 C 1131.708 448.824, 1116.979 475.343, 1053.500 596.824 L 1033.500 635.099 1030.227 631.299 C 1026.090 626.496, 1021.575 617.119, 1019.972 610 C 1019.262 606.848, 1018.390 591.477, 1017.930 574 C 1016.992 538.400, 1016.917 537.928, 1008.979 517.500 C 1003.992 504.670, 1000.783 499.744, 997.700 500.193 C 994.777 500.618, 989.895 507.365, 986.556 515.592 C 979.616 532.694, 961.271 567, 959.065 567 C 958.658 567, 953.865 566.328, 948.413 565.506 C 935.895 563.619, 930.565 563.618, 923.339 565.500 C 915.988 567.415, 906.012 567.415, 898.661 565.500 C 891.320 563.588, 885.209 563.607, 872.785 565.582 C 867.311 566.453, 862.724 567.015, 862.591 566.832 C 860.201 563.522, 835.622 515.739, 833.984 511.216 C 831.813 505.224, 827.442 499.970, 824.673 500.022 C 819.004 500.130, 809.528 521.141, 805.886 541.676 C 805.318 544.879, 804.494 561.225, 804.054 578 C 803.350 604.883, 803.005 609.276, 801.151 615.042 C 798.992 621.759, 794.660 629.188, 790.939 632.555 C 788.374 634.876, 790.703 638.571, 771.678 602 C 704.849 473.543, 688.685 445.013, 667.995 419 C 633.613 375.772, 601.495 344.750, 509.500 265.911 C 360.968 138.620, 248.091 51.219, 189.057 17.789 C 174.650 9.631, 166.612 5.887, 157.383 3.037 C 148.141 0.182, 146.611 0.292, 147.450 3.750 C 149.774 13.331, 160.960 28.076, 181.441 48.560 C 200.688 67.808, 216.407 81.693, 263.440 120.988 C 306.327 156.819, 301.439 152.451, 368.089 214.497 C 476.496 315.415, 527.365 365.367, 564.191 407.065 C 601.059 448.810, 623.330 486.390, 665.495 578 C 697.585 647.721, 719.285 687.212, 741.326 716 C 747.624 724.226, 749 727.556, 749 734.575 C 749 739.229, 748.732 740.111, 747.468 739.626 C 746.625 739.303, 743.138 738.319, 739.718 737.440 C 736.298 736.560, 727.425 732.773, 720 729.023 C 683.976 710.830, 604.048 681.074, 509.500 650.657 C 395.719 614.053, 363.181 606.699, 252.500 592.576 C 233.250 590.119, 206.025 586.527, 192 584.594 C 106.749 572.840, 59.964 570.868, 34.420 577.951 L 28.003 579.730 27.750 289.615 L 27.497 -0.500 27.248 289.357 M 0.392 587 C 0.392 594.425, 0.549 597.462, 0.742 593.750 C 0.934 590.038, 0.934 583.962, 0.742 580.250 C 0.549 576.538, 0.392 579.575, 0.392 587 M 1.762 1824.707 C 3.006 1824.946, 4.806 1824.937, 5.762 1824.687 C 6.718 1824.437, 5.700 1824.241, 3.500 1824.252 C 1.300 1824.263, 0.518 1824.468, 1.762 1824.707 " stroke="none" fill="black" fill-rule="evenodd"/>
</svg>