<svg xmlns="http://www.w3.org/2000/svg" width="1396" height="1041" viewBox="0 0 1396 1041" version="1.1">
	<path d="M 1215 2.152 C 1162.720 7.604, 1110.991 26.688, 1069.606 55.790 C 1048.161 70.870, 1025.934 91.805, 1017.513 104.855 C 998.850 133.778, 978.151 193.481, 958.002 276.500 C 944.188 333.417, 943.533 337.765, 943.535 372.500 C 943.536 396.370, 943.806 401.007, 945.864 412.500 C 950.983 441.099, 958.359 463.632, 971.397 490.500 C 992.062 533.088, 1016.188 566.330, 1074.248 632.215 C 1129.119 694.480, 1145.884 716.463, 1158.993 743.329 C 1179.671 785.711, 1177.721 818.414, 1152.210 857.108 C 1122.747 901.797, 1083.737 927.541, 1038.542 932.123 C 999.169 936.115, 956.841 919.155, 920.535 884.840 C 867.097 834.334, 825.499 749.947, 796.048 632.301 C 783.286 581.319, 779.050 552.913, 771.473 467.500 C 765.231 397.131, 761.131 362.608, 754.959 328.434 C 734.508 215.208, 694.224 145.400, 626.200 105.306 C 602.178 91.147, 574.490 81.465, 546.317 77.371 C 532.131 75.309, 497.633 75.013, 482.500 76.823 C 419.609 84.346, 361.147 105.950, 308 141.310 C 239.223 187.068, 196.579 247.943, 187.959 312.671 C 185.984 327.501, 187.220 357.622, 190.426 372.769 C 202.712 430.820, 237.427 478.240, 312.500 539.517 C 319.650 545.353, 342.375 563.027, 363 578.793 C 429.862 629.902, 448.928 645.797, 476.528 673.441 C 516.743 713.720, 536.087 743.921, 543.601 778.162 C 545.582 787.189, 545.837 804.445, 544.108 812.500 C 541.076 826.631, 531.460 840.521, 518.904 848.905 C 510.178 854.732, 503.027 857.111, 494.236 857.111 C 479.140 857.111, 466.029 850.012, 447.226 831.659 C 433.593 818.351, 426.258 809.998, 397.353 774.862 C 350.284 717.647, 322.231 689.125, 287.007 662.673 C 247.395 632.926, 204.581 616.632, 156.679 613.072 C 114.681 609.952, 71.789 623.656, 45.941 648.453 C 40.687 653.494, 28.398 670.731, 29.368 671.701 C 30.194 672.528, 55.241 670.096, 67.495 667.999 C 73.548 666.964, 87.950 663.834, 99.500 661.045 C 126.385 654.553, 137.033 653.221, 149.477 654.792 C 170.073 657.394, 189.208 665.943, 217.996 685.404 C 255.786 710.953, 281.713 737.515, 341.054 811.477 C 391.546 874.410, 413.017 897.829, 439.734 919.109 C 470.775 943.833, 505.114 958, 534 958 C 577.363 958, 614.829 930.868, 638.075 882.630 C 652.601 852.489, 658.686 822.951, 657.747 787.143 C 657.184 765.663, 655.106 753.292, 648.980 734.950 C 633.848 689.645, 605.282 646.367, 561.504 602.423 C 531.013 571.816, 509.283 553.734, 442.075 503.042 C 396.426 468.612, 381.207 456.587, 364 441.354 C 331.387 412.483, 313.147 387.525, 306.944 363.284 C 295.419 318.242, 320.575 264.565, 371.175 226.233 C 432.196 180.006, 508.094 171.031, 561.956 203.672 C 589.755 220.519, 615.027 250.252, 625.020 277.869 C 635.298 306.275, 640.793 336.990, 656.045 451.291 C 667.895 540.102, 673.881 578.700, 683.140 626 C 712.465 775.813, 754.754 877.096, 816.923 946.415 C 858.235 992.477, 910.397 1022.765, 969.305 1034.897 C 1008.995 1043.072, 1039.168 1042.523, 1077.318 1032.933 C 1114.196 1023.663, 1154.167 1003.199, 1187.518 976.513 C 1200.067 966.472, 1222.144 944.446, 1232.135 932 C 1262.288 894.437, 1280.996 853.973, 1287.384 812.500 C 1296.045 756.278, 1279.878 697.219, 1242.235 647.567 C 1233.992 636.693, 1219.689 619.903, 1200.414 598.470 C 1164.695 558.755, 1153.166 543.894, 1140.700 521.500 C 1118.777 482.117, 1111.887 438.285, 1119.517 386.735 C 1120.945 377.093, 1121.673 375.162, 1132.088 353.416 C 1146.685 322.940, 1153.645 311.164, 1161.910 302.956 C 1170.166 294.757, 1175.641 292.053, 1209.413 279.496 C 1239.856 268.177, 1265.746 257.023, 1296.356 242.038 C 1334.058 223.582, 1364.090 202.781, 1388 178.566 L 1396.500 169.957 1396.780 108.282 C 1396.934 74.361, 1396.769 46.898, 1396.414 47.253 C 1396.059 47.608, 1392.783 45.501, 1389.134 42.570 C 1363.238 21.770, 1325.019 7.627, 1281 2.557 C 1266.210 0.854, 1229.604 0.629, 1215 2.152 M 1.036 107.809 C 1.016 140.429, 1.354 166.899, 1.787 166.632 C 2.220 166.364, 5.097 162.625, 8.181 158.323 C 22.785 137.948, 29.645 115.765, 27.127 97.054 C 25.026 81.446, 17.559 65.986, 6.409 54.160 L 1.073 48.500 1.036 107.809 M 1.762 1040.707 C 3.006 1040.946, 4.806 1040.937, 5.762 1040.687 C 6.718 1040.437, 5.700 1040.241, 3.500 1040.252 C 1.300 1040.263, 0.518 1040.468, 1.762 1040.707 M 13.784 1040.738 C 16.689 1040.941, 21.189 1040.939, 23.784 1040.734 C 26.378 1040.528, 24 1040.363, 18.500 1040.365 C 13 1040.368, 10.878 1040.536, 13.784 1040.738 " stroke="none" fill="black" fill-rule="evenodd"/>
</svg>