<svg xmlns="http://www.w3.org/2000/svg" width="1417" height="1185" viewBox="0 0 1417 1185" version="1.1">
	<path d="M 1103.466 5.750 C 1106.830 33.541, 1115.551 61.258, 1134.537 104.500 C 1153.745 148.246, 1162 170.981, 1168.958 199.292 C 1178.060 236.328, 1182.925 279.715, 1182.997 324.500 C 1183.029 344.374, 1181.022 389.226, 1180.054 390.281 C 1179.005 391.425, 1163.028 385.534, 1151.521 379.760 C 1124.681 366.291, 1107.716 351.080, 1077.722 313.592 C 1054.272 284.284, 1041.173 271.310, 1026.137 262.500 L 1019.774 258.772 1017.428 261.136 C 1013.402 265.194, 1005.322 279.633, 1002.111 288.506 C 996.043 305.276, 994.575 315.096, 994.561 339 C 994.550 357.043, 994.915 362.554, 996.833 373.274 C 1005.643 422.508, 1026.595 466.278, 1055.008 494.801 C 1071.940 511.799, 1084.621 518.346, 1121.348 529.049 C 1145.091 535.968, 1161.466 542.147, 1176.601 549.896 L 1189.500 556.500 1189.402 575 C 1189.223 609.067, 1181.910 637.637, 1168.071 658.338 C 1165.557 662.100, 1161.216 668.752, 1158.425 673.122 C 1155.634 677.492, 1151.490 682.965, 1149.216 685.284 C 1145.873 688.693, 1144.478 691.364, 1141.931 699.236 L 1138.781 708.972 1163.054 741.236 C 1176.403 758.981, 1187.450 773.659, 1187.601 773.854 C 1187.857 774.185, 1208.066 768.077, 1237 758.921 C 1266.146 749.699, 1275.724 741.781, 1288.916 716 C 1301.606 691.198, 1312.689 660.957, 1317.511 637.974 C 1321.079 620.968, 1321.898 598.315, 1319.549 581.550 C 1317.620 567.777, 1312.834 548.579, 1307.166 531.876 L 1303.221 520.251 1312.360 515.489 C 1334.638 503.882, 1353.851 490.005, 1371.836 472.534 C 1389.360 455.510, 1402.625 438.540, 1414.073 418.500 L 1417.500 412.500 1417.766 294.569 C 1417.913 229.707, 1417.659 176.382, 1417.203 176.069 C 1416.747 175.756, 1413.779 170.550, 1410.609 164.500 C 1389.206 123.658, 1355.383 86.058, 1315.500 58.773 C 1259.730 20.620, 1189.314 0.123, 1113.635 0.015 L 1102.770 -0 1103.466 5.750 M 312 2.546 C 268.751 7.074, 230.694 18.039, 193.614 36.656 C 106.511 80.389, 44.962 164.848, 31.028 259.763 C 29.918 267.319, 29.008 275.637, 29.005 278.250 C 28.996 286.385, 27.321 283.453, 26.612 274.060 C 24.542 246.641, 14.856 208.704, 3.617 184 L 1.115 178.500 1.140 294 L 1.164 409.500 4.697 402 C 16.062 377.870, 23.323 351.027, 26.378 321.845 L 27.670 309.500 28.373 316.500 C 30.877 341.423, 34.362 359.006, 40.463 377.500 C 60.344 437.766, 102.324 485.634, 162.507 516.663 L 169.515 520.276 166.713 528.871 C 144.436 597.220, 148.672 664.659, 178.002 708.586 C 184.597 718.464, 203.090 736.922, 212.916 743.434 C 233.494 757.073, 264.942 768.072, 290.500 770.568 L 296.500 771.154 310.833 731.145 L 325.167 691.135 321.260 685.318 C 309.624 667.989, 297.685 644.810, 292.047 628.602 C 290.344 623.707, 287.835 614.187, 286.469 607.444 C 283.819 594.355, 281.505 567.140, 282.474 560.458 C 283.148 555.812, 281.299 556.784, 305.500 548.355 C 381.966 521.724, 423.931 493.308, 451.492 449.500 C 474.008 413.710, 483.078 367.436, 476.988 319.409 C 476.220 313.344, 473.905 306.738, 465.345 286.170 C 459.468 272.051, 454.342 260.127, 453.952 259.672 C 453.156 258.741, 444.820 262.717, 438 267.279 C 430.502 272.296, 427.097 276.079, 421.417 285.706 C 410.775 303.745, 400.465 315.691, 373.500 341.221 C 347.296 366.032, 334.611 375.084, 313.599 383.968 C 303.682 388.161, 293.276 391.609, 292.594 390.928 C 292.358 390.691, 291.465 382.398, 290.611 372.499 C 284.526 302.028, 290.225 245.838, 309.172 189.500 C 314.369 174.049, 321.190 156.644, 336.988 118.529 C 355.237 74.498, 365.331 39.558, 369.424 6.250 L 370.069 1 347.284 1.119 C 334.753 1.184, 318.875 1.827, 312 2.546 M 665.500 600.120 C 579.663 606.094, 504.278 626.915, 450.521 659.496 C 378.992 702.848, 340 768.460, 340 845.468 C 340 943.410, 402.911 1046.483, 503 1112.527 C 559.994 1150.134, 622.453 1172.616, 695 1181.635 C 713.298 1183.909, 773.625 1184.252, 792.500 1182.188 C 821.429 1179.025, 853.150 1173.136, 877.500 1166.408 C 929.759 1151.969, 986.380 1117.526, 1034.339 1071 C 1090.324 1016.689, 1124.363 956.480, 1134.688 893.500 C 1137.214 878.089, 1137.171 842.682, 1134.609 828.500 C 1126.213 782.017, 1107.543 744.893, 1077.119 714.181 C 1014.371 650.840, 898.983 609.104, 761.500 600.022 C 743.868 598.857, 682.747 598.919, 665.500 600.120 M 1.762 1184.707 C 3.006 1184.946, 4.806 1184.937, 5.762 1184.687 C 6.718 1184.437, 5.700 1184.241, 3.500 1184.252 C 1.300 1184.263, 0.518 1184.468, 1.762 1184.707 M 13.784 1184.738 C 16.689 1184.941, 21.189 1184.939, 23.784 1184.734 C 26.378 1184.528, 24 1184.363, 18.500 1184.365 C 13 1184.368, 10.878 1184.536, 13.784 1184.738 " stroke="none" fill="black" fill-rule="evenodd"/>
</svg>