<svg xmlns="http://www.w3.org/2000/svg" width="892" height="1163" viewBox="0 0 892 1163" version="1.1">
	<path d="M 457.996 1.064 C 437.813 3.210, 413.406 10.237, 395.952 18.927 C 345.232 44.180, 310.465 89.745, 298.246 146.979 C 295.808 158.398, 295.569 161.481, 295.536 182 C 295.497 206.122, 296.310 212.635, 301.709 231.497 C 317.511 286.696, 362.036 333.227, 424.291 359.604 C 428.898 361.555, 431.228 363.127, 431.535 364.491 C 431.783 365.596, 432.143 453.350, 432.334 559.500 C 432.563 687.453, 433.106 765.139, 433.944 790 C 435.769 844.174, 433.720 889.931, 427.922 924.500 C 413.561 1010.118, 374.236 1056.974, 304 1072.157 C 294.999 1074.102, 290.645 1074.420, 273.500 1074.385 C 256.828 1074.350, 251.875 1073.985, 243.734 1072.191 C 213.999 1065.638, 193.096 1054.307, 172.500 1033.578 C 157.754 1018.736, 149.103 1006.738, 139.996 988.500 C 129.113 966.706, 123.271 946.079, 119.438 915.911 C 117.377 899.695, 116.521 846.361, 117.492 794.607 L 118.234 755 132.867 754.998 C 140.915 754.997, 158.648 754.699, 172.273 754.337 L 197.047 753.679 194.773 751.207 C 193.523 749.848, 186.425 743.674, 179 737.487 C 162.378 723.635, 155.756 716.761, 144.816 702 C 112.234 658.037, 90.130 619.358, 62.811 558.500 C 51.871 534.129, 34.821 498.846, 34.257 499.410 C 33.355 500.312, 31.088 526.834, 29.943 549.876 C 29.090 567.050, 28.927 594.674, 29.390 643.376 C 29.752 681.394, 30.451 756.600, 30.944 810.500 C 31.637 886.163, 32.198 912.214, 33.406 924.796 C 38.556 978.456, 50.879 1016.319, 74.855 1052.159 C 111.550 1107.011, 165.976 1144.201, 228.172 1156.921 C 258.708 1163.166, 293.995 1162.799, 325.500 1155.909 C 354.356 1149.598, 385.287 1136.399, 411.667 1119.141 C 427.260 1108.938, 437.125 1099.487, 453.566 1079 C 460.849 1069.925, 468.548 1060.533, 470.675 1058.130 L 474.543 1053.759 483.957 1064.451 C 513.750 1098.289, 551.961 1126.971, 588 1142.548 C 608.172 1151.267, 630.937 1157.616, 652.382 1160.504 C 670.008 1162.877, 703.438 1162.191, 719.650 1159.122 C 782.167 1147.289, 834.947 1112.372, 869.480 1060 C 878.648 1046.096, 889.495 1027.078, 891.563 1021.281 C 892.681 1018.147, 892.902 977.192, 892.854 782 C 892.822 652.475, 892.441 547.850, 892.007 549.500 C 889.841 557.746, 861.613 615.498, 849.135 637.213 C 827.044 675.657, 809.369 698.853, 782.530 724.622 C 766.193 740.308, 754.145 753.478, 755.182 754.516 C 755.425 754.758, 773.055 754.987, 794.360 755.023 C 829.557 755.083, 833.156 755.242, 833.737 756.756 C 834.853 759.666, 832.084 882.461, 830.525 899.160 C 824.308 965.750, 809.929 1004.186, 780.058 1034.058 C 759.864 1054.251, 735.858 1066.987, 707.270 1072.672 C 694.623 1075.187, 665.078 1075.167, 651.500 1072.635 C 637.284 1069.983, 619.894 1064.051, 606.999 1057.455 C 556.666 1031.709, 530.425 988.292, 520.598 914.500 C 517.219 889.132, 516.575 875.301, 516.687 830.500 C 516.748 805.750, 517.020 694.600, 517.291 583.500 C 517.562 472.400, 518.170 378.357, 518.642 374.515 L 519.500 367.530 528.834 361.680 C 533.967 358.463, 548.817 350.341, 561.834 343.632 C 595.128 326.470, 605.530 318.989, 618.955 302.552 C 665.825 245.161, 675.135 166.241, 642.703 101.240 C 610.736 37.171, 549.065 -0.638, 477.789 0.133 C 471.030 0.206, 462.123 0.625, 457.996 1.064 M 21.301 512.250 C 17.136 516.628, 12.302 524.431, 6.132 536.732 L 1 546.964 1.029 782.232 L 1.059 1017.500 4.400 1010 C 12.362 992.130, 19.226 967.192, 22.428 944.500 C 26.042 918.891, 26.209 910.743, 26.707 735.500 C 27.171 572.417, 26.716 509, 25.083 509 C 24.703 509, 23.001 510.462, 21.301 512.250 M 1.762 1162.707 C 3.006 1162.946, 4.806 1162.937, 5.762 1162.687 C 6.718 1162.437, 5.700 1162.241, 3.500 1162.252 C 1.300 1162.263, 0.518 1162.468, 1.762 1162.707 M 13.784 1162.738 C 16.689 1162.941, 21.189 1162.939, 23.784 1162.734 C 26.378 1162.528, 24 1162.363, 18.500 1162.365 C 13 1162.368, 10.878 1162.536, 13.784 1162.738 " stroke="none" fill="black" fill-rule="evenodd"/>
</svg>