<svg xmlns="http://www.w3.org/2000/svg" width="1036" height="905" viewBox="0 0 1036 905" version="1.1">
	<path d="M 550.077 1.134 C 541.885 2.493, 525.293 8.328, 515.356 13.344 C 482.942 29.707, 463.619 55.665, 458.482 89.748 C 456.599 102.239, 456.618 110.672, 458.559 123.746 C 465.197 168.449, 494.598 205.615, 530.864 215.147 C 563.868 223.822, 604.431 206.167, 621.939 175.507 C 633.476 155.303, 639.293 131.217, 639.328 103.500 C 639.375 66.590, 629.643 38.525, 609.984 18.873 C 600.233 9.125, 591.187 3.994, 579.315 1.479 C 571.821 -0.109, 558.514 -0.266, 550.077 1.134 M 363 157.967 C 345.770 161.669, 325.842 170.764, 314.026 180.318 C 299.584 191.995, 288.551 209.664, 283.315 229.500 C 280.963 238.414, 280.669 241.401, 280.612 257 C 280.564 270.413, 280.978 276.485, 282.385 283 C 290.592 321.008, 312.208 352.557, 339.529 366.406 C 363.308 378.459, 391.261 376.270, 416.716 360.361 C 436.228 348.167, 449.167 330.481, 456.883 305.460 C 461.233 291.351, 462.991 278.819, 462.996 261.881 C 463.011 207.859, 437.251 166.341, 398.303 157.613 C 388.886 155.503, 373.765 155.654, 363 157.967 M 721.597 159.607 C 712.181 161.307, 698.602 165.737, 688.502 170.404 C 660.438 183.370, 642.153 205.263, 634.778 234.726 C 632.950 242.028, 632.579 246.351, 632.569 260.500 C 632.557 278.637, 633.210 283.203, 638.130 299.371 C 644.097 318.982, 653.635 335.459, 667.198 349.586 C 694.409 377.929, 727.620 384.412, 761.759 368.043 C 772.080 363.095, 777.045 359.687, 783.872 352.867 C 797.739 339.013, 807.639 317.680, 812.118 292 C 814.468 278.529, 814.908 255.134, 813.056 242.094 C 804.731 183.472, 768.816 151.080, 721.597 159.607 M 545.609 335.003 C 529.838 336.969, 510.159 342.873, 496.576 349.713 C 462.863 366.691, 440.636 396.745, 431.791 437.312 C 429.881 446.073, 429.565 450.581, 429.535 469.500 C 429.504 488.844, 429.787 492.888, 431.874 503 C 438.696 536.058, 451.954 562.682, 471.804 583.188 C 490.374 602.372, 509.612 612.286, 533.421 614.941 C 553.360 617.164, 576.034 612.547, 597 601.994 C 637.481 581.618, 662.900 531.143, 662.980 470.974 C 663.040 426.718, 649.954 388.717, 626.014 363.624 C 613.077 350.064, 599.197 341.710, 582.616 337.504 C 572.037 334.821, 555.846 333.726, 545.609 335.003 M 248.500 372.100 C 236.061 373.876, 216.560 381.021, 206.379 387.534 C 196.221 394.033, 184.428 406.517, 178.076 417.500 C 173.969 424.600, 169.140 437.788, 166.808 448.273 C 163.880 461.437, 163.668 485.655, 166.361 499.346 C 171.497 525.465, 182.201 547.191, 197.887 563.335 C 221.698 587.841, 250.084 593.978, 283.577 581.859 C 310.143 572.246, 329.314 551.326, 339.382 520.963 C 344.824 504.552, 346.345 492.937, 345.708 472.669 C 345.396 462.733, 344.506 452.551, 343.596 448.500 C 338.610 426.307, 329.665 408.198, 317 394.659 C 299.524 375.977, 275.883 368.192, 248.500 372.100 M 822.771 377.923 C 797.829 383.347, 782.149 392.272, 769.494 408.247 C 755.513 425.898, 748.399 446.826, 747.313 473.500 C 745.846 509.543, 756.955 542.830, 777.921 565.219 C 793.746 582.117, 810.201 590.155, 832.088 591.678 C 847.008 592.716, 866.841 588.327, 878.989 581.300 C 901.999 567.990, 918.488 542.329, 926.165 507.881 C 929.283 493.889, 929.532 463.255, 926.636 450 C 921.726 427.531, 913.767 411.816, 900.500 398.397 C 890.513 388.296, 882.614 383.302, 870.167 379.221 C 859.495 375.721, 835.872 375.075, 822.771 377.923 M 128.500 596.540 C 85.296 614.027, 56.805 635.262, 41.780 661.174 C 34.754 673.290, 29.058 692.068, 29.017 703.250 C 28.994 709.686, 27.425 709.273, 26.644 702.624 C 25.742 694.957, 22.435 684.746, 17.890 675.598 C 13.988 667.746, 6.006 656.126, 2.061 652.556 L 0 650.690 0 730.845 L 0 811 2.284 811 C 4.047 811, 4.945 810.029, 6.216 806.750 C 14.965 784.184, 17.394 777.445, 19.969 768.606 C 24.005 754.753, 25.914 745.550, 27.462 732.500 C 28.405 724.547, 28.799 722.919, 28.883 726.625 C 29.176 739.451, 35.792 768.953, 43.322 791 C 46.494 800.290, 46.668 800.549, 51.198 802.730 C 62.096 807.975, 84.685 812.933, 107.433 815.072 C 125.603 816.780, 167.115 815.725, 186 813.075 C 210.500 809.637, 209.041 809.996, 210.240 807.108 C 211.383 804.355, 211.653 781.261, 211.002 742 C 210.673 722.123, 210.884 718.119, 212.815 707.651 C 215.733 691.828, 218.570 684.086, 225.161 673.961 C 228.190 669.308, 231.632 663.025, 232.809 660 C 235.350 653.467, 237.579 645.219, 236.949 644.682 C 234.340 642.460, 142.713 592.011, 141.345 592.044 C 140.330 592.068, 134.550 594.092, 128.500 596.540 M 933.222 595.470 C 928.030 597.091, 924.713 599.564, 912.738 610.745 C 902.587 620.222, 890.773 628.391, 880.644 632.935 C 873.388 636.191, 857.586 641.435, 851.750 642.523 C 849.688 642.908, 848 643.403, 848 643.623 C 848 643.843, 851.636 651.285, 856.080 660.160 C 877.195 702.328, 881.327 719.480, 877.612 749.540 C 875.811 764.106, 875.585 779.723, 877.009 791 C 878.435 802.283, 881.068 816.492, 882.018 818.029 C 882.724 819.172, 894.815 818.866, 957.180 816.127 C 998.056 814.331, 1032.513 812.660, 1033.750 812.412 L 1036 811.962 1036 731.645 L 1036 651.328 1029.250 644.847 C 1010.717 627.052, 965.459 599.586, 948 595.537 C 940.238 593.737, 938.792 593.730, 933.222 595.470 M 393.500 617.933 C 376.006 622.060, 352.628 632.611, 331.500 645.914 C 285.287 675.012, 265.319 699.968, 256.820 739.250 C 253.887 752.807, 253.652 784.141, 256.346 802.500 C 259.002 820.604, 264.804 846.551, 268.117 855.144 C 278.823 882.915, 300.102 896.231, 338.500 899.192 C 351.576 900.200, 358.629 900.050, 393.500 898.024 C 429.602 895.926, 438.372 895.762, 483.500 896.342 C 533.096 896.978, 555.691 897.699, 613.500 900.489 C 684.308 903.907, 694.853 904.226, 720.500 903.727 C 739.483 903.357, 750.321 902.695, 757 901.498 C 799.881 893.814, 816.908 874.520, 824.683 824.804 C 827.182 808.823, 827.160 773.738, 824.642 758.500 C 816.422 708.772, 795.235 668.206, 764.500 643.352 C 734.152 618.810, 700.777 612.066, 666.329 623.512 C 653.449 627.792, 647.424 630.851, 632.500 640.690 C 614.030 652.865, 604.170 658.577, 589.749 665.452 C 568.506 675.580, 555.992 678.954, 539.564 678.983 C 527.563 679.004, 519.199 677.088, 509 671.982 C 499.717 667.336, 493.002 662.289, 477 647.930 C 456.766 629.774, 447.840 623.714, 434.022 618.753 C 425.814 615.805, 404.358 615.372, 393.500 617.933 M 1.762 904.707 C 3.006 904.946, 4.806 904.937, 5.762 904.687 C 6.718 904.437, 5.700 904.241, 3.500 904.252 C 1.300 904.263, 0.518 904.468, 1.762 904.707 M 13.784 904.738 C 16.689 904.941, 21.189 904.939, 23.784 904.734 C 26.378 904.528, 24 904.363, 18.500 904.365 C 13 904.368, 10.878 904.536, 13.784 904.738 " stroke="none" fill="black" fill-rule="evenodd"/>
</svg>