<svg xmlns="http://www.w3.org/2000/svg" width="1446" height="1090" viewBox="0 0 1446 1090" version="1.1">
	<path d="M 27 544.462 L 27 1088.925 17.750 1089.255 L 8.500 1089.585 18.250 1089.792 L 28 1090 28 545 C 28 245.250, 27.775 0, 27.500 0 C 27.225 0, 27 245.008, 27 544.462 M 653.660 1.980 C 639.440 4.566, 624.930 10.942, 614.927 19 C 585.684 42.557, 572.856 81.182, 583.129 114.743 C 589.314 134.949, 604.488 151.747, 626.526 162.784 C 637.490 168.276, 663.248 174.975, 673.500 175.001 C 676.300 175.009, 676.850 175.700, 681.766 185.388 C 686.985 195.676, 699.702 215.678, 702.500 218 C 703.683 218.982, 705.402 218.219, 711.727 213.905 C 733.427 199.104, 739.303 195.453, 748.500 191.063 C 754 188.437, 759.746 185.780, 761.269 185.157 L 764.038 184.026 760.389 176.763 C 758.382 172.768, 754.474 165.730, 751.706 161.121 C 745.210 150.308, 742.053 142.547, 742.024 137.313 C 742.009 134.798, 743.746 128.379, 746.374 121.234 C 752.645 104.180, 754.204 97.125, 754.148 86.044 C 753.964 49.506, 726.451 14.398, 689.821 3.960 C 681.553 1.604, 661.703 0.517, 653.660 1.980 M 936.500 177.104 C 886.718 179.305, 837.887 191.900, 791.500 214.503 C 738.091 240.527, 692.148 278.125, 653.421 327.500 C 613.987 377.777, 586.449 440.630, 576.093 504 C 563.647 580.156, 575.286 657.197, 609.879 727.637 C 623.204 754.772, 640.198 781.599, 658.883 805 C 674.245 824.239, 690.032 839.073, 731.783 873.500 L 743.910 883.500 696.705 884.107 C 670.742 884.440, 628.125 884.787, 602 884.876 L 554.500 885.039 549.293 893.270 C 542.316 904.298, 539.561 907.480, 518.600 928.726 C 508.710 938.750, 500.867 947.200, 501.171 947.504 C 501.474 947.808, 523.048 948.524, 549.111 949.096 C 613.220 950.503, 938.268 947.338, 967.500 945.022 C 1057.704 937.876, 1116.198 919.667, 1173.783 880.809 C 1195.623 866.072, 1209.826 854.318, 1227.842 836.074 C 1256.810 806.739, 1280.314 774.712, 1298.350 740 C 1320.222 697.906, 1332.992 656.014, 1339.197 606 C 1341.273 589.272, 1340.946 532.044, 1338.674 514.500 C 1328.467 435.660, 1298.573 366.078, 1251.939 312.609 C 1226.661 283.626, 1179.257 245.417, 1142.824 224.656 C 1084.353 191.339, 1008.730 173.910, 936.500 177.104 M 457.660 198.980 C 419.265 205.958, 391.489 233.370, 385.520 270.176 C 380.719 299.778, 388.439 324.371, 409 344.979 C 426.225 362.243, 448.178 371.975, 469.936 371.993 C 480.166 372.001, 487.055 370.355, 503.709 363.919 C 510.711 361.214, 518.070 359, 520.063 359 C 527.210 359, 538.645 364.271, 560.955 377.851 C 564.506 380.012, 567.881 381.573, 568.455 381.321 C 569.030 381.069, 570.446 379.656, 571.602 378.182 C 574.208 374.859, 605.335 319.983, 604.851 319.567 C 604.658 319.401, 594.038 313.074, 581.250 305.507 L 558 291.750 558 288.051 C 558 281.663, 554.896 265.856, 551.853 256.747 C 546.978 242.154, 540.239 231.052, 530.540 221.636 C 520.395 211.786, 508.376 204.827, 494.821 200.955 C 486.560 198.595, 465.838 197.494, 457.660 198.980 M 960.856 264.191 C 961.452 311.344, 957.620 344.533, 946.387 389.500 C 932.412 445.444, 906.954 504.664, 871.160 564.488 C 827.533 637.404, 779.119 691.900, 715.426 739.787 C 706.585 746.434, 698.782 752.558, 698.086 753.396 C 697.020 754.681, 697.996 756.379, 704.303 764.210 C 713.747 775.936, 725.811 788.834, 734.338 796.321 L 740.946 802.122 749.864 797.516 C 765.759 789.307, 789.072 773.352, 807.334 758.185 C 880.514 697.406, 947.349 601.262, 987.508 499 C 1016.047 426.327, 1029.081 357.177, 1025.906 295.287 C 1025.079 279.157, 1022.151 254.731, 1020.181 247.519 L 1019.366 244.539 993.433 240.848 C 979.170 238.818, 965.925 236.909, 964 236.606 L 960.500 236.056 960.856 264.191 M 892 244.476 C 853.087 253.018, 804.549 271.842, 788.554 284.596 C 781.456 290.255, 781.876 290.636, 795.500 290.901 C 809.850 291.180, 829.356 293.627, 860.500 299.053 C 876.450 301.832, 891.750 304.492, 894.500 304.964 C 897.250 305.437, 899.636 305.690, 899.801 305.527 C 900.098 305.235, 904.977 247.167, 904.992 243.750 C 905.002 241.619, 905.022 241.618, 892 244.476 M 1073.292 262.743 C 1073.598 264.809, 1075.654 277.075, 1077.860 290 C 1080.067 302.925, 1082.463 318.225, 1083.186 324 C 1084.878 337.519, 1084.886 379.510, 1083.199 391.500 C 1073.361 461.426, 1052.559 526.335, 1019.105 591.500 C 976.192 675.089, 916.700 749.651, 853.792 798.688 C 840.817 808.801, 822.293 821.618, 808.669 829.908 C 802.877 833.432, 796.869 837.338, 795.319 838.589 C 792.543 840.829, 792.531 840.887, 794.500 842.371 C 798.639 845.489, 824.089 858.073, 839.500 864.621 C 862.679 874.470, 865.891 874.198, 886 860.674 C 968.940 804.896, 1046.013 713.315, 1092.756 615 C 1127.812 541.267, 1146.830 469.906, 1151.180 395.784 C 1154.340 341.947, 1144.390 299.357, 1125.081 284.064 C 1120.782 280.659, 1098.446 269.618, 1082.617 263.073 L 1072.735 258.986 1073.292 262.743 M 720.500 348.858 C 714.543 350.443, 709.410 353.525, 704.675 358.360 C 695.458 367.772, 676.690 396.408, 670.366 410.707 L 667.902 416.278 679.201 415.651 C 720.164 413.376, 749.756 413.988, 770.171 417.530 C 774.947 418.358, 790.250 421.935, 804.178 425.479 C 831.267 432.371, 856.566 438, 860.452 438 C 862.691 438, 863.498 436.008, 873.917 404.750 C 880.013 386.462, 885 371.019, 885 370.431 C 885 368.453, 818.713 354.158, 794.542 350.924 C 778.390 348.762, 726.319 347.310, 720.500 348.858 M 1202.043 350.329 C 1202.019 350.785, 1203.127 358.935, 1204.505 368.440 C 1209.248 401.159, 1209.593 433.369, 1205.527 463.907 C 1203.283 480.758, 1202.807 479.676, 1224.500 507 C 1245.153 533.014, 1251.029 541.216, 1263.466 561.389 C 1276.481 582.501, 1279.815 587.233, 1281.111 586.431 C 1282.592 585.516, 1282.115 546.138, 1280.426 529.759 C 1274.233 469.744, 1252.582 412.982, 1219.575 370.233 C 1211.184 359.365, 1202.109 349.063, 1202.043 350.329 M 659.500 472.081 C 650.682 472.712, 646.178 473.444, 645.500 474.357 C 644.095 476.248, 632.542 534.875, 633.405 535.738 C 633.793 536.127, 641.731 536.772, 651.044 537.171 C 688.336 538.770, 710.098 542.432, 769.500 557.105 C 790.816 562.370, 793.612 562.856, 794.500 561.449 C 795.050 560.578, 801.059 551.233, 807.853 540.683 C 820.636 520.834, 831.911 499.476, 830.375 498.020 C 827.907 495.680, 787.298 484.884, 763 480.109 C 725.438 472.727, 689.466 469.937, 659.500 472.081 M 1171.749 598.088 L 1156.999 635.158 1164.319 643.829 C 1184.510 667.743, 1192.366 679.801, 1206.775 709 C 1217.844 731.428, 1225.412 745.005, 1226.840 744.995 C 1227.203 744.993, 1229.889 740.282, 1232.809 734.526 C 1235.729 728.771, 1241.064 719.210, 1244.664 713.281 C 1255.464 695.492, 1257.249 691.416, 1257.780 683.343 C 1258.387 674.122, 1256.025 666.078, 1247.467 648.217 C 1236.942 626.250, 1220.304 599.385, 1206.163 581.524 C 1200.332 574.158, 1188.090 560.994, 1187.086 561.009 C 1186.764 561.013, 1179.862 577.699, 1171.749 598.088 M 635.417 604.620 C 636.987 624.146, 643.473 651.897, 651.558 673.673 C 656.655 687.402, 662.645 700, 664.075 700 C 668.964 700, 690.107 682.819, 713.903 659.508 C 730.029 643.711, 750 621.303, 750 619.006 C 750 618.070, 729.453 611.287, 718.038 608.454 C 693.760 602.429, 667.040 598.062, 644.602 596.451 L 634.704 595.740 635.417 604.620 M 373.500 631.689 C 336.087 636.543, 306.279 650.405, 279.058 675.607 C 256.164 696.803, 237.727 732, 232.014 765.419 C 229.474 780.276, 229.300 802.567, 231.618 816.074 C 233.443 826.705, 237.739 839.750, 242.182 848.149 C 244.668 852.848, 245.703 853.883, 248.336 854.305 C 250.076 854.583, 265.563 854.865, 282.750 854.932 C 309.963 855.036, 314 854.858, 314 853.547 C 314 852.719, 310.654 845.389, 306.564 837.258 C 295.880 816.016, 293.692 808.104, 293.632 790.500 C 293.578 774.506, 295.290 766.318, 301.891 751.007 C 317.843 714.006, 351.431 692.893, 390.428 695.353 C 436.500 698.260, 474.888 729.137, 483.675 770.356 C 485.995 781.239, 484.989 801.763, 481.561 813.500 C 470.025 852.995, 445.350 874.546, 402.648 882.420 C 386.147 885.462, 372.939 886, 314.144 886.025 C 281.340 886.039, 220.075 886.439, 178 886.914 C 135.925 887.389, 85.525 887.490, 66 887.137 C 46.475 886.785, 30.395 886.528, 30.266 886.566 C 30.137 886.604, 29.729 900.780, 29.360 918.068 L 28.689 949.500 166.594 949.248 C 373.357 948.869, 394.200 948.608, 407.500 946.223 C 448.423 938.887, 477.940 924.157, 504.043 898.047 C 521.935 880.149, 532.864 862.709, 539.806 840.976 C 545.660 822.647, 546.500 816.563, 546.500 792.500 C 546.500 773.229, 546.210 769.146, 544.165 759.589 C 530.027 693.526, 476.749 642.063, 412.638 632.543 C 403.238 631.148, 381.353 630.670, 373.500 631.689 M 1117.877 706.259 C 1108.358 719.046, 1094.404 740.320, 1089.628 749.324 C 1086.963 754.351, 1086.257 756.590, 1086.950 757.824 C 1087.468 758.746, 1093.508 766.700, 1100.372 775.500 C 1107.236 784.300, 1116.785 798.025, 1121.592 806 C 1132.006 823.277, 1136.724 830, 1138.433 830 C 1140.468 830, 1156.345 819.665, 1164.232 813.207 C 1172.018 806.831, 1180.498 798.234, 1183.443 793.731 C 1185.207 791.035, 1185.196 790.801, 1183.006 784.731 C 1178.742 772.910, 1165.859 748.995, 1155.017 732.771 C 1145.143 717.997, 1127.880 695.986, 1126.185 696.009 C 1125.808 696.014, 1122.069 700.627, 1117.877 706.259 M 1340.529 747.728 C 1338.085 754.357, 1331.246 767.006, 1324.389 777.584 C 1317.217 788.646, 1307.694 807.141, 1308.730 807.996 C 1309.153 808.346, 1311.525 809.486, 1314 810.529 C 1316.475 811.572, 1327.950 817.572, 1339.500 823.863 C 1390.925 851.868, 1416.334 862.792, 1437.530 866.005 C 1443.875 866.966, 1445.425 866.937, 1446.121 865.839 C 1446.587 865.103, 1446.976 851.669, 1446.985 835.987 C 1446.999 809.190, 1446.888 807.415, 1445.138 806.487 C 1444.114 805.944, 1439.501 802.448, 1434.888 798.717 C 1415.532 783.065, 1383.966 762.996, 1359.334 750.682 C 1341.650 741.842, 1342.642 741.998, 1340.529 747.728 M 1039.435 812.759 C 1036.099 815.367, 1028.899 822.176, 1023.435 827.891 C 1012.151 839.693, 1001.447 849.129, 975.059 870.538 L 956.618 885.500 971.059 885.810 C 992.705 886.275, 1008.151 884.006, 1033.835 876.589 C 1071.433 865.730, 1084.482 861.851, 1084.933 861.400 C 1086.172 860.161, 1071.619 836.823, 1062.547 825.500 C 1057.457 819.147, 1046.926 807.994, 1046.031 808.009 C 1045.739 808.014, 1042.771 810.151, 1039.435 812.759 M 1.037 837.250 C 1.008 859.611, 1.278 865.997, 2.250 865.984 C 6.343 865.933, 15.476 862.874, 18.561 860.521 C 30.956 851.068, 27.994 836.373, 9.925 817.664 L 1.074 808.500 1.037 837.250 M 1189.450 919.864 C 1188.928 920.339, 1185.350 922.424, 1181.500 924.496 C 1177.650 926.569, 1170.752 930.468, 1166.171 933.161 C 1155.058 939.694, 1143.877 945.240, 1136.250 948.004 C 1132.813 949.249, 1130 950.457, 1130 950.687 C 1130 950.918, 1134.314 959.663, 1139.587 970.121 C 1161.907 1014.391, 1180.454 1042.890, 1200.807 1064.193 C 1210.286 1074.115, 1218.390 1080.279, 1228 1084.876 C 1234.771 1088.115, 1236.326 1088.465, 1244 1088.482 L 1252.500 1088.500 1254.500 1084.500 C 1256.229 1081.043, 1256.497 1078.532, 1256.475 1066 C 1256.446 1049.390, 1254.391 1039.489, 1246.304 1017 C 1236.123 988.686, 1211.141 942.845, 1195.214 923.250 C 1191.596 918.799, 1191.003 918.451, 1189.450 919.864 M 1.762 1089.707 C 3.006 1089.946, 4.806 1089.937, 5.762 1089.687 C 6.718 1089.437, 5.700 1089.241, 3.500 1089.252 C 1.300 1089.263, 0.518 1089.468, 1.762 1089.707 " stroke="none" fill="black" fill-rule="evenodd"/>
</svg>