<svg xmlns="http://www.w3.org/2000/svg" width="1503" height="1244" viewBox="0 0 1503 1244" version="1.1">
	<path d="M 27.113 551 C 26.901 854.325, 26.386 1099.244, 25.968 1095.265 C 23.738 1074.049, 16.195 1053.185, 4.247 1035.185 C 1.622 1031.229, 0.416 1030.081, 0.179 1031.309 C -0.006 1032.270, 1.397 1035.406, 3.296 1038.278 C 15.633 1056.934, 22.596 1079.079, 23.711 1103.200 C 24.459 1119.391, 22.924 1130.892, 17.891 1146.798 C 15.751 1153.563, 14 1159.673, 14 1160.378 C 14 1161.083, 10.850 1166.637, 7 1172.721 C 3.150 1178.805, 0 1184.568, 0 1185.526 C 0 1186.956, 0.337 1186.841, 1.876 1184.885 C 6.024 1179.611, 15.953 1163.017, 16.559 1160.348 C 16.914 1158.781, 18.702 1152.769, 20.532 1146.986 C 23.610 1137.259, 25.455 1128.669, 26.328 1120 C 26.521 1118.075, 26.752 1144.946, 26.840 1179.714 L 27 1242.928 17.250 1243.254 L 7.500 1243.581 17.750 1243.791 L 28 1244 28.126 1183.250 C 28.210 1142.995, 28.550 1124.862, 29.134 1129.500 C 34.925 1175.493, 68.067 1217.532, 111.352 1233.791 C 127.141 1239.721, 139.468 1242.071, 158.108 1242.704 C 184.770 1243.610, 199.140 1240.385, 230.670 1226.423 C 259.300 1213.744, 277.297 1203.315, 309.880 1180.520 C 348.616 1153.420, 354.944 1148.167, 384.523 1118.554 C 408.784 1094.265, 412.924 1089.623, 425.023 1073.142 C 432.435 1063.045, 442.675 1049.168, 447.778 1042.304 C 452.881 1035.440, 458.220 1027.501, 459.643 1024.662 C 461.066 1021.823, 467.002 1010.730, 472.834 1000.011 C 478.667 989.291, 485.332 975.875, 487.647 970.196 C 492.400 958.532, 494.067 955.651, 497.264 953.577 C 505.016 948.549, 625.101 927.193, 656 925.348 C 661.225 925.036, 667.525 924.112, 670 923.295 C 674.885 921.681, 727.626 918.564, 770 917.385 C 812.478 916.203, 884.293 921.448, 944 930.094 C 990.070 936.765, 1029.653 944.341, 1045.821 949.581 C 1051.623 951.462, 1058.251 953, 1060.551 953 L 1064.732 953 1067.860 959.995 C 1069.580 963.842, 1071.390 968.780, 1071.881 970.967 C 1072.373 973.154, 1073.983 976.380, 1075.460 978.135 C 1076.937 979.890, 1080.414 985.866, 1083.187 991.413 C 1098.412 1021.874, 1117.720 1051.314, 1139.935 1077.941 C 1191.885 1140.209, 1241.340 1179.338, 1312.500 1214.474 C 1341.896 1228.989, 1358.902 1236.007, 1373.728 1239.741 C 1383.289 1242.149, 1386.355 1242.453, 1401 1242.448 C 1419.774 1242.440, 1426.800 1241.111, 1445.353 1234.056 C 1451.219 1231.825, 1456.836 1230, 1457.835 1230 C 1458.834 1230, 1460.742 1228.829, 1462.076 1227.398 C 1463.409 1225.967, 1468.404 1222.116, 1473.176 1218.840 C 1478.164 1215.415, 1486.281 1208.298, 1492.273 1202.096 C 1501.291 1192.762, 1502.787 1190.731, 1503.381 1187.021 C 1503.758 1184.663, 1503.826 1182.493, 1503.533 1182.200 C 1503.240 1181.907, 1503 1182.601, 1503 1183.744 C 1503 1188.786, 1483.928 1208.703, 1470.479 1217.706 C 1465.517 1221.027, 1460.849 1224.477, 1460.106 1225.372 C 1459.363 1226.267, 1458.361 1227, 1457.880 1227 C 1457.399 1227, 1451.006 1229.221, 1443.673 1231.936 C 1426.723 1238.211, 1415.864 1240.322, 1400.500 1240.328 C 1377.185 1240.338, 1357.211 1233.941, 1313.590 1212.497 C 1243.650 1178.113, 1190.510 1135.687, 1139.493 1073.500 C 1118.240 1047.594, 1101.358 1021.690, 1086.990 992.936 C 1084.122 987.196, 1080.263 980.379, 1078.416 977.787 C 1076.568 975.195, 1074.763 971.820, 1074.403 970.287 C 1074.043 968.754, 1072.191 963.819, 1070.286 959.320 L 1066.823 951.140 1060.161 950.490 C 1056.498 950.132, 1052.150 949.233, 1050.500 948.492 C 1042.714 944.995, 1015.706 939.137, 979.500 933.092 C 886.619 917.583, 809.133 912.421, 728.500 916.373 C 680.122 918.744, 677.071 918.962, 670.500 920.512 C 667.200 921.290, 659.100 922.424, 652.500 923.031 C 637.010 924.455, 618.354 927.099, 588.500 932.098 C 561.179 936.674, 508.092 947.139, 500.278 949.490 C 493.621 951.493, 491.200 954.611, 485.806 968.132 C 483.531 973.835, 476.182 988.625, 469.475 1001 C 462.768 1013.375, 456.430 1025.139, 455.391 1027.142 C 454.351 1029.145, 450.158 1035.220, 446.072 1040.642 C 441.987 1046.064, 431.590 1059.950, 422.968 1071.500 C 409.219 1089.917, 404.414 1095.396, 383.896 1116.047 C 355.036 1145.094, 344.373 1153.741, 298 1185.701 C 277.180 1200.050, 264.042 1207.716, 242.500 1218.084 C 201.969 1237.592, 180.413 1242.800, 151.230 1240.134 C 116.265 1236.940, 87.991 1223.716, 65.890 1200.220 C 33.856 1166.165, 23.361 1121.937, 36.530 1076.492 C 40.091 1064.204, 45.719 1052.585, 54.441 1039.515 C 63.144 1026.472, 72.407 1017.231, 87 1007.035 C 92.775 1003, 98.400 998.912, 99.500 997.949 C 100.600 996.987, 104.425 995.484, 108 994.609 C 126.039 990.195, 165.692 965.607, 192.516 942.202 C 206.065 930.379, 224.266 908.088, 236.913 887.825 C 245.011 874.850, 254.308 856.245, 256.563 848.500 C 257.525 845.200, 259.320 840.367, 260.553 837.760 C 261.786 835.153, 269.253 806.923, 277.147 775.026 L 291.500 717.031 779.869 717.265 L 1268.238 717.500 1270.120 724.500 C 1271.156 728.350, 1272.461 734.431, 1273.020 738.012 C 1273.580 741.594, 1275.307 749.244, 1276.859 755.012 C 1278.410 760.781, 1283.327 779.225, 1287.786 796 C 1297.657 833.136, 1303.153 849.487, 1311.483 866.500 C 1319.046 881.945, 1326.613 893.742, 1338.072 907.950 C 1369.952 947.478, 1398.975 969.003, 1449.500 990.587 C 1463.963 996.765, 1477.763 1006.586, 1491.750 1020.656 C 1500.113 1029.068, 1504 1032.376, 1504 1031.081 C 1504 1028.536, 1486.383 1010.798, 1477 1003.896 C 1465.933 995.754, 1460.472 992.667, 1445.244 985.940 C 1398.106 965.116, 1370.323 944.185, 1340.467 907 C 1316.339 876.950, 1304.917 851.777, 1291.010 798 C 1287.667 785.075, 1283.851 770.900, 1282.531 766.500 C 1278.159 751.932, 1276 742.229, 1276 737.142 C 1276 734.379, 1275.587 731.863, 1275.081 731.550 C 1274.021 730.895, 1270 714.461, 1270 710.781 C 1270 709.422, 1270.900 707.495, 1272 706.500 C 1273.100 705.505, 1274 704.325, 1274 703.879 C 1274 703.432, 1277.417 697.871, 1281.593 691.520 C 1289.867 678.938, 1294.664 668.264, 1298.807 653.221 L 1301.484 643.500 1301.492 553.500 L 1301.500 463.500 1298.705 449 C 1293.296 420.936, 1288.491 405.260, 1279.369 385.906 C 1270.550 367.197, 1270.038 364.195, 1270.017 331 C 1269.978 270.908, 1265.828 236.557, 1254.490 202.473 C 1247.642 181.886, 1237.845 161.014, 1226.394 142.613 C 1223.977 138.729, 1222 134.804, 1222 133.891 C 1222 132.977, 1220.901 131.510, 1219.559 130.630 C 1218.216 129.751, 1215.653 126.886, 1213.863 124.265 C 1212.074 121.644, 1203.900 111.739, 1195.700 102.253 C 1182.229 86.669, 1178.511 83.124, 1157.160 65.503 C 1144.163 54.776, 1132.925 46, 1132.186 46 C 1131.447 46, 1119.259 40.182, 1105.102 33.070 C 1086.962 23.958, 1077.019 19.555, 1071.431 18.158 C 1062.158 15.841, 1052.285 12.270, 1051.460 10.935 C 1051.142 10.421, 1049.404 10, 1047.597 10 C 1045.790 10, 1037.675 8.656, 1029.563 7.013 C 1021.450 5.370, 1008.218 3.505, 1000.157 2.870 C 979.750 1.261, 617.235 0.510, 586 2.011 C 542.982 4.079, 522.169 7.075, 498.798 14.565 C 491.186 17.004, 483.824 19, 482.438 19 C 481.053 19, 478.700 19.897, 477.210 20.994 C 475.719 22.091, 468.510 25.676, 461.189 28.959 C 453.867 32.243, 445.317 36.470, 442.189 38.352 C 439.060 40.234, 434.177 42.938, 431.337 44.360 C 428.498 45.782, 423.824 48.645, 420.952 50.723 C 400.852 65.260, 391.089 72.871, 384.435 79.192 C 373.800 89.294, 355.338 110.038, 349.007 119 C 346.093 123.125, 342.199 128.189, 340.354 130.253 C 338.509 132.317, 337 134.446, 337 134.983 C 337 135.521, 335.491 138.332, 333.646 141.231 C 313.954 172.167, 299.566 210.793, 292.984 250.395 C 291.805 257.488, 290.517 264.238, 290.121 265.395 C 289.726 266.553, 289.269 289.775, 289.106 317 C 288.789 369.826, 288.818 369.518, 283.652 375.644 C 282.193 377.374, 281 379.487, 281 380.341 C 281 381.195, 278.319 388.555, 275.043 396.697 C 269.164 411.307, 262.794 432.765, 261.446 442.500 C 261.065 445.250, 260.049 449.075, 259.188 451 C 257.811 454.077, 257.574 466.066, 257.222 550.108 L 256.823 645.716 259.280 650.608 C 260.632 653.299, 263.335 660.477, 265.289 666.560 C 268.894 677.788, 272.908 685.684, 280.507 696.500 C 287.763 706.827, 289.316 710.656, 288.627 716.517 C 287.639 724.926, 261.140 830.070, 258.641 835.500 C 257.375 838.250, 255.304 843.875, 254.040 848 C 246.785 871.658, 219.041 913.345, 195.705 935.651 C 186.720 944.239, 167.215 959.513, 153.392 968.785 C 135.717 980.640, 110.464 993, 103.916 993 C 100.704 993, 70.013 1015.968, 63.405 1023.317 C 57.217 1030.198, 45.720 1047.697, 41.367 1056.858 C 35.182 1069.874, 29.569 1089.899, 28.751 1101.860 C 28.615 1103.862, 28.276 856.650, 28 552.500 L 27.497 -0.500 27.113 551 M 607 3.714 C 589.761 4.065, 559.418 5.966, 545 7.598 C 526.203 9.725, 514.074 12.220, 499.556 16.943 C 492.697 19.174, 486.279 20.984, 485.293 20.964 C 484.307 20.944, 479.450 22.957, 474.500 25.436 C 469.550 27.916, 460.325 32.421, 454 35.447 C 440.359 41.973, 427.182 48.992, 425.204 50.785 C 424.425 51.492, 421.022 53.934, 417.644 56.212 C 408.335 62.489, 397.368 71, 388.749 78.634 C 379.910 86.465, 357.494 110.929, 352.805 117.863 C 351.081 120.413, 347.589 125.200, 345.046 128.500 C 338.578 136.893, 327.018 156.566, 320.512 170.253 C 309.862 192.659, 301.584 217.978, 297.219 241.500 C 296.097 247.550, 294.587 255.425, 293.864 259 C 292.934 263.597, 292.463 277.872, 292.253 307.750 C 291.991 345.266, 292.130 350, 293.499 350 C 296.803 350, 307.754 344.712, 321.808 336.331 C 329.888 331.512, 339.200 326.429, 342.500 325.035 L 348.500 322.500 775.500 322.197 C 1088.001 321.976, 1203.903 322.195, 1207.732 323.015 C 1214.966 324.564, 1223.110 330.832, 1233.199 342.616 C 1252.012 364.587, 1254.970 367.735, 1260.117 371.270 C 1263.078 373.302, 1266.962 375.255, 1268.750 375.608 L 1271.999 376.250 1270.559 372.166 C 1267.823 364.414, 1267 352.745, 1266.996 321.678 C 1266.990 279.575, 1265.293 258.193, 1259.838 231.500 C 1254.189 203.862, 1241.076 171.268, 1225.428 145.970 C 1222.442 141.144, 1220 136.692, 1220 136.076 C 1220 135.459, 1218.296 133.053, 1216.214 130.728 C 1214.132 128.402, 1211.230 124.873, 1209.766 122.884 C 1208.301 120.896, 1200.807 111.958, 1193.112 103.023 C 1180.806 88.735, 1176.433 84.556, 1156.810 68.329 C 1144.540 58.181, 1133.375 49.382, 1132 48.775 C 1130.625 48.168, 1118.275 42.060, 1104.556 35.201 C 1085.370 25.610, 1077.493 22.207, 1070.437 20.459 C 1065.391 19.210, 1058.091 16.796, 1054.214 15.094 C 1050.337 13.392, 1045.890 11.998, 1044.332 11.996 C 1042.775 11.994, 1034.741 10.661, 1026.479 9.034 C 1013.941 6.564, 1007.330 5.909, 986.479 5.070 C 965.474 4.224, 639.204 3.058, 607 3.714 M 345.971 326.442 C 340.684 328.390, 333.139 332.352, 322.960 338.524 C 310.806 345.894, 300.812 350.863, 296.240 351.810 L 292.500 352.584 291.880 360.168 C 291.424 365.746, 290.522 369.107, 288.471 372.876 C 286.937 375.694, 285.339 378, 284.921 378 C 284.502 378, 283.849 379.410, 283.471 381.134 C 283.092 382.858, 280.540 389.720, 277.799 396.384 C 272.164 410.084, 267.032 427.115, 264.038 442.051 C 262.921 447.621, 261.748 452.599, 261.431 453.112 C 260.031 455.376, 259.503 486.107, 259.540 563 L 259.580 645.500 262.153 651 C 263.567 654.025, 266.171 661, 267.938 666.500 C 271.490 677.557, 274.670 683.797, 282.461 695 C 289.085 704.524, 290.236 706.694, 290.952 711 L 291.534 714.500 779.767 714.751 L 1268 715.002 1268 711.343 C 1268 708.418, 1269.741 705.054, 1276.670 694.592 C 1289.621 675.035, 1295.489 660.798, 1298.198 642.365 C 1300.081 629.544, 1300.063 477.968, 1298.176 463 C 1294.878 436.838, 1287.383 409.032, 1278.412 389.671 C 1274.603 381.453, 1273.051 379.061, 1271.500 379.026 C 1267.632 378.938, 1258.897 374.016, 1253.328 368.786 C 1250.232 365.879, 1243.417 358.373, 1238.184 352.108 C 1225.600 337.042, 1219.013 330.684, 1212.765 327.570 L 1207.607 325 778.554 325.070 C 429.015 325.128, 348.846 325.382, 345.971 326.442 M 778.645 375.139 C 777.035 376.075, 765.761 398.414, 744.524 442.750 C 741.297 449.488, 738.060 455, 737.330 455 C 735.050 455, 650.572 466.975, 649.184 467.495 C 646.926 468.341, 653.735 476.622, 664 485.515 C 677.702 497.385, 696.997 516.414, 697.018 518.077 C 697.028 518.859, 699.237 520.939, 701.927 522.698 C 708.233 526.820, 712.184 532.003, 712.239 536.223 C 712.262 538.025, 708.843 557.781, 704.641 580.124 C 700.438 602.468, 697 621.224, 697 621.805 C 697 624.092, 710.206 618.470, 723.500 610.522 C 734.841 603.742, 743.164 599.396, 748.500 597.468 C 751.250 596.474, 754.175 595.138, 755 594.500 C 757.180 592.812, 765.281 588.255, 772.237 584.804 C 779.798 581.052, 781.418 581.327, 794.115 588.516 C 799.436 591.529, 809.575 596.963, 816.645 600.592 C 838.955 612.042, 852.420 619.290, 854.885 621.176 C 857.597 623.251, 861 623.594, 861 621.793 C 861 621.129, 857.595 601.010, 853.434 577.086 L 845.867 533.586 853.305 526.543 C 857.395 522.669, 861.999 517.700, 863.536 515.500 C 867.240 510.197, 879.791 497.777, 888.500 490.795 C 892.350 487.708, 899.095 481.834, 903.489 477.741 L 911.478 470.298 908.307 468.659 C 904.925 466.910, 874.259 462.133, 849.500 459.498 C 839.539 458.438, 833.154 457.256, 830.493 455.979 C 828.289 454.922, 825.147 454.157, 823.510 454.278 C 820.824 454.478, 820.216 453.914, 817.277 448.500 C 815.486 445.200, 813.360 440.344, 812.552 437.710 C 811.745 435.075, 804.836 420.900, 797.199 406.210 C 789.563 391.519, 783.010 378.262, 782.638 376.750 C 781.896 373.734, 781.404 373.535, 778.645 375.139 M 766.558 399.750 C 760.220 412.813, 751.539 430.739, 747.267 439.586 L 739.500 455.671 694.750 461.982 C 670.138 465.453, 650 468.628, 650 469.038 C 650 470.718, 658.065 479.359, 665.567 485.715 C 676.327 494.832, 696.327 514.375, 697.895 517.303 C 698.589 518.600, 700.404 520.398, 701.928 521.299 C 706.084 523.753, 711.060 529.085, 712.645 532.780 C 713.948 535.818, 713.492 539.065, 706.464 576.780 C 702.291 599.176, 698.629 618.349, 698.327 619.386 C 697.851 621.026, 698.153 621.179, 700.639 620.557 C 704.396 619.617, 718.167 612.600, 729.779 605.708 C 734.883 602.678, 742.080 598.918, 745.773 597.350 C 749.465 595.783, 757.440 591.689, 763.493 588.254 C 778.041 579.998, 779.476 579.774, 788.408 584.357 C 792.309 586.358, 797.075 588.908, 799 590.023 C 800.925 591.139, 812.087 597, 823.805 603.048 C 835.522 609.096, 848.056 615.835, 851.657 618.022 C 859.192 622.600, 860.423 622.865, 859.681 619.750 C 859.387 618.513, 855.892 598.640, 851.915 575.590 L 844.684 533.679 852.592 526.057 C 856.941 521.865, 861.821 516.540, 863.436 514.225 C 866.800 509.402, 881.562 494.857, 887.500 490.516 C 892.695 486.718, 908.966 471.730, 908.985 470.725 C 908.993 470.299, 907.968 469.558, 906.707 469.079 C 903.671 467.924, 865.519 462.335, 851.154 460.939 C 844.914 460.333, 837.489 459.150, 834.654 458.310 C 831.819 457.469, 827.250 456.558, 824.500 456.284 L 819.500 455.785 815.726 448.097 C 813.650 443.869, 811.495 438.753, 810.936 436.729 C 810.377 434.705, 804.463 422.575, 797.793 409.774 C 791.124 396.974, 784.584 384.137, 783.260 381.250 C 781.936 378.363, 780.230 376, 779.468 376 C 778.650 376, 773.364 385.726, 766.558 399.750 M 0.158 1032 C 0.158 1033.375, 0.385 1033.938, 0.662 1033.250 C 0.940 1032.563, 0.940 1031.438, 0.662 1030.750 C 0.385 1030.063, 0.158 1030.625, 0.158 1032 M 0.158 1185 C 0.158 1186.375, 0.385 1186.938, 0.662 1186.250 C 0.940 1185.563, 0.940 1184.438, 0.662 1183.750 C 0.385 1183.063, 0.158 1183.625, 0.158 1185 M 1.762 1243.707 C 3.006 1243.946, 4.806 1243.937, 5.762 1243.687 C 6.718 1243.437, 5.700 1243.241, 3.500 1243.252 C 1.300 1243.263, 0.518 1243.468, 1.762 1243.707 " stroke="none" fill="black" fill-rule="evenodd"/>
</svg>