<svg xmlns="http://www.w3.org/2000/svg" width="1287" height="1546" viewBox="0 0 1287 1546" version="1.1">
	<path d="M 27.248 772.212 L 27 1544.925 17.750 1545.255 L 8.500 1545.585 18.250 1545.792 L 28 1546 28.102 1057.750 C 28.184 670.983, 28.459 570.643, 29.425 575 C 31.771 585.574, 35.198 594.049, 39.480 599.866 C 42.959 604.591, 46.581 607.577, 58.148 615.251 C 78.128 628.507, 86.377 637.815, 95.558 657.461 C 105.640 679.036, 109.984 695.249, 118.987 744.907 C 129.019 800.236, 137.971 822.974, 160.169 849.500 C 193.408 889.223, 246.328 922.822, 290.352 932.155 C 303.684 934.982, 323.335 935.160, 333.500 932.547 C 346.846 929.117, 357.649 923.162, 367.709 913.691 L 372.918 908.787 369.471 901.942 C 367.575 898.177, 364.920 891.819, 363.571 887.814 L 361.119 880.532 349.809 880.371 C 343.589 880.283, 334.900 879.497, 330.500 878.626 C 326.100 877.754, 314.463 875.886, 304.641 874.475 C 276.816 870.477, 259.426 865.364, 243.057 856.367 C 222.224 844.917, 204.922 827.010, 193.703 805.288 C 188.327 794.879, 185.396 785.425, 155.595 682.359 C 128.149 587.439, 127.515 585.152, 128.397 584.268 C 129.655 583.009, 210.829 582.760, 233.296 583.946 C 295.636 587.239, 339.384 595.719, 375 611.415 C 406.790 625.425, 430.459 647.137, 442.505 673.340 C 455.060 700.652, 456.738 736.216, 447.430 777.718 C 443.304 796.115, 443.823 795.585, 437.894 787.453 C 430.917 777.884, 424.352 763.984, 422.574 755.019 C 421.662 750.422, 420.421 747.050, 419.354 746.269 C 418.097 745.350, 412.445 745, 398.881 745 L 380.144 745 378.206 750.250 C 374.437 760.464, 373.502 766.323, 373.534 779.500 C 373.571 794.407, 374.968 800.801, 381.013 813.743 C 393.391 840.240, 419.628 865.398, 461.182 890.615 C 496.988 912.343, 535.419 929.678, 620.504 962.481 C 672.508 982.530, 685.151 988.073, 699.957 997.314 C 738.770 1021.539, 762.403 1051.579, 776.643 1094.789 C 784.023 1117.184, 788.500 1143.135, 791.085 1178.500 C 792.674 1200.249, 792.420 1267.717, 790.538 1323.500 C 789.684 1348.800, 788.515 1393.337, 787.939 1422.470 C 787.364 1451.604, 786.776 1475.557, 786.634 1475.699 C 786.492 1475.842, 706.416 1476.267, 608.688 1476.644 L 431 1477.330 431 1466.498 C 431 1460.541, 431.986 1434.254, 433.191 1408.083 C 435.830 1350.787, 436.414 1244.107, 434.216 1221 C 431.188 1189.169, 426.867 1167.428, 420.927 1154.146 L 417.829 1147.215 411.664 1145.453 C 408.274 1144.484, 402.074 1143.678, 397.887 1143.662 C 384.771 1143.610, 376.763 1148.899, 370.879 1161.500 C 362.506 1179.430, 361.147 1207.176, 365.540 1270.500 C 367.355 1296.663, 367.148 1344.055, 364.967 1402 C 363.409 1443.375, 364.807 1477.498, 369.106 1503 C 371.183 1515.326, 374.612 1528.755, 376.173 1530.681 C 385.138 1541.740, 678.795 1550.781, 773 1542.898 C 779.875 1542.322, 791.896 1540.760, 799.714 1539.426 C 807.532 1538.092, 815.958 1537, 818.438 1537 C 822.343 1537, 823.142 1536.631, 824.389 1534.250 C 825.181 1532.737, 827.481 1529.925, 829.500 1528 C 831.519 1526.075, 833.786 1523.327, 834.537 1521.892 C 838.253 1514.802, 841.959 1485.991, 844.233 1446.500 C 847.352 1392.345, 844.501 1120.284, 840.530 1093.117 C 835.102 1055.987, 821.269 1026.704, 798 1003.085 C 781.043 985.872, 762.175 972.555, 718.500 946.973 C 685.493 927.640, 657.998 909.577, 658.007 907.233 C 658.020 904.080, 661.815 889.642, 665.034 880.500 C 676.780 847.141, 698.318 822.015, 731.288 803.208 C 750.854 792.047, 772.856 783.378, 815.525 770.019 C 893.935 745.470, 904.460 741.685, 933.532 727.580 C 976.403 706.780, 1006.172 686.858, 1030.013 663.015 C 1053.059 639.965, 1063.927 619.136, 1063.983 597.910 C 1064.013 586.273, 1058.063 568.925, 1051.105 560.369 L 1049.372 558.238 1038.936 560.028 C 1013.545 564.385, 1010.234 566.274, 1012.160 575.303 C 1013.035 579.403, 1012.876 580.626, 1010.951 584.601 C 1008.486 589.694, 1001.004 596.120, 991.876 600.986 L 986.216 604.002 978.692 594.186 C 956.037 564.631, 941.086 534.920, 935.320 508 C 933.937 501.541, 933.520 495.419, 933.584 482.500 C 933.659 467.466, 933.973 464.362, 936.299 455.663 C 942.831 431.233, 957.933 408.652, 981 388.825 C 1021.006 354.440, 1083.774 327.886, 1161.357 312.526 C 1178.865 309.060, 1207.738 304.633, 1220.750 303.418 C 1229.196 302.630, 1228.671 301.512, 1226.549 315.757 C 1223.219 338.109, 1220.892 366.472, 1217.995 420 C 1213.125 509.989, 1209.255 535.521, 1196.545 561.500 C 1186.966 581.079, 1177.651 589.954, 1152.390 603.571 C 1135.137 612.870, 1128.554 617.921, 1123.163 625.994 C 1116.905 635.365, 1112.457 652.143, 1113.191 663.606 L 1113.500 668.439 1119 670.118 C 1136.134 675.350, 1156.195 671.801, 1175.384 660.143 C 1211.318 638.313, 1246.243 589.395, 1258.556 543.647 C 1264.055 523.216, 1264.899 506.620, 1264.085 435 C 1263.614 393.601, 1264.539 382.746, 1270.516 359.500 C 1274.474 344.105, 1278.672 333.522, 1283.778 326.066 L 1287.500 320.632 1287.763 285.566 C 1287.908 266.280, 1287.683 251.007, 1287.263 251.626 C 1286.704 252.452, 1284.232 252.342, 1278 251.215 C 1266.963 249.219, 1215.546 248.937, 1199.500 250.785 C 1128.863 258.918, 1068.608 275.787, 1015 302.435 C 980.090 319.789, 954.209 337.717, 931.956 359.961 C 869.470 422.422, 862.032 500.795, 910.189 589.299 C 917.830 603.342, 930.392 623.089, 938.215 633.354 C 943.320 640.054, 944.556 642.538, 946.620 650.251 C 947.951 655.224, 948.918 659.395, 948.770 659.520 C 948.621 659.645, 925.775 669.523, 898 681.471 C 870.225 693.420, 841.689 705.722, 834.586 708.809 L 821.672 714.421 816.328 708.461 C 808.671 699.920, 801.794 690.117, 787.925 667.969 C 771.182 641.231, 760.896 627.749, 745.571 612.458 C 714.323 581.277, 672.442 556.400, 609 531.334 C 548.529 507.442, 536.957 502.491, 508.924 488.516 C 459.226 463.739, 428.447 439.517, 415.615 415.083 C 413.714 411.463, 410.131 402.580, 407.654 395.345 C 405.176 388.109, 402.379 380.684, 401.438 378.845 C 396.732 369.650, 388.235 362.819, 375.214 357.763 C 366.371 354.329, 367.066 354.043, 354.414 366.330 L 346 374.502 346 380.313 C 346 387.596, 343.133 393.918, 335.493 403.482 L 329.915 410.463 322.708 410.174 C 306.942 409.541, 285.781 405.192, 270.267 399.397 C 222.211 381.447, 189.903 345.627, 180.616 300 C 179.777 295.875, 178.576 286.324, 177.949 278.777 C 176.522 261.615, 177.582 245.553, 183.038 201.648 C 190.546 141.233, 190.449 107.911, 182.657 70.742 L 181.244 64 183.523 64 C 188.129 64, 208.876 67.987, 222 71.394 C 272.336 84.463, 338.985 114.732, 383.853 144.901 C 424.604 172.302, 445.922 202.044, 451.658 239.500 C 453.219 249.695, 453.221 249.315, 451.361 302.022 C 450.622 322.970, 451.723 331.191, 456.559 340.820 C 458.405 344.494, 461.846 349.649, 464.207 352.275 L 468.500 357.051 479.053 351.775 C 496.856 342.876, 501.270 338.086, 504.961 323.654 C 509.754 304.910, 511.484 265.750, 508.427 245.162 C 497.182 169.430, 442.384 104.750, 348.500 56.393 C 275.955 19.028, 177.972 -4.934, 126.322 2.059 C 111.282 4.096, 111.792 3.767, 107.386 14.252 C 101.164 29.059, 101.438 30.963, 113.373 55.935 C 129.941 90.596, 131.518 98.182, 131.368 142.500 C 131.314 158.450, 130.753 180.725, 130.121 192 C 123.818 304.441, 133.263 358.972, 166.387 401.393 C 201.273 446.068, 267.849 467.155, 358 462.082 C 369.275 461.447, 380.075 460.683, 382 460.383 C 385.401 459.854, 385.626 460.031, 389.924 466.590 C 408.614 495.115, 439.610 520.136, 481.500 540.511 C 501.939 550.453, 518.342 557.136, 567.397 575.509 C 590.440 584.140, 616.059 594.099, 624.328 597.640 C 691.677 626.486, 728.535 658.398, 747.428 704.222 C 752.442 716.385, 756.176 730.623, 754.664 731.817 C 754.024 732.323, 741.612 739.151, 727.083 746.991 C 674.900 775.149, 659.976 785.731, 644.577 805.500 C 636.111 816.368, 632.174 823.166, 622.370 843.843 C 611.605 866.546, 607.168 874.717, 600.452 884.211 L 594.997 891.922 583.249 887.893 C 564.874 881.592, 544.933 872.821, 513.500 857.214 C 497.550 849.295, 484.390 842.710, 484.255 842.580 C 484.121 842.450, 485.368 838.329, 487.028 833.422 C 491.297 820.796, 497.455 795.692, 499.885 781 C 510.951 714.109, 498.728 657.791, 463.965 615.500 C 436.844 582.506, 398.519 558.454, 346.309 541.663 C 274.206 518.475, 173.859 515.617, 97.196 534.569 C 69.742 541.356, 46.321 551.193, 34.252 561.007 L 28.003 566.088 27.750 282.794 C 27.611 126.982, 27.385 347.221, 27.248 772.212 M 1 285.049 L 1 317.907 8.968 311.903 C 13.350 308.601, 17.910 304.531, 19.101 302.858 C 23.085 297.262, 25.153 288.404, 25.729 274.460 L 26.268 261.419 19.384 258.278 C 15.598 256.551, 9.912 254.474, 6.750 253.663 L 1 252.190 1 285.049 M 1.762 1545.707 C 3.006 1545.946, 4.806 1545.937, 5.762 1545.687 C 6.718 1545.437, 5.700 1545.241, 3.500 1545.252 C 1.300 1545.263, 0.518 1545.468, 1.762 1545.707 " stroke="none" fill="black" fill-rule="evenodd"/>
</svg>