<svg xmlns="http://www.w3.org/2000/svg" width="856" height="1303" viewBox="0 0 856 1303" version="1.1">
	<path d="M 783.660 1.048 C 746.777 7.238, 716.878 36.175, 699.501 82.500 C 688.856 110.876, 683.205 149.562, 684.886 182.548 L 685.500 194.596 680.500 190.744 C 661.370 176.009, 618.247 163.220, 566.473 156.928 C 544.665 154.278, 489.983 153.179, 467 154.929 C 378.903 161.636, 306.641 187.899, 254.218 232.262 C 249.662 236.117, 241 244.440, 234.968 250.756 C 228.935 257.073, 224 261.847, 224 261.365 C 224 258.350, 220.779 234.157, 219.491 227.500 C 208.680 171.605, 185.515 132.813, 153.500 116.992 C 129.381 105.072, 107.099 106.497, 84 121.435 C 68.862 131.225, 56.473 145.932, 46.979 165.382 C 32.959 194.104, 27.044 225.650, 28.317 264.920 C 29.231 293.130, 33.114 315.288, 41.629 340.885 C 56.794 386.469, 82.909 419.841, 115.291 435.015 C 125.804 439.942, 137.818 443.266, 145.582 443.397 C 150.959 443.488, 152.809 442.932, 161.544 438.601 C 169.919 434.449, 172.813 432.315, 180.537 424.601 C 185.548 419.595, 191.557 412.575, 193.890 409 C 203.201 394.730, 211.764 374.085, 216.921 353.469 C 222.320 331.891, 225.700 297.867, 224.625 275.912 L 224.009 263.324 239.754 255.732 C 326.973 213.682, 413.731 190.771, 508 184.895 C 531.748 183.415, 593.694 184.312, 615.500 186.451 C 642.002 189.052, 677.939 193.825, 684 195.551 C 685.101 195.864, 685.961 199.277, 687.232 208.374 C 696.945 277.879, 732.242 328.098, 780.117 340.528 C 785.269 341.865, 786.360 341.826, 793.271 340.058 C 815.467 334.382, 834.922 317.310, 851.581 288.892 L 856.500 280.500 856.766 159.068 C 856.912 92.280, 856.753 37.914, 856.413 38.254 C 856.073 38.594, 853.214 35.625, 850.060 31.656 C 836.283 14.320, 819.513 4.251, 799.153 1.092 C 791.365 -0.117, 790.609 -0.119, 783.660 1.048 M 1.029 159.027 L 1.059 277.500 4.460 269.868 C 14.929 246.372, 22.715 215.283, 26.089 183.500 C 27.816 167.234, 27.553 133.009, 25.583 117.500 C 22.474 93.033, 16.743 71.837, 8.489 54.280 C 0.235 36.722, 0.996 26.038, 1.029 159.027 M 658.231 283.436 C 648.555 300.735, 640.689 322.811, 629.523 364 C 620.168 398.512, 613.724 417.281, 605.836 433 C 593.569 457.443, 578.100 474.684, 560.284 483.768 C 532.050 498.165, 507.060 504.189, 475.500 504.208 C 456.898 504.219, 450.561 503.572, 420 498.541 C 408.725 496.685, 395.450 494.859, 390.500 494.484 C 347.017 491.185, 330.795 521.842, 323.820 620.500 C 323.036 631.590, 322.538 659.038, 322.523 692 C 322.498 749.383, 322.131 743.205, 328.653 795 C 331.978 821.401, 332.423 851.423, 329.722 867.012 C 324.356 897.973, 313.592 918.432, 283.953 954 C 261.948 980.406, 250.588 996.886, 240.435 1017.129 C 221.878 1054.127, 211.099 1099.171, 207.083 1156.500 C 205.418 1180.279, 204.636 1216.628, 205.814 1215.500 C 206.389 1214.950, 211.789 1203.250, 217.815 1189.500 C 252.306 1110.792, 269.778 1077.239, 288.039 1054.644 C 300.501 1039.226, 313.631 1027.399, 357 992.528 C 369.925 982.136, 387.555 967.641, 396.178 960.317 C 404.801 952.993, 412.279 947, 412.794 947 C 413.310 947, 420.612 951.310, 429.021 956.579 C 494.647 997.692, 545.098 1046.345, 586.808 1108.740 C 604.664 1135.451, 613.711 1150.660, 643.469 1204 C 665.880 1244.169, 680.317 1268.494, 693.128 1287.668 C 702.281 1301.368, 704.439 1303.878, 703.590 1299.834 C 703.321 1298.550, 702.826 1293.900, 702.490 1289.500 C 700.101 1258.177, 691.172 1214.084, 679.303 1175 C 664.119 1125.002, 647.267 1085.282, 602.724 994.500 C 574.184 936.335, 565.124 916.790, 554.443 890.347 C 538.363 850.536, 529.032 816.984, 524.449 782.500 C 521.048 756.903, 522.291 739.218, 529.602 709.195 C 538.731 671.706, 550.922 647.369, 586.684 595.250 C 617.445 550.419, 630.046 527.004, 641.980 492.500 C 658.447 444.892, 666.224 381.725, 664.552 309.169 C 664.180 293.038, 663.550 278.959, 663.153 277.884 C 662.559 276.278, 661.679 277.270, 658.231 283.436 M 267.189 288.749 C 249.225 370.506, 255.115 435.547, 287.975 518.313 C 295.649 537.640, 306.424 562.028, 313.241 575.500 L 317.796 584.500 318.445 580.500 C 320.070 570.494, 323.462 557.079, 328.021 542.633 C 335.317 519.512, 337.241 511.353, 337.377 502.950 C 337.492 495.919, 337.214 494.853, 333.339 487.450 C 331.051 483.077, 325.283 472.975, 320.522 465 C 304.173 437.617, 294.993 416.250, 287.985 389.273 C 281.820 365.542, 276.144 332.501, 272.077 296.667 C 271.027 287.408, 269.979 279.645, 269.749 279.416 C 269.519 279.186, 268.367 283.386, 267.189 288.749 M 468.486 314.387 C 444.509 318.976, 423.943 335.538, 414.584 357.794 C 406.240 377.637, 407.419 400.427, 417.827 420.500 C 423.184 430.833, 436.908 444.310, 447.713 449.851 C 469.338 460.940, 493.828 460.925, 515.287 449.808 C 525.772 444.376, 538.938 431.687, 544.483 421.667 C 564.835 384.894, 550.824 339.353, 513.500 320.962 C 509.100 318.794, 502.800 316.328, 499.500 315.483 C 490.938 313.289, 476.828 312.791, 468.486 314.387 M 1.762 1302.707 C 3.006 1302.946, 4.806 1302.937, 5.762 1302.687 C 6.718 1302.437, 5.700 1302.241, 3.500 1302.252 C 1.300 1302.263, 0.518 1302.468, 1.762 1302.707 M 13.784 1302.738 C 16.689 1302.941, 21.189 1302.939, 23.784 1302.734 C 26.378 1302.528, 24 1302.363, 18.500 1302.365 C 13 1302.368, 10.878 1302.536, 13.784 1302.738 " stroke="none" fill="black" fill-rule="evenodd"/>
</svg>