<svg xmlns="http://www.w3.org/2000/svg" width="1569" height="1112" viewBox="0 0 1569 1112" version="1.1">
	<path d="M 481 1.058 C 416.090 9.043, 349.901 45.201, 278.253 111.815 C 221.359 164.712, 159.898 253.522, 117.096 344.682 C 68.842 447.454, 41.196 545.414, 30.788 650.500 C 29.023 668.314, 29.046 740.377, 30.821 756.500 C 39.872 838.703, 61.976 898.609, 102.587 950.998 C 113.394 964.941, 134.822 986.650, 148.735 997.754 C 196.184 1035.621, 256.858 1060.256, 329.057 1070.966 C 375.819 1077.903, 442.344 1078.893, 493.500 1073.413 C 541.177 1068.306, 566.462 1060.789, 627.139 1033.682 C 661.443 1018.357, 674.910 1014.363, 700.500 1011.927 C 714.251 1010.617, 728.062 1011.120, 762.500 1014.182 C 793.268 1016.918, 829.090 1017.106, 850.264 1014.642 C 928.226 1005.572, 991.571 984.432, 1042.500 950.488 C 1050.200 945.356, 1059.650 938.626, 1063.500 935.534 C 1146.323 869.002, 1177.978 767.781, 1150.367 657.767 C 1127.362 566.106, 1065.523 477.753, 974.294 406.200 L 970.088 402.901 956.304 444.982 C 945.983 476.494, 942.339 486.490, 941.796 484.782 C 941.398 483.527, 939 468.550, 936.468 451.500 C 926.946 387.381, 921.158 363.744, 905.502 325.048 C 871.684 241.464, 824.308 172.029, 772.761 130.503 C 763.646 123.161, 741.499 108, 739.888 108 C 739.325 108, 739.099 108.787, 739.385 109.750 C 739.670 110.712, 742.592 124.100, 745.878 139.500 C 755.337 183.833, 759.532 208.371, 762.633 237.500 C 764.776 257.629, 765.075 304.001, 763.179 322 C 759.253 359.257, 750.437 395.176, 736.239 431.768 C 730.722 445.985, 728.156 450.656, 732.037 439.414 C 742.754 408.372, 748.358 359.951, 746.058 318.276 C 739.363 196.975, 687.943 88.139, 612 34.524 C 589.612 18.718, 563.096 7.673, 534.811 2.370 C 524.909 0.513, 491.957 -0.290, 481 1.058 M 1480 761.063 C 1458.976 766.536, 1441.846 778.269, 1399.408 816.267 L 1388.500 826.033 1377.500 825.399 C 1290.194 820.366, 1185.321 815.487, 1184.316 816.411 C 1183.665 817.010, 1182.146 819.975, 1180.940 823 C 1175.206 837.383, 1156.791 885.744, 1156.333 887.624 C 1155.900 889.400, 1156.528 889.999, 1160.157 891.274 C 1167.069 893.700, 1274.203 936.147, 1288 941.925 C 1312.120 952.025, 1323.760 959.464, 1328.182 967.601 C 1329.647 970.296, 1331.578 976.325, 1332.474 981 C 1339.413 1017.182, 1344.229 1033.759, 1351.493 1046.461 C 1364.888 1069.884, 1386.731 1090.873, 1409.277 1101.987 C 1442.623 1118.425, 1471.835 1112.639, 1496.943 1084.624 C 1514.751 1064.753, 1529.116 1032.942, 1541.463 986.033 C 1546.375 967.369, 1550.173 958.828, 1562.299 939.172 L 1569.500 927.500 1569.778 861.555 C 1569.931 825.286, 1569.746 795.920, 1569.368 796.298 C 1568.990 796.676, 1564.508 792.948, 1559.407 788.014 C 1549.922 778.838, 1537.289 769.853, 1527.700 765.463 C 1513.450 758.939, 1494.774 757.216, 1480 761.063 M 1.062 861.500 L 1.038 925.500 4.185 920.500 C 15.411 902.668, 23.912 882.255, 26.636 866.594 C 30.429 844.778, 22.741 821.705, 5.111 802 L 1.085 797.500 1.062 861.500 M 1.762 1111.707 C 3.006 1111.946, 4.806 1111.937, 5.762 1111.687 C 6.718 1111.437, 5.700 1111.241, 3.500 1111.252 C 1.300 1111.263, 0.518 1111.468, 1.762 1111.707 M 13.784 1111.738 C 16.689 1111.941, 21.189 1111.939, 23.784 1111.734 C 26.378 1111.528, 24 1111.363, 18.500 1111.365 C 13 1111.368, 10.878 1111.536, 13.784 1111.738 " stroke="none" fill="black" fill-rule="evenodd"/>
</svg>