<svg xmlns="http://www.w3.org/2000/svg" width="1275" height="1221" viewBox="0 0 1275 1221" version="1.1">
	<path d="M 27.249 609.712 L 27 1219.925 17.750 1220.255 L 8.500 1220.585 18.250 1220.792 L 28 1221 28.095 1167.750 L 28.191 1114.500 31.701 1125 C 34.098 1132.170, 35.381 1138.121, 35.747 1143.767 C 36.262 1151.696, 36.390 1152.055, 38.892 1152.560 C 47.327 1154.266, 62.776 1160.195, 79.453 1168.127 C 101.649 1178.684, 112.763 1183.228, 130 1188.794 C 212.269 1215.358, 281.360 1222.964, 349 1212.902 C 380.352 1208.238, 405.094 1201.641, 463 1182.506 C 547.025 1154.739, 576.571 1148.615, 626.500 1148.615 C 653.141 1148.615, 667.062 1149.871, 693 1154.617 C 725.486 1160.560, 748.827 1167.860, 795 1186.516 C 841.675 1205.375, 861.118 1211.563, 887.502 1215.956 C 923.134 1221.888, 962.795 1221.410, 1010.891 1214.468 C 1048.800 1208.997, 1068.072 1203.845, 1116.716 1186.182 C 1173.231 1165.662, 1193.359 1160.649, 1240 1155.481 C 1263.427 1152.886, 1271.466 1151.592, 1274 1150.011 C 1275.272 1149.217, 1275.544 1144.261, 1275.791 1117.453 C 1275.974 1097.562, 1275.727 1086.050, 1275.127 1086.421 C 1274.602 1086.746, 1270.447 1086.121, 1265.894 1085.034 C 1240.367 1078.937, 1211.054 1080.519, 1174.500 1089.968 C 1154.094 1095.242, 1144.853 1098.267, 1106.500 1112.224 C 1040.130 1136.377, 1022.963 1141.370, 992 1145.525 C 975.489 1147.741, 930.589 1148.651, 914.499 1147.097 C 878.067 1143.576, 853.624 1136.901, 798 1115.283 C 739.797 1092.662, 713.614 1085.452, 671 1080.311 C 649.744 1077.747, 588.091 1077.749, 569 1080.314 C 533.567 1085.075, 510.693 1091.634, 454 1113.289 C 410.083 1130.064, 382.209 1137.600, 345.500 1142.623 C 327.365 1145.104, 285.760 1145.114, 267.500 1142.641 C 237.982 1138.643, 215.034 1133.156, 168.500 1118.966 C 115.128 1102.692, 101.106 1099.668, 79 1099.662 C 59.745 1099.657, 47.696 1102.596, 34.569 1110.501 C 31.373 1112.425, 28.588 1114, 28.380 1114 C 28.172 1114, 27.888 863.238, 27.750 556.750 L 27.498 -0.500 27.249 609.712 M 543 2.510 C 441.953 13.888, 359.170 72.024, 301.338 172.223 C 228.013 299.263, 206.767 486.065, 245.974 659 C 255.441 700.761, 273.724 761.268, 290.693 807 C 313.671 868.925, 336.390 915.748, 362.506 955 C 407.051 1021.950, 451.512 1048.476, 499.137 1036.515 C 502.637 1035.637, 510.590 1032.412, 516.812 1029.350 C 531.607 1022.067, 539.780 1014.347, 545.832 1001.938 C 551.750 989.804, 553.429 980.141, 552.682 962.515 C 552.036 947.274, 550.019 936.130, 544.421 916.868 C 535.458 886.023, 521.195 852.611, 485.995 780 C 433.720 672.165, 421.058 637.804, 413.583 583.500 C 405.399 524.042, 409.332 470.458, 425.209 425.113 C 448.505 358.576, 498.497 310.675, 561.500 294.522 C 598.397 285.062, 634.147 288.160, 660.722 303.121 C 666.569 306.413, 671.749 310.728, 681.582 320.500 C 707.954 346.705, 719.170 370.108, 719.205 399 C 719.237 425.281, 709.965 450.401, 687.729 484.280 C 678.171 498.842, 675.071 503.086, 641.879 547.043 C 606.468 593.938, 592.763 618.027, 585.763 645.680 C 582.615 658.116, 582.651 680.808, 585.837 692.500 C 590.368 709.126, 604.450 732.619, 611.702 735.649 C 626.014 741.629, 653.383 743.162, 673 739.082 C 714.326 730.488, 755.649 705.464, 797 663.991 C 889.733 570.984, 949.518 422.223, 942.178 302.750 C 939.298 255.859, 930.538 221.254, 911.966 183.400 C 879.378 116.977, 820.687 66.602, 738 34.084 C 698.384 18.505, 660.689 8.556, 621.760 3.406 C 604.709 1.151, 559.628 0.638, 543 2.510 M 1044 425.662 C 1012.632 427.842, 985.559 441.292, 968.180 463.329 C 958.009 476.227, 951.250 490.395, 946.536 508.702 C 931.806 565.903, 947.299 614.512, 989.111 642.281 C 1038.510 675.088, 1110.890 668.999, 1151.249 628.639 C 1164.855 615.034, 1174.671 598.545, 1180.802 579 C 1184.969 565.716, 1186.362 556.406, 1186.266 542.500 C 1186.175 529.509, 1184.659 520.762, 1180.454 508.984 C 1164.483 464.242, 1117.106 430.780, 1063 426.027 C 1056.675 425.472, 1050.825 425.092, 1050 425.183 C 1049.175 425.275, 1046.475 425.490, 1044 425.662 M 1 1117.580 C 1 1146.710, 1.081 1148.027, 2.813 1147.100 C 6.509 1145.122, 13.295 1136.627, 16.073 1130.499 C 18.906 1124.250, 26 1102.133, 26 1099.547 C 26 1098.181, 12.896 1091.252, 5.250 1088.576 L 1 1087.089 1 1117.580 M 1.762 1220.707 C 3.006 1220.946, 4.806 1220.937, 5.762 1220.687 C 6.718 1220.437, 5.700 1220.241, 3.500 1220.252 C 1.300 1220.263, 0.518 1220.468, 1.762 1220.707 " stroke="none" fill="black" fill-rule="evenodd"/>
</svg>